<svg width="112" height="125" viewBox="0 0 112 125" fill="none" xmlns="http://www.w3.org/2000/svg">
<path fill-rule="evenodd" clip-rule="evenodd" d="M64.0205 9.19921C60.288 9.19921 57.2621 12.3541 57.2621 16.2458C57.2621 20.1376 60.288 23.2925 64.0205 23.2925C67.7531 23.2925 70.779 20.1375 70.779 16.2458C70.779 12.3542 67.7531 9.19921 64.0205 9.19921ZM48.4391 16.2458C48.4391 7.27359 55.415 0 64.0205 0C72.6258 0 79.602 7.27347 79.602 16.2458C79.602 23.6207 74.8889 29.8477 68.432 31.8314V69.5676L6.41605 102.529C4.24542 103.683 1.58875 102.784 0.48223 100.521C-0.624294 98.2574 0.238339 95.4874 2.40897 94.3337L59.609 63.9315V31.8314C53.152 29.8477 48.4391 23.6206 48.4391 16.2458ZM28.4814 25.3347C24.7489 25.3347 21.7231 28.4895 21.7231 32.3813C21.7231 36.273 24.7489 39.4278 28.4814 39.4278C32.2141 39.4278 35.24 36.2729 35.24 32.3813C35.24 28.4896 32.2141 25.3347 28.4814 25.3347ZM12.9001 32.3813C12.9001 23.409 19.876 16.1355 28.4814 16.1355C37.0868 16.1355 44.063 23.4089 44.063 32.3813C44.063 39.0801 40.1744 44.8318 34.6224 47.3166V61.0835L6.55649 77.3561C4.42718 78.5907 1.74113 77.7917 0.557044 75.5716C-0.627044 73.3515 0.139216 70.5509 2.26853 69.3164L25.7994 55.6731V48.3873C18.4721 47.0619 12.9001 40.4001 12.9001 32.3813ZM96.4185 81.0819C92.686 81.0819 89.6601 84.2367 89.6601 88.1285C89.6601 92.0203 92.686 95.1751 96.4185 95.1751C100.151 95.1751 103.177 92.0202 103.177 88.1285C103.177 84.2368 100.151 81.0819 96.4185 81.0819ZM80.9798 85.9207C82.013 77.9928 88.5313 71.8827 96.4185 71.8827C105.024 71.8827 112 79.1562 112 88.1285C112 97.1009 105.024 104.374 96.4185 104.374C90.2137 104.374 84.8561 100.593 82.3498 95.1199H65.0258L6.32396 124.545C4.12813 125.645 1.49229 124.682 0.436626 122.392C-0.619035 120.103 0.305248 117.355 2.50107 116.254L63.0151 85.9207H80.9798Z" fill="url(#paint0_linear)"/>
<defs>
<linearGradient id="paint0_linear" x1="92.6414" y1="6.43945" x2="12.2468" y2="94.1815" gradientUnits="userSpaceOnUse">
<stop stop-color="#2E2E42"/>
<stop offset="1" stop-color="#2E2E42" stop-opacity="0"/>
</linearGradient>
</defs>
</svg>
