<svg width="132" height="152" viewBox="0 0 132 152" fill="none" xmlns="http://www.w3.org/2000/svg">
<path d="M84.6436 151.248C58.6766 151.248 37.5502 129.398 37.5502 102.543V77.4478C37.5502 71.8011 41.9791 67.2207 47.439 67.2207C52.8989 67.2207 57.3278 71.8011 57.3278 77.4478V102.543C57.3278 118.122 69.5834 130.793 84.6436 130.793C99.707 130.793 111.959 118.118 111.959 102.543V11.6588C111.959 6.01206 116.388 1.43164 121.848 1.43164C127.308 1.43164 131.737 6.01206 131.737 11.6588V102.543C131.737 129.398 110.611 151.248 84.6436 151.248Z" fill="url(#paint0_linear)"/>
<path d="M10.2311 150.795C4.77117 150.795 0.342285 146.215 0.342285 140.568V49.6842C0.342285 22.8287 21.4687 0.979492 47.4357 0.979492C73.4027 0.979492 94.5324 22.8287 94.5324 49.6842V77.4483C94.5324 83.095 90.1035 87.6755 84.6436 87.6755C79.1836 87.6755 74.7548 83.095 74.7548 77.4483V49.6842C74.7548 34.1054 62.4991 21.4338 47.439 21.4338C32.3788 21.4338 20.1231 34.1087 20.1231 49.6842V140.568C20.1199 146.215 15.6943 150.795 10.2311 150.795Z" fill="url(#paint1_linear)"/>
<defs>
<linearGradient id="paint0_linear" x1="37.5491" y1="76.3404" x2="131.738" y2="76.3404" gradientUnits="userSpaceOnUse">
<stop stop-color="#03E38D"/>
<stop offset="0.1413" stop-color="#08D795"/>
<stop offset="0.3965" stop-color="#15B7AB"/>
<stop offset="0.7341" stop-color="#2A84CE"/>
<stop offset="1" stop-color="#3D57ED"/>
</linearGradient>
<linearGradient id="paint1_linear" x1="0.343323" y1="75.8867" x2="94.5324" y2="75.8867" gradientUnits="userSpaceOnUse">
<stop stop-color="#03E38D"/>
<stop offset="0.1413" stop-color="#08D795"/>
<stop offset="0.3965" stop-color="#15B7AB"/>
<stop offset="0.7341" stop-color="#2A84CE"/>
<stop offset="1" stop-color="#3D57ED"/>
</linearGradient>
</defs>
</svg>
