<svg width="34" height="37" viewBox="0 0 34 37" fill="none" xmlns="http://www.w3.org/2000/svg">
<path d="M17.0316 12.7822L16.0872 16.7254C17.156 17.0027 20.4537 18.137 20.9872 15.9044C21.5432 13.5799 18.0987 13.0613 17.0316 12.7822ZM15.6124 18.7168L14.5713 23.0651C15.8541 23.3982 19.8149 24.7234 20.4002 22.2711C21.0131 19.7107 16.897 19.0499 15.6124 18.7168Z" fill="white"/>
<path d="M21.1121 0.69941C12.0019 -1.71664 2.77955 4.18322 0.509246 13.8782C-1.76276 23.5695 3.78121 33.3875 12.8845 35.8054C21.9947 38.2214 31.2222 32.3234 33.4908 22.6284C35.7628 12.9353 30.2188 3.11726 21.1121 0.69941ZM24.498 15.6753C24.2514 17.438 23.3314 18.2904 22.1137 18.5908C23.7888 19.5174 24.6391 20.9399 23.8296 23.4066C22.8229 26.4669 20.4318 26.7257 17.2483 26.0851L16.4762 29.3789L14.6124 28.8848L15.3725 25.6381C14.8752 25.5059 14.3792 25.3683 13.8845 25.2254L13.1209 28.4903L11.2588 27.9926L12.0308 24.6934C11.5938 24.5739 11.1516 24.4472 10.701 24.3278L8.2708 23.6853L9.19933 21.4122C9.19933 21.4122 10.5734 21.8013 10.5547 21.7724C11.0836 21.9117 11.3166 21.5462 11.4084 21.3L12.6312 16.0969L12.8267 16.1494C12.7636 16.1224 12.6989 16.1 12.6329 16.0825L13.5036 12.367C13.5257 11.9435 13.3913 11.4114 12.6346 11.2106C12.6652 11.1907 11.2792 10.8522 11.2792 10.8522L11.774 8.73118L14.3488 9.41527L14.3471 9.42432C14.7331 9.52748 15.131 9.6252 15.5375 9.72293L16.3011 6.46172L18.1666 6.95579L17.4184 10.1518C17.9183 10.2731 18.4234 10.3962 18.9132 10.5265L19.6581 7.35032L21.5236 7.84439L20.76 11.1056C23.1137 11.9725 24.8347 13.2683 24.498 15.6753Z" fill="white"/>
</svg>
