<svg width="41" height="42" viewBox="0 0 41 42" fill="none" xmlns="http://www.w3.org/2000/svg">
<path d="M20.5 1.99996C30.7124 1.99996 39 10.3014 39 20.5526C39 30.8038 30.7124 39.1052 20.5 39.1052C10.2876 39.1052 2 30.8038 2 20.5526C2 10.3014 10.2876 1.99996 20.5 1.99996Z" stroke="url(#paint0_linear)" stroke-width="4"/>
<path d="M14.4928 25.4294C13.2799 25.4294 12.5747 23.9952 13.2816 22.9649L19.6753 13.6493C19.8171 13.4428 20.0052 13.2757 20.223 13.1625C20.4409 13.0494 20.6819 12.9937 20.9251 13.0003C21.1683 13.0069 21.4063 13.0755 21.6182 13.2003C21.8302 13.3251 22.0096 13.5021 22.141 13.716L27.861 23.0316C28.4972 24.0681 27.7852 25.4294 26.6065 25.4294L14.4928 25.4294Z" fill="white"/>
<defs>
<linearGradient id="paint0_linear" x1="9.64054" y1="43.1368" x2="34.8175" y2="5.19286" gradientUnits="userSpaceOnUse">
<stop stop-color="#3D57ED"/>
<stop offset="1" stop-color="#08D795"/>
</linearGradient>
</defs>
</svg>
