<?xml version="1.0" encoding="utf-8"?>
<!-- Generator: Adobe Illustrator 25.2.1, SVG Export Plug-In . SVG Version: 6.00 Build 0)  -->
<svg version="1.1" id="Layer_1" xmlns="http://www.w3.org/2000/svg" xmlns:xlink="http://www.w3.org/1999/xlink" x="0px" y="0px"
	 viewBox="0 0 512 512" style="enable-background:new 0 0 512 512;" xml:space="preserve">
<style type="text/css">
	.st0{fill:#1E1E28;}
	.st1{fill:#FFFFFF;}
</style>
<path class="st0" d="M400.8,449.4H111.2c-26.9,0-48.6-21.8-48.6-48.6V111.2c0-26.9,21.8-48.6,48.6-48.6h289.5
	c26.9,0,48.6,21.8,48.6,48.6v289.5C449.4,427.6,427.6,449.4,400.8,449.4z"/>
<path class="st1" d="M371.5,176.8L267,116.6c-6-3.5-15.9-3.5-21.9,0l-104.6,60.2c-6,3.5-11,12-11,18.9v120.5
	c0.5,8.1,4.6,14.8,11,18.9L245,395.4c6,3.5,15.9,3.5,21.9,0l104.6-60.2c6.8-4.5,10.7-11.3,11-18.9V195.8
	C382.3,188.5,377.9,181.1,371.5,176.8L371.5,176.8z M171.7,256c-0.5-82.1,109.8-118.4,157.4-42.1L292.5,235
	c-22-36.4-76.7-23.4-78.7,21c0.6,40.9,54.4,59.9,78.7,21l36.5,21.1C287.1,370.7,173.8,344.6,171.7,256L171.7,256z M340.3,260.7H331
	v9.3h-9.4v-9.3h-9.4v-9.3h9.4V242h9.4v9.3h9.4V260.7L340.3,260.7z M375.5,260.7h-9.4v9.3h-9.4v-9.3h-9.4v-9.3h9.4V242h9.4v9.3h9.4
	V260.7L375.5,260.7z"/>
</svg>
