<svg width="177" height="165" viewBox="0 0 177 165" fill="none" xmlns="http://www.w3.org/2000/svg">
<circle cx="100.469" cy="76.6174" r="76.1677" fill="url(#paint0_linear)"/>
<circle cx="38.9091" cy="125.135" r="27.6499" transform="rotate(140.705 38.9091 125.135)" fill="url(#paint1_linear)"/>
<path d="M78.6635 83.202C76.9628 79.8223 76 75.9847 76 71.9145C76 58.4029 86.5907 47.4497 99.6551 47.4497C112.719 47.4497 123.31 58.4029 123.31 71.9145C123.31 75.9847 122.347 79.8223 120.647 83.202" stroke="white" stroke-width="5" stroke-miterlimit="10" stroke-linecap="round"/>
<path d="M100.028 80.4114C105.291 80.4114 109.557 75.9988 109.557 70.5555C109.557 65.1123 105.291 60.6997 100.028 60.6997C94.7645 60.6997 90.498 65.1123 90.498 70.5555C90.498 75.9988 94.7645 80.4114 100.028 80.4114Z" fill="#222230"/>
<path d="M100.028 84.4741C93.9136 84.4741 88.2634 86.531 83.6884 90.0124C80.561 92.3964 82.2617 97.5495 86.148 97.5568L113.928 97.5786C117.815 97.5786 119.522 92.4255 116.395 90.0415C111.82 86.5383 106.156 84.4741 100.028 84.4741Z" fill="#222230"/>
<defs>
<linearGradient id="paint0_linear" x1="9.4334" y1="44.7939" x2="165.421" y2="169.479" gradientUnits="userSpaceOnUse">
<stop stop-color="#08D795"/>
<stop offset="1" stop-color="#3D57ED"/>
</linearGradient>
<linearGradient id="paint1_linear" x1="5.86178" y1="113.583" x2="62.4873" y2="158.846" gradientUnits="userSpaceOnUse">
<stop stop-color="#08D795"/>
<stop offset="1" stop-color="#3D57ED"/>
</linearGradient>
</defs>
</svg>
