<?xml version="1.0" encoding="utf-8"?>
<!-- Generator: Adobe Illustrator 25.2.1, SVG Export Plug-In . SVG Version: 6.00 Build 0)  -->
<svg version="1.1" id="Layer_1" xmlns="http://www.w3.org/2000/svg" xmlns:xlink="http://www.w3.org/1999/xlink" x="0px" y="0px"
	 viewBox="0 0 512 512" style="enable-background:new 0 0 512 512;" xml:space="preserve">
<style type="text/css">
	.st0{fill:#181823;}
	.st1{fill:url(#SVGID_1_);}
	.st2{fill:url(#SVGID_2_);}
	.st3{fill:#FFFFFF;}
	.st4{fill:url(#SVGID_3_);}
	.st5{fill:url(#SVGID_4_);}
	.st6{fill:url(#SVGID_5_);}
	.st7{fill:url(#SVGID_6_);}
	.st8{fill:url(#SVGID_7_);}
	.st9{fill:url(#SVGID_8_);}
	.st10{fill:url(#SVGID_9_);}
	.st11{fill:url(#SVGID_10_);}
	.st12{fill:url(#SVGID_11_);}
</style>
<g>
	<path class="st0" d="M400.8,449.4H111.2c-26.9,0-48.6-21.8-48.6-48.6V111.2c0-26.9,21.8-48.6,48.6-48.6h289.5
		c26.9,0,48.6,21.8,48.6,48.6v289.5C449.4,427.6,427.6,449.4,400.8,449.4z"/>
	<linearGradient id="SVGID_1_" gradientUnits="userSpaceOnUse" x1="187.3465" y1="289.657" x2="318.4598" y2="289.657">
		<stop  offset="0" style="stop-color:#03E38D"/>
		<stop  offset="0.1012" style="stop-color:#08D795"/>
		<stop  offset="0.284" style="stop-color:#15B7AB"/>
		<stop  offset="0.5258" style="stop-color:#2A84CE"/>
		<stop  offset="0.7163" style="stop-color:#3D57ED"/>
		<stop  offset="1" style="stop-color:#3D25ED"/>
	</linearGradient>
	<rect x="187.3" y="280.1" class="st1" width="131.1" height="19.1"/>
	<linearGradient id="SVGID_2_" gradientUnits="userSpaceOnUse" x1="187.3465" y1="219.5981" x2="318.4598" y2="219.5981">
		<stop  offset="0" style="stop-color:#03E38D"/>
		<stop  offset="0.1012" style="stop-color:#08D795"/>
		<stop  offset="0.284" style="stop-color:#15B7AB"/>
		<stop  offset="0.5258" style="stop-color:#2A84CE"/>
		<stop  offset="0.7163" style="stop-color:#3D57ED"/>
		<stop  offset="1" style="stop-color:#3D25ED"/>
	</linearGradient>
	<rect x="187.3" y="210" class="st2" width="131.1" height="19.1"/>
	<g>
		<path class="st3" d="M321.8,156.3H184c-6.6,0-11.9,5.3-11.9,11.9v32.7c0,6.6,5.3,11.9,11.9,11.9h137.8c6.6,0,11.9-5.3,11.9-11.9
			v-32.7C333.7,161.7,328.4,156.3,321.8,156.3z"/>
		<g>
			<linearGradient id="SVGID_3_" gradientUnits="userSpaceOnUse" x1="189.8045" y1="163.4875" x2="214.7599" y2="192.5339">
				<stop  offset="0" style="stop-color:#03E38D"/>
				<stop  offset="0.1012" style="stop-color:#08D795"/>
				<stop  offset="0.284" style="stop-color:#15B7AB"/>
				<stop  offset="0.5258" style="stop-color:#2A84CE"/>
				<stop  offset="0.7163" style="stop-color:#3D57ED"/>
				<stop  offset="1" style="stop-color:#3D25ED"/>
			</linearGradient>
			<circle class="st4" cx="207.4" cy="184" r="15.1"/>
			<g>
				<g>
					<linearGradient id="SVGID_4_" gradientUnits="userSpaceOnUse" x1="228.1079" y1="176.5128" x2="313.4778" y2="176.5128">
						<stop  offset="0" style="stop-color:#03E38D"/>
						<stop  offset="7.291698e-02" style="stop-color:#0DCB9E"/>
						<stop  offset="0.2143" style="stop-color:#1EA1BA"/>
						<stop  offset="0.3525" style="stop-color:#2C81D0"/>
						<stop  offset="0.4849" style="stop-color:#356AE0"/>
						<stop  offset="0.6089" style="stop-color:#3B5CEA"/>
						<stop  offset="0.7163" style="stop-color:#3D57ED"/>
						<stop  offset="1" style="stop-color:#3D25ED"/>
					</linearGradient>
					<path class="st5" d="M310.7,179.3h-79.9c-1.5,0-2.7-1.2-2.7-2.7c0-1.5,1.2-2.7,2.7-2.7h79.9c1.5,0,2.7,1.2,2.7,2.7
						C313.5,178,312.2,179.3,310.7,179.3z"/>
				</g>
				<g>
					<linearGradient id="SVGID_5_" gradientUnits="userSpaceOnUse" x1="228.1079" y1="191.4616" x2="313.4778" y2="191.4616">
						<stop  offset="0" style="stop-color:#03E38D"/>
						<stop  offset="7.291698e-02" style="stop-color:#0DCB9E"/>
						<stop  offset="0.2143" style="stop-color:#1EA1BA"/>
						<stop  offset="0.3525" style="stop-color:#2C81D0"/>
						<stop  offset="0.4849" style="stop-color:#356AE0"/>
						<stop  offset="0.6089" style="stop-color:#3B5CEA"/>
						<stop  offset="0.7163" style="stop-color:#3D57ED"/>
						<stop  offset="1" style="stop-color:#3D25ED"/>
					</linearGradient>
					<path class="st6" d="M310.7,194.2h-79.9c-1.5,0-2.7-1.2-2.7-2.7s1.2-2.7,2.7-2.7h79.9c1.5,0,2.7,1.2,2.7,2.7
						S312.2,194.2,310.7,194.2z"/>
				</g>
			</g>
		</g>
	</g>
	<g>
		<path class="st3" d="M321.8,227.8H184c-6.6,0-11.9,5.3-11.9,11.9v32.7c0,6.6,5.3,11.9,11.9,11.9h137.8c6.6,0,11.9-5.3,11.9-11.9
			v-32.7C333.7,233.1,328.4,227.8,321.8,227.8z"/>
		<g>
			<linearGradient id="SVGID_6_" gradientUnits="userSpaceOnUse" x1="189.8045" y1="234.9187" x2="214.7599" y2="263.9651">
				<stop  offset="0" style="stop-color:#03E38D"/>
				<stop  offset="0.1012" style="stop-color:#08D795"/>
				<stop  offset="0.284" style="stop-color:#15B7AB"/>
				<stop  offset="0.5258" style="stop-color:#2A84CE"/>
				<stop  offset="0.7163" style="stop-color:#3D57ED"/>
				<stop  offset="1" style="stop-color:#3D25ED"/>
			</linearGradient>
			<circle class="st7" cx="207.4" cy="255.4" r="15.1"/>
			<g>
				<g>
					<linearGradient id="SVGID_7_" gradientUnits="userSpaceOnUse" x1="228.1079" y1="247.944" x2="313.4778" y2="247.944">
						<stop  offset="0" style="stop-color:#03E38D"/>
						<stop  offset="7.291698e-02" style="stop-color:#0DCB9E"/>
						<stop  offset="0.2143" style="stop-color:#1EA1BA"/>
						<stop  offset="0.3525" style="stop-color:#2C81D0"/>
						<stop  offset="0.4849" style="stop-color:#356AE0"/>
						<stop  offset="0.6089" style="stop-color:#3B5CEA"/>
						<stop  offset="0.7163" style="stop-color:#3D57ED"/>
						<stop  offset="1" style="stop-color:#3D25ED"/>
					</linearGradient>
					<path class="st8" d="M310.7,250.7h-79.9c-1.5,0-2.7-1.2-2.7-2.7c0-1.5,1.2-2.7,2.7-2.7h79.9c1.5,0,2.7,1.2,2.7,2.7
						C313.5,249.5,312.2,250.7,310.7,250.7z"/>
				</g>
				<g>
					<linearGradient id="SVGID_8_" gradientUnits="userSpaceOnUse" x1="228.1079" y1="262.8928" x2="313.4778" y2="262.8928">
						<stop  offset="0" style="stop-color:#03E38D"/>
						<stop  offset="7.291698e-02" style="stop-color:#0DCB9E"/>
						<stop  offset="0.2143" style="stop-color:#1EA1BA"/>
						<stop  offset="0.3525" style="stop-color:#2C81D0"/>
						<stop  offset="0.4849" style="stop-color:#356AE0"/>
						<stop  offset="0.6089" style="stop-color:#3B5CEA"/>
						<stop  offset="0.7163" style="stop-color:#3D57ED"/>
						<stop  offset="1" style="stop-color:#3D25ED"/>
					</linearGradient>
					<path class="st9" d="M310.7,265.6h-79.9c-1.5,0-2.7-1.2-2.7-2.7c0-1.5,1.2-2.7,2.7-2.7h79.9c1.5,0,2.7,1.2,2.7,2.7
						C313.5,264.4,312.2,265.6,310.7,265.6z"/>
				</g>
			</g>
		</g>
	</g>
	<g>
		<path class="st3" d="M321.8,296.9H184c-6.6,0-11.9,5.3-11.9,11.9v32.7c0,6.6,5.3,11.9,11.9,11.9h137.8c6.6,0,11.9-5.3,11.9-11.9
			v-32.7C333.7,302.2,328.4,296.9,321.8,296.9z"/>
		<g>
			<linearGradient id="SVGID_9_" gradientUnits="userSpaceOnUse" x1="189.8045" y1="304.0568" x2="214.7599" y2="333.1032">
				<stop  offset="0" style="stop-color:#03E38D"/>
				<stop  offset="0.1012" style="stop-color:#08D795"/>
				<stop  offset="0.284" style="stop-color:#15B7AB"/>
				<stop  offset="0.5258" style="stop-color:#2A84CE"/>
				<stop  offset="0.7163" style="stop-color:#3D57ED"/>
				<stop  offset="1" style="stop-color:#3D25ED"/>
			</linearGradient>
			<circle class="st10" cx="207.4" cy="324.6" r="15.1"/>
			<g>
				<g>
					<linearGradient id="SVGID_10_" gradientUnits="userSpaceOnUse" x1="228.1079" y1="317.0821" x2="313.4778" y2="317.0821">
						<stop  offset="0" style="stop-color:#03E38D"/>
						<stop  offset="7.291698e-02" style="stop-color:#0DCB9E"/>
						<stop  offset="0.2143" style="stop-color:#1EA1BA"/>
						<stop  offset="0.3525" style="stop-color:#2C81D0"/>
						<stop  offset="0.4849" style="stop-color:#356AE0"/>
						<stop  offset="0.6089" style="stop-color:#3B5CEA"/>
						<stop  offset="0.7163" style="stop-color:#3D57ED"/>
						<stop  offset="1" style="stop-color:#3D25ED"/>
					</linearGradient>
					<path class="st11" d="M310.7,319.8h-79.9c-1.5,0-2.7-1.2-2.7-2.7s1.2-2.7,2.7-2.7h79.9c1.5,0,2.7,1.2,2.7,2.7
						S312.2,319.8,310.7,319.8z"/>
				</g>
				<g>
					<linearGradient id="SVGID_11_" gradientUnits="userSpaceOnUse" x1="228.1079" y1="332.0309" x2="313.4778" y2="332.0309">
						<stop  offset="0" style="stop-color:#03E38D"/>
						<stop  offset="7.291698e-02" style="stop-color:#0DCB9E"/>
						<stop  offset="0.2143" style="stop-color:#1EA1BA"/>
						<stop  offset="0.3525" style="stop-color:#2C81D0"/>
						<stop  offset="0.4849" style="stop-color:#356AE0"/>
						<stop  offset="0.6089" style="stop-color:#3B5CEA"/>
						<stop  offset="0.7163" style="stop-color:#3D57ED"/>
						<stop  offset="1" style="stop-color:#3D25ED"/>
					</linearGradient>
					<path class="st12" d="M310.7,334.8h-79.9c-1.5,0-2.7-1.2-2.7-2.7s1.2-2.7,2.7-2.7h79.9c1.5,0,2.7,1.2,2.7,2.7
						S312.2,334.8,310.7,334.8z"/>
				</g>
			</g>
		</g>
	</g>
</g>
</svg>
