<?xml version="1.0" encoding="utf-8"?>
<!-- Generator: Adobe Illustrator 25.2.1, SVG Export Plug-In . SVG Version: 6.00 Build 0)  -->
<svg version="1.1" id="Layer_1" xmlns="http://www.w3.org/2000/svg" xmlns:xlink="http://www.w3.org/1999/xlink" x="0px" y="0px"
	 viewBox="0 0 512 512" style="enable-background:new 0 0 512 512;" xml:space="preserve">
<style type="text/css">
	.st0{fill:#1E1E28;}
	.st1{fill:#FFFFFF;}
	.st2{fill:url(#SVGID_1_);}
	.st3{fill:url(#SVGID_2_);}
	.st4{fill:none;stroke:#363641;stroke-width:2;}
</style>
<g>
	<rect x="216.9" y="82.1" class="st0" width="74.8" height="71.3"/>
	<path class="st0" d="M74.3,129.1h363.4c9.6,0,17.4,7.8,17.4,17.4v278.2c0,9.6-7.8,17.4-17.4,17.4H74.3c-9.6,0-17.4-7.8-17.4-17.4
		V146.5C56.9,136.9,64.7,129.1,74.3,129.1z"/>
	<g>
		<path class="st1" d="M211.3,272h0.2v3.1h4.5v-17.1h-4.7v9.8c0,2.3-1.6,3.5-3.3,3.5c-1.8,0-2.9-1.3-3-3.3v-10h-4.7v10.9
			c0,4,2.3,6.4,5.8,6.4C208.7,275.3,210.5,274,211.3,272z"/>
		<path class="st1" d="M211.1,290.6H203v22.8h8.1c6.9,0,11.1-4.3,11.1-11.4C222.2,294.9,218,290.6,211.1,290.6z M210.9,309.3h-3.1
			v-14.5h3.1c4.3,0,6.5,2.2,6.5,7.2C217.4,307.1,215.1,309.3,210.9,309.3z"/>
		<path class="st1" d="M228.2,261.9c0.7,0,1.6,0.1,2,0.3V258c-0.4-0.1-1-0.2-1.5-0.2c-1.9,0-3.5,1.1-4.1,3.2h-0.2v-3h-4.6v17.1h4.7
			v-9.7C224.6,263.4,226.1,261.9,228.2,261.9z"/>
		<rect x="225.7" y="296.3" class="st1" width="4.7" height="17.1"/>
		<path class="st1" d="M118.1,268.2c0,2.2-1,3.3-2.8,3.3c-1.7,0-2.8-1-2.8-2.9h-4.8c0,4.5,3.2,6.7,7.3,6.7c4.6,0,7.8-2.8,7.8-7.2
			v-15.9h-4.8V268.2z"/>
		<path class="st1" d="M134.4,257.8c-5.2,0-8.4,3.5-8.4,8.8c0,5.3,3.2,8.8,8.4,8.8c5.2,0,8.4-3.5,8.4-8.8
			C142.8,261.4,139.6,257.8,134.4,257.8z M134.5,271.8c-2.4,0-3.6-2.2-3.6-5.2c0-3,1.2-5.2,3.6-5.2c2.3,0,3.6,2.2,3.6,5.2
			C138,269.6,136.8,271.8,134.5,271.8z"/>
		<path class="st1" d="M247.6,275.5c4.5,0,7.4-2.7,7.6-6.6h-4.5c-0.3,1.8-1.5,2.8-3.1,2.8c-2.2,0-3.6-1.9-3.6-5.1
			c0-3.2,1.4-5.1,3.6-5.1c1.7,0,2.8,1.1,3.1,2.8h4.5c-0.2-3.9-3.2-6.5-7.6-6.5c-5.2,0-8.4,3.6-8.4,8.8
			C239.2,271.8,242.3,275.5,247.6,275.5z"/>
		<rect x="145.9" y="258.1" class="st1" width="4.7" height="17.1"/>
		<path class="st1" d="M148.3,251.1c-1.4,0-2.6,1.1-2.6,2.4c0,1.3,1.2,2.4,2.6,2.4c1.4,0,2.6-1.1,2.6-2.4
			C150.9,252.1,149.7,251.1,148.3,251.1z"/>
		<path class="st1" d="M188.9,257.8c-5.2,0-8.4,3.5-8.4,8.8c0,5.3,3.2,8.8,8.4,8.8c5.2,0,8.4-3.5,8.4-8.8
			C197.3,261.4,194.1,257.8,188.9,257.8z M188.9,271.8c-2.4,0-3.6-2.2-3.6-5.2c0-3,1.2-5.2,3.6-5.2c2.3,0,3.6,2.2,3.6,5.2
			C192.5,269.6,191.2,271.8,188.9,271.8z"/>
		<path class="st1" d="M164.3,257.8c-2.5,0-4.4,1.2-5.1,3.2H159v-3h-4.5v17.1h4.7v-9.9c0-2.2,1.3-3.5,3.2-3.5c1.9,0,3,1.2,3,3.3v10
			h4.7v-10.9C170.2,260.3,167.9,257.8,164.3,257.8z"/>
		<path class="st1" d="M228,289.3c-1.4,0-2.6,1.1-2.6,2.4c0,1.3,1.2,2.4,2.6,2.4c1.4,0,2.6-1.1,2.6-2.4
			C230.6,290.4,229.5,289.3,228,289.3z"/>
		<path class="st1" d="M325.2,257.8c-2.5,0-4.4,1.2-5.1,3.2h-0.2v-3h-4.5v17.1h4.7v-9.9c0-2.2,1.3-3.5,3.2-3.5c1.9,0,3,1.2,3,3.3v10
			h4.7v-10.9C331.1,260.3,328.8,257.8,325.2,257.8z"/>
		<path class="st1" d="M312.6,299.2h-0.1c-0.6-1.4-2-3.1-4.9-3.1c-3.7,0-6.9,2.9-6.9,8.8c0,5.7,3,8.8,6.9,8.8c2.8,0,4.2-1.6,4.8-3
			h0.2v2.7h4.7v-22.8h-4.7V299.2z M309.1,309.9c-2.3,0-3.6-2.1-3.6-5c0-3,1.2-5,3.6-5c2.3,0,3.6,1.9,3.6,5
			C312.7,307.9,311.4,309.9,309.1,309.9z"/>
		<path class="st1" d="M398.4,257.8c-2.5,0-4.4,1.2-5.1,3.2h-0.2v-3h-4.5v17.1h4.7v-9.9c0-2.2,1.3-3.5,3.2-3.5c1.9,0,3,1.2,3,3.3v10
			h4.7v-10.9C404.3,260.3,401.9,257.8,398.4,257.8z"/>
		<path class="st1" d="M303.9,261.8c1.9,0,3,1.2,3,3.3v10h4.7v-10.9c0-4-2.3-6.4-5.9-6.4c-2.5,0-4.4,1.2-5.1,3.2h-0.2v-3h-4.5v17.1
			h4.7v-9.9C300.7,263.1,302,261.8,303.9,261.8z"/>
		<path class="st1" d="M377.1,257.8c-5.2,0-8.4,3.5-8.4,8.8c0,5.3,3.2,8.8,8.4,8.8c5.2,0,8.4-3.5,8.4-8.8
			C385.5,261.4,382.2,257.8,377.1,257.8z M377.1,271.8c-2.4,0-3.6-2.2-3.6-5.2c0-3,1.2-5.2,3.6-5.2c2.3,0,3.6,2.2,3.6,5.2
			C380.7,269.6,379.4,271.8,377.1,271.8z"/>
		<rect x="353.6" y="252.4" class="st1" width="4.7" height="22.8"/>
		<path class="st1" d="M342.5,257.8c-5,0-8.3,3.6-8.3,8.8c0,5.4,3.2,8.8,8.5,8.8c4.2,0,7.1-2.1,7.7-5.2l-4.4-0.3
			c-0.5,1.3-1.7,2-3.3,2c-2.4,0-3.9-1.6-3.9-4.1v0h11.6v-1.3C350.5,260.7,347,257.8,342.5,257.8z M338.9,264.9
			c0.1-1.9,1.6-3.5,3.7-3.5c2.1,0,3.5,1.5,3.5,3.5H338.9z"/>
		<path class="st1" d="M259.5,299.8c1.7,0,2.8,1.1,3.1,2.8h4.5c-0.2-3.9-3.2-6.5-7.6-6.5c-5.2,0-8.4,3.6-8.4,8.8
			c0,5.2,3.1,8.8,8.4,8.8c4.5,0,7.4-2.7,7.6-6.6h-4.5c-0.3,1.8-1.5,2.8-3.1,2.8c-2.2,0-3.6-1.9-3.6-5.1
			C255.9,301.6,257.3,299.8,259.5,299.8z"/>
		<path class="st1" d="M243.8,303.5l-3.1-0.6c-1.6-0.3-2.2-0.9-2.2-1.7c0-1,1.1-1.7,2.6-1.7c1.6,0,2.6,0.9,2.9,2l4.3-0.3
			c-0.4-3.1-3-5.1-7.3-5.1c-4.4,0-7.2,2-7.2,5.3c0,2.6,1.6,4.2,4.9,4.9l3,0.6c1.5,0.3,2.2,0.8,2.2,1.7c0,1-1.1,1.7-2.8,1.7
			c-1.7,0-2.8-0.7-3.1-2.1l-4.7,0.2c0.4,3.3,3.2,5.3,7.7,5.3c4.4,0,7.6-2.3,7.6-5.6C248.8,305.6,247.2,304.1,243.8,303.5z"/>
		<path class="st1" d="M274.1,275.1v-10.9c0-4-2.3-6.4-5.9-6.4c-2.6,0-4.3,1.2-5.1,3.2h-0.2v-8.7h-4.6v22.8h4.7v-9.9
			c0-2.2,1.4-3.5,3.3-3.5c1.9,0,3.1,1.2,3,3.3v10H274.1z"/>
		<path class="st1" d="M294.1,299.3h-0.2v-3h-4.6v17.1h4.7v-9.7c0-2.1,1.5-3.5,3.6-3.5c0.7,0,1.6,0.1,2,0.3v-4.2
			c-0.4-0.1-1-0.2-1.5-0.2C296.3,296.1,294.7,297.2,294.1,299.3z"/>
		<path class="st1" d="M292.3,275.1v-11.5c0-4.1-3.4-5.8-7.2-5.8c-4.1,0-6.8,2-7.4,5.1l4.4,0.4c0.3-1.1,1.3-2,3-2
			c1.6,0,2.5,0.8,2.5,2.2v0.1c0,1.1-1.2,1.2-4.1,1.5c-3.4,0.3-6.4,1.4-6.4,5.3c0,3.4,2.4,5.1,5.7,5.1c2.5,0,4.2-1.1,5-2.7h0.1v2.4
			H292.3z M287.6,269c0,1.8-1.5,3.2-3.6,3.2c-1.5,0-2.5-0.7-2.5-2c0-1.3,1.1-2,2.8-2.2c1-0.1,2.7-0.4,3.3-0.8V269z"/>
		<path class="st1" d="M277.8,296.1c-5.2,0-8.4,3.5-8.4,8.8c0,5.3,3.2,8.8,8.4,8.8c5.2,0,8.4-3.5,8.4-8.8
			C286.3,299.6,283,296.1,277.8,296.1z M277.9,310c-2.4,0-3.6-2.2-3.6-5.2c0-3,1.2-5.2,3.6-5.2c2.3,0,3.6,2.2,3.6,5.2
			C281.4,307.9,280.2,310,277.9,310z"/>
	</g>
	
		<linearGradient id="SVGID_1_" gradientUnits="userSpaceOnUse" x1="254.6003" y1="397.8936" x2="254.6003" y2="385.6698" gradientTransform="matrix(1 0 0 -1 0 514)">
		<stop  offset="0" style="stop-color:#3D57ED"/>
		<stop  offset="1" style="stop-color:#08D795"/>
	</linearGradient>
	<path class="st2" d="M244.9,116.1c-3,0-5.4,2.8-5.4,6.1s2.4,6.1,5.4,6.1c3,0,5.4-2.8,5.4-6.1C250.4,118.9,247.9,116.1,244.9,116.1z
		 M264.3,116.1c-3,0-5.4,2.8-5.4,6.1s2.4,6.1,5.4,6.1c3,0,5.4-2.8,5.4-6.1S267.3,116.1,264.3,116.1z"/>
	
		<linearGradient id="SVGID_2_" gradientUnits="userSpaceOnUse" x1="254.5246" y1="444.0518" x2="254.5246" y2="334.0204" gradientTransform="matrix(1 0 0 -1 0 514)">
		<stop  offset="0" style="stop-color:#3D57ED"/>
		<stop  offset="1" style="stop-color:#08D795"/>
	</linearGradient>
	<path class="st3" d="M290.2,69.9h-71.3c-6,0-10.9,5.1-10.9,11.3v74.4c0,6.3,4.9,11.3,10.9,11.3h60.3l-2.8-10.2l6.8,6.5l6.4,6.2
		l11.4,10.5V81.3C301.1,75,296.2,69.9,290.2,69.9z M269.6,141.8c0,0-1.9-2.4-3.5-4.5c7-2,9.6-6.5,9.6-6.5c-2.2,1.5-4.3,2.5-6.1,3.2
		c-2.7,1.2-5.2,1.9-7.7,2.4c-4.6,0.9-9.2,0.8-13.8-0.1c-2.7-0.5-5.3-1.3-7.8-2.4c-1.3-0.5-2.6-1.2-3.9-1.9c-0.2-0.1-0.3-0.2-0.5-0.3
		c-0.1-0.1-0.2-0.1-0.2-0.2c-1-0.5-1.5-0.9-1.5-0.9s2.6,4.4,9.3,6.5c-1.6,2.1-3.6,4.6-3.6,4.6c-11.8-0.4-16.2-8.4-16.2-8.4
		c0-17.7,7.7-32.1,7.7-32.1c7.7-5.9,14.9-5.8,14.9-5.8l0.5,0.7c-9.6,2.9-14,7.2-14,7.2s1.2-0.7,3.1-1.6c5.7-2.6,10.2-3.3,12.1-3.5
		c0.3-0.1,0.6-0.1,0.9-0.1c9.2-1.3,18.6,0.5,26.8,5.2c0,0-4.2-4.1-13.2-7l0.7-0.9c0,0,7.3-0.2,14.9,5.8c0,0,7.7,14.4,7.7,32.1
		C285.9,133.4,281.4,141.4,269.6,141.8L269.6,141.8z"/>
	<path class="st4" d="M256,412.6c-13.9,0-25.2-11.3-25.2-25.3c0-14,11.3-25.3,25.2-25.3s25.2,11.3,25.2,25.3
		C281.2,401.3,269.9,412.6,256,412.6z"/>
	<path class="st1" d="M249,380.3c0-1.6,1.9-2.5,3.2-1.6l12.2,8.4c0.3,0.2,0.5,0.4,0.6,0.7c0.1,0.3,0.2,0.6,0.2,0.9
		c0,0.3-0.1,0.6-0.3,0.9c-0.2,0.3-0.4,0.5-0.7,0.7l-12.2,7.5c-1.4,0.8-3.2-0.1-3.2-1.6V380.3z"/>
</g>
</svg>
