<svg width="34" height="40" viewBox="0 0 34 40" fill="none" xmlns="http://www.w3.org/2000/svg">
<path d="M13.7422 16.4043C12.6647 16.4043 11.814 17.3828 11.814 18.5767C11.814 19.7705 12.6836 20.749 13.7422 20.749C14.8197 20.749 15.6704 19.7705 15.6704 18.5767C15.6893 17.3828 14.8197 16.4043 13.7422 16.4043ZM20.6422 16.4043C19.5647 16.4043 18.714 17.3828 18.714 18.5767C18.714 19.7705 19.5836 20.749 20.6422 20.749C21.7197 20.749 22.5704 19.7705 22.5704 18.5767C22.5704 17.3828 21.7197 16.4043 20.6422 16.4043Z" fill="white"/>
<path d="M29.83 0H4.49841C2.36223 0 0.623047 1.79885 0.623047 4.02786V30.4632C0.623047 32.6922 2.36223 34.491 4.49841 34.491H25.9358L24.9338 30.8738L27.3536 33.2005L29.641 35.3904L33.7054 39.1055V4.02786C33.7054 1.79885 31.9662 0 29.83 0ZM22.533 25.5359C22.533 25.5359 21.8525 24.6951 21.2853 23.9521C23.7618 23.2286 24.707 21.6253 24.707 21.6253C23.9319 22.1532 23.1947 22.5247 22.533 22.7789C21.5878 23.1895 20.6804 23.4633 19.7919 23.6197C18.1728 23.928 16.5124 23.9214 14.8957 23.6002C13.9466 23.4081 13.0164 23.1266 12.1168 22.7594C11.6426 22.5708 11.1815 22.3487 10.7368 22.0946C10.6801 22.0555 10.6234 22.0359 10.5667 21.9968C10.5288 21.9773 10.5099 21.9577 10.491 21.9382C10.1508 21.7426 9.96172 21.6058 9.96172 21.6058C9.96172 21.6058 10.8691 23.17 13.27 23.913C12.7028 24.656 12.0034 25.5359 12.0034 25.5359C7.82554 25.399 6.23759 22.5639 6.23759 22.5639C6.23759 16.2679 8.95979 11.1646 8.95979 11.1646C11.682 9.05292 14.2719 9.11157 14.2719 9.11157L14.4609 9.34621C11.0582 10.3629 9.48911 11.9076 9.48911 11.9076C9.48911 11.9076 9.905 11.673 10.6045 11.3406C12.6272 10.4216 14.2341 10.1674 14.8957 10.1088C15.0091 10.0892 15.1037 10.0697 15.2171 10.0697C18.4953 9.61074 21.8292 10.2552 24.7259 11.9076C24.7259 11.9076 23.2325 10.4412 20.0187 9.42442L20.2834 9.11157C20.2834 9.11157 22.8733 9.05292 25.5955 11.1646C25.5955 11.1646 28.3177 16.2679 28.3177 22.5639C28.3177 22.5639 26.7108 25.399 22.533 25.5359Z" fill="white"/>
</svg>
