<svg width="47" height="43" viewBox="0 0 47 43" fill="none" xmlns="http://www.w3.org/2000/svg">
<path d="M23.2913 38.3383H3.49463L13.3937 21.3861L23.2913 4.43555L33.1903 21.3861L43.0879 38.3383H23.2913Z" fill="#0E0E12" stroke="white" stroke-width="3" stroke-miterlimit="10"/>
<path d="M9.34106 34.4888L19.0796 28.9248" stroke="white" stroke-width="3" stroke-miterlimit="10"/>
<path d="M37.0851 34.4894L27.6584 29.1035" stroke="white" stroke-width="3" stroke-miterlimit="10"/>
<path d="M23.291 10.5566V22.2202" stroke="white" stroke-width="3" stroke-miterlimit="10"/>
<path d="M23.2913 10.5577C25.4842 10.5577 27.2619 8.71892 27.2619 6.45071C27.2619 4.18249 25.4842 2.34375 23.2913 2.34375C21.0985 2.34375 19.3208 4.18249 19.3208 6.45071C19.3208 8.71892 21.0985 10.5577 23.2913 10.5577Z" fill="#0E0E12" stroke="white" stroke-width="3" stroke-miterlimit="10"/>
<path d="M5.65242 40.9108C7.84528 40.9108 9.62295 39.0726 9.62295 36.805C9.62295 34.5374 7.84528 32.6992 5.65242 32.6992C3.45955 32.6992 1.68188 34.5374 1.68188 36.805C1.68188 39.0726 3.45955 40.9108 5.65242 40.9108Z" fill="#0E0E12" stroke="white" stroke-width="3" stroke-miterlimit="10"/>
<path d="M40.9298 40.9098C43.1226 40.9098 44.9003 39.0716 44.9003 36.804C44.9003 34.5365 43.1226 32.6982 40.9298 32.6982C38.7369 32.6982 36.9592 34.5365 36.9592 36.804C36.9592 39.0716 38.7369 40.9098 40.9298 40.9098Z" fill="#0E0E12" stroke="white" stroke-width="3" stroke-miterlimit="10"/>
<path d="M23.291 20.5693C19.8854 20.5693 17.1248 23.4245 17.1248 26.9469C17.1248 30.4693 19.8854 33.3245 23.291 33.3245C26.6967 33.3245 29.4573 30.4693 29.4573 26.9469C29.4573 23.4245 26.6967 20.5693 23.291 20.5693ZM23.291 31.4639C20.8787 31.4639 18.9238 29.4419 18.9238 26.9469C18.9238 24.452 20.8787 22.43 23.291 22.43C25.7034 22.43 27.6583 24.452 27.6583 26.9469C27.6583 29.4419 25.7034 31.4639 23.291 31.4639Z" fill="#BEBECE"/>
<path d="M23.2914 28.3654C24.0491 28.3654 24.6634 27.7299 24.6634 26.9459C24.6634 26.1619 24.0491 25.5264 23.2914 25.5264C22.5337 25.5264 21.9194 26.1619 21.9194 26.9459C21.9194 27.7299 22.5337 28.3654 23.2914 28.3654Z" fill="url(#paint0_linear)"/>
<defs>
<linearGradient id="paint0_linear" x1="21.9202" y1="26.9457" x2="24.6633" y2="26.9457" gradientUnits="userSpaceOnUse">
<stop stop-color="#03E38D"/>
<stop offset="0.1413" stop-color="#08D795"/>
<stop offset="0.3965" stop-color="#15B7AB"/>
<stop offset="0.7341" stop-color="#2A84CE"/>
<stop offset="1" stop-color="#3D57ED"/>
</linearGradient>
</defs>
</svg>
