<?xml version="1.0" encoding="utf-8"?>
<!-- Generator: Adobe Illustrator 25.2.1, SVG Export Plug-In . SVG Version: 6.00 Build 0)  -->
<svg version="1.1" id="Layer_1" xmlns="http://www.w3.org/2000/svg" xmlns:xlink="http://www.w3.org/1999/xlink" x="0px" y="0px"
	 viewBox="0 0 512 512" style="enable-background:new 0 0 512 512;" xml:space="preserve">
<style type="text/css">
	.st0{fill:#FFFFFF;}
	.st1{fill:url(#SVGID_1_);}
	.st2{fill:url(#SVGID_2_);}
</style>
<g>
	<g>
		<path class="st0" d="M222.7,468.1c-2.1,0-4.2-0.6-6-1.8l-108.7-70.7V195.7c0-77.1,66.4-139.8,148.1-139.8s148.1,62.7,148.1,139.8
			v199.8l-108.7,70.7c-5.1,3.3-12,1.9-15.3-3.2c-3.3-5.1-1.9-12,3.2-15.3l98.7-64.2V195.7C381.9,130.8,325.4,78,256,78
			c-69.4,0-125.9,52.8-125.9,117.7v187.8l98.7,64.2c5.1,3.3,6.6,10.2,3.2,15.3C229.8,466.3,226.3,468.1,222.7,468.1z"/>
	</g>
	<g>
		<linearGradient id="SVGID_1_" gradientUnits="userSpaceOnUse" x1="200.7623" y1="468.0633" x2="200.7623" y2="264.4632">
			<stop  offset="6.764980e-07" style="stop-color:#3D25ED"/>
			<stop  offset="0.2837" style="stop-color:#3D57ED"/>
			<stop  offset="0.574" style="stop-color:#3C59EC"/>
			<stop  offset="0.6839" style="stop-color:#3960E7"/>
			<stop  offset="0.7632" style="stop-color:#346CDF"/>
			<stop  offset="0.8278" style="stop-color:#2D7DD3"/>
			<stop  offset="0.8835" style="stop-color:#2493C4"/>
			<stop  offset="0.9329" style="stop-color:#19AFB1"/>
			<stop  offset="0.9768" style="stop-color:#0BCF9B"/>
			<stop  offset="1" style="stop-color:#03E38D"/>
		</linearGradient>
		<path class="st1" d="M222.7,468.1c-6.1,0-11.1-5-11.1-11.1V314.6l-39.5-30.2c-4.9-3.7-5.8-10.7-2.1-15.5
			c3.7-4.9,10.7-5.8,15.5-2.1l48.2,36.9V457C233.7,463.1,228.8,468.1,222.7,468.1z"/>
	</g>
	<g>
		<linearGradient id="SVGID_2_" gradientUnits="userSpaceOnUse" x1="310.1326" y1="468.0633" x2="310.1326" y2="264.4616">
			<stop  offset="6.764980e-07" style="stop-color:#3D25ED"/>
			<stop  offset="0.2837" style="stop-color:#3D57ED"/>
			<stop  offset="0.574" style="stop-color:#3C59EC"/>
			<stop  offset="0.6839" style="stop-color:#3960E7"/>
			<stop  offset="0.7632" style="stop-color:#346CDF"/>
			<stop  offset="0.8278" style="stop-color:#2D7DD3"/>
			<stop  offset="0.8835" style="stop-color:#2493C4"/>
			<stop  offset="0.9329" style="stop-color:#19AFB1"/>
			<stop  offset="0.9768" style="stop-color:#0BCF9B"/>
			<stop  offset="1" style="stop-color:#03E38D"/>
		</linearGradient>
		<path class="st2" d="M288.2,468.1c-6.1,0-11.1-5-11.1-11.1V303.6l48.2-36.9c4.8-3.7,11.8-2.8,15.5,2.1c3.7,4.9,2.8,11.8-2.1,15.5
			l-39.5,30.2V457C299.3,463.1,294.3,468.1,288.2,468.1z"/>
	</g>
</g>
</svg>
