<svg width="39" height="40" viewBox="0 0 39 40" fill="none" xmlns="http://www.w3.org/2000/svg">
<path d="M19.7709 0C14.7572 0 9.94882 2.05991 6.4036 5.72658C2.85838 9.39324 0.866699 14.3663 0.866699 19.5518C0.866699 24.7372 2.85838 29.7103 6.4036 33.3769C9.94882 37.0436 14.7572 39.1035 19.7709 39.1035C24.7846 39.1035 29.5929 37.0436 33.1381 33.3769C36.6834 29.7103 38.675 24.7372 38.675 19.5518C38.675 14.3663 36.6834 9.39324 33.1381 5.72658C29.5929 2.05991 24.7846 0 19.7709 0V0ZM24.7537 35.4913H24.6072C24.4971 35.4978 24.387 35.4808 24.2835 35.4416C24.18 35.4024 24.0854 35.3417 24.0054 35.2632C23.9315 35.1824 23.8739 35.0872 23.8361 34.9832C23.7982 34.8791 23.7808 34.7682 23.7849 34.6571V32.3663C23.7943 31.6054 23.8006 30.8347 23.8006 30.0592C23.798 29.4921 23.718 28.9282 23.5627 28.3843C23.4157 27.8344 23.1194 27.3397 22.7089 26.9586C23.8069 26.849 24.8863 26.591 25.9195 26.1912C26.791 25.8484 27.5793 25.3123 28.2289 24.6206C28.8701 23.9248 29.3474 23.0841 29.6231 22.1668C29.9585 21.0434 30.118 19.8718 30.0957 18.6964C30.1018 17.8756 29.963 17.0607 29.6861 16.2915C29.4047 15.5163 28.9792 14.8055 28.4337 14.1995C28.5515 13.8938 28.637 13.5759 28.6889 13.2512C28.7409 12.9253 28.7677 12.5962 28.7677 12.2671C28.7677 11.8435 28.7204 11.4199 28.6259 11.0076C28.54 10.5848 28.4237 10.1693 28.2778 9.76447C28.2221 9.742 28.1627 9.73093 28.1029 9.73189H27.9296C27.5673 9.73515 27.2112 9.79706 26.8678 9.91274C26.4895 10.0269 26.1195 10.1685 25.7603 10.3364C25.4032 10.5019 25.0555 10.6885 24.719 10.8952C24.3803 11.1021 24.081 11.3009 23.8164 11.485C21.1662 10.7211 18.3645 10.7211 15.7144 11.485C15.4188 11.2807 15.1183 11.084 14.8133 10.8952C14.472 10.6868 14.1184 10.5007 13.7546 10.338C13.3965 10.1646 13.025 10.0223 12.644 9.91274C12.3073 9.79772 11.9556 9.73672 11.6011 9.73189H11.4278C11.3686 9.73102 11.3097 9.74209 11.2545 9.76447C11.1066 10.1699 10.9855 10.5852 10.8922 11.0076C10.8071 11.4215 10.7662 11.8435 10.7646 12.2671C10.7646 12.5962 10.7914 12.9253 10.845 13.2512C10.8969 13.5754 10.9804 13.8932 11.097 14.1995C10.5529 14.8064 10.129 15.5176 9.84933 16.2931C9.57094 17.062 9.43053 17.877 9.43502 18.698C9.41298 19.8672 9.5682 21.0327 9.89502 22.1521C10.1802 23.0694 10.6559 23.9118 11.2876 24.6222C11.9414 25.3098 12.7291 25.8442 13.5971 26.1928C14.6258 26.6002 15.7033 26.8609 16.7998 26.9684C16.4936 27.2554 16.2508 27.6071 16.0877 27.9997C15.9326 28.3881 15.8267 28.7955 15.7726 29.212C15.1946 29.4982 14.5625 29.6484 13.9216 29.6519C13.3265 29.6765 12.7391 29.5054 12.2439 29.1631C11.7688 28.7989 11.3665 28.343 11.0592 27.8205C10.9217 27.6011 10.7679 27.393 10.5992 27.1981C10.4212 26.9932 10.225 26.8061 10.0132 26.6393C9.80434 26.4779 9.57543 26.3464 9.33262 26.2482C9.09372 26.1399 8.83573 26.0839 8.57488 26.0837C8.51186 26.0853 8.44885 26.0918 8.38583 26.1C8.29978 26.0997 8.21403 26.1106 8.13063 26.1326C8.05733 26.1524 7.98799 26.1855 7.92583 26.2303C7.89757 26.2464 7.87394 26.27 7.85734 26.2986C7.84073 26.3272 7.83176 26.3599 7.83131 26.3932C7.83793 26.4717 7.86111 26.5476 7.89922 26.6157C7.93733 26.6839 7.98944 26.7425 8.05186 26.7875C8.19837 26.9081 8.31967 27.001 8.41734 27.0661L8.4646 27.1004C8.67412 27.2682 8.87577 27.449 9.06639 27.6429C9.24282 27.8026 9.40193 27.9835 9.53899 28.1806C9.68077 28.3745 9.80365 28.5814 9.90289 28.8014C10.0179 29.0197 10.1392 29.2706 10.2668 29.5557C10.563 30.328 11.0891 30.9814 11.7697 31.4213C12.4833 31.8172 13.2836 32.0144 14.0949 31.9932C14.369 31.9932 14.6447 31.9769 14.9172 31.9443C15.1882 31.8987 15.4576 31.8514 15.7285 31.796V34.6359C15.7334 34.7504 15.7149 34.8647 15.6742 34.9713C15.6335 35.0779 15.5715 35.1744 15.4922 35.2546C15.413 35.3347 15.3183 35.3966 15.2143 35.4363C15.1103 35.4759 14.9994 35.4925 14.8889 35.4848H14.7912C11.1176 34.2574 7.98832 31.7137 5.96699 28.3119C3.94567 24.9101 3.16508 20.8737 3.76578 16.9295C4.36649 12.9853 6.30901 9.3925 9.24357 6.79808C12.1781 4.20366 15.9119 2.77809 19.7724 2.77809C23.633 2.77809 27.3668 4.20366 30.3013 6.79808C33.2359 9.3925 35.1784 12.9853 35.7791 16.9295C36.3798 20.8737 35.5992 24.9101 33.5779 28.3119C31.5566 31.7137 28.4273 34.2574 24.7537 35.4848V35.493V35.4913Z" fill="white"/>
</svg>
