<?xml version="1.0" encoding="utf-8"?>
<!-- Generator: Adobe Illustrator 25.2.1, SVG Export Plug-In . SVG Version: 6.00 Build 0)  -->
<svg version="1.1" id="Layer_1" xmlns="http://www.w3.org/2000/svg" xmlns:xlink="http://www.w3.org/1999/xlink" x="0px" y="0px"
	 viewBox="0 0 512 512" style="enable-background:new 0 0 512 512;" xml:space="preserve">
<style type="text/css">
	.st0{fill:#1E1E28;}
	.st1{fill:url(#SVGID_1_);}
	.st2{fill:#FFFFFF;}
	.st3{fill:none;stroke:#363641;stroke-width:2;}
</style>
<circle class="st0" cx="255.1" cy="126.5" r="55.6"/>
<path class="st0" d="M74.3,136.9h363.4c9.6,0,17.4,7.8,17.4,17.4v278.2c0,9.6-7.8,17.4-17.4,17.4H74.3c-9.6,0-17.4-7.8-17.4-17.4
	V154.3C56.9,144.7,64.7,136.9,74.3,136.9z"/>
<linearGradient id="SVGID_1_" gradientUnits="userSpaceOnUse" x1="254.4611" y1="451.8764" x2="254.4611" y2="327.3747" gradientTransform="matrix(1 0 0 -1 0 514)">
	<stop  offset="0" style="stop-color:#3D57ED"/>
	<stop  offset="1" style="stop-color:#08D795"/>
</linearGradient>
<path class="st1" d="M254.5,62.1c-16,0-31.3,6.6-42.6,18.2c-11.3,11.7-17.6,27.5-17.6,44s6.3,32.3,17.6,44
	c11.3,11.7,26.6,18.2,42.6,18.2c16,0,31.3-6.6,42.5-18.2c11.3-11.7,17.6-27.5,17.6-44s-6.3-32.3-17.6-44
	C285.7,68.7,270.4,62.1,254.5,62.1L254.5,62.1z M270.3,175.1h-0.5c-0.3,0-0.7,0-1-0.2c-0.3-0.1-0.6-0.3-0.9-0.6
	c-0.2-0.3-0.4-0.6-0.5-0.9c-0.1-0.3-0.2-0.7-0.2-1v-7.3c0-2.4,0-4.9,0-7.3c0-1.8-0.3-3.6-0.7-5.3c-0.5-1.8-1.4-3.3-2.7-4.5
	c3.5-0.3,6.9-1.2,10.2-2.4c2.8-1.1,5.3-2.8,7.4-5c2.1-2.2,3.6-4.9,4.5-7.8c1.1-3.6,1.6-7.3,1.5-11c0-2.6-0.4-5.2-1.3-7.7
	c-0.9-2.5-2.2-4.7-4-6.7c0.4-1,0.6-2,0.8-3c0.2-1,0.3-2.1,0.3-3.1c0-1.3-0.2-2.7-0.5-4c-0.3-1.3-0.6-2.7-1.1-4
	c-0.2-0.1-0.4-0.1-0.6-0.1h-0.6c-1.1,0-2.3,0.2-3.4,0.6c-1.2,0.4-2.4,0.8-3.5,1.3c-1.1,0.5-2.2,1.1-3.3,1.8c-1.1,0.7-2,1.3-2.9,1.9
	c-8.4-2.4-17.4-2.4-25.8,0c-0.9-0.7-1.9-1.3-2.9-1.9c-1.1-0.7-2.2-1.3-3.4-1.8c-1.1-0.6-2.3-1-3.5-1.4c-1.1-0.4-2.2-0.6-3.3-0.6
	h-0.6c-0.2,0-0.4,0-0.6,0.1c-0.5,1.3-0.9,2.6-1.1,4c-0.3,1.3-0.4,2.7-0.4,4c0,1,0.1,2.1,0.3,3.1c0.2,1,0.4,2,0.8,3
	c-1.7,1.9-3.1,4.2-4,6.7c-0.9,2.4-1.3,5-1.3,7.7c-0.1,3.7,0.4,7.4,1.5,11c0.9,2.9,2.4,5.6,4.4,7.9c2.1,2.2,4.6,3.9,7.4,5
	c3.3,1.3,6.7,2.1,10.2,2.5c-1,0.9-1.7,2-2.3,3.3c-0.5,1.2-0.8,2.5-1,3.9c-1.8,0.9-3.8,1.4-5.9,1.4c-1.9,0.1-3.8-0.5-5.3-1.6
	c-1.5-1.2-2.8-2.6-3.8-4.3c-0.4-0.7-0.9-1.4-1.5-2c-0.6-0.7-1.2-1.2-1.9-1.8c-0.7-0.5-1.4-0.9-2.2-1.2c-0.8-0.3-1.6-0.5-2.4-0.5
	c-0.2,0-0.4,0-0.6,0.1c-0.3,0-0.6,0-0.8,0.1c-0.2,0.1-0.5,0.2-0.6,0.3c-0.1,0.1-0.2,0.1-0.2,0.2c-0.1,0.1-0.1,0.2-0.1,0.3
	c0,0.3,0.1,0.5,0.2,0.7c0.1,0.2,0.3,0.4,0.5,0.5c0.5,0.4,0.9,0.7,1.2,0.9l0.1,0.1c0.7,0.5,1.3,1.1,1.9,1.7c0.6,0.5,1.1,1.1,1.5,1.7
	c0.5,0.6,0.8,1.3,1.2,2c0.4,0.7,0.7,1.5,1.1,2.4c0.9,2.5,2.6,4.5,4.8,5.9c2.3,1.3,4.8,1.9,7.4,1.8c0.9,0,1.8-0.1,2.6-0.2
	c0.9-0.1,1.7-0.3,2.6-0.5v9c0,0.4,0,0.7-0.2,1.1c-0.1,0.3-0.3,0.6-0.6,0.9c-0.2,0.3-0.6,0.5-0.9,0.6c-0.3,0.1-0.7,0.2-1,0.2h-0.3
	c-11.7-3.9-21.7-12-28.1-22.8c-6.4-10.8-8.9-23.7-7-36.2c1.9-12.6,8.1-24,17.4-32.3S242.2,71,254.5,71s24.2,4.5,33.5,12.8
	c9.3,8.3,15.5,19.7,17.4,32.3c1.9,12.6-0.6,25.4-7,36.2C292,163.1,282,171.2,270.3,175.1L270.3,175.1L270.3,175.1z"/>
<g>
	<path class="st2" d="M162.6,257.2c2.6,0,4.5,1.5,4.9,4h4.9c-0.6-5.3-4.6-8.3-9.9-8.3c-6,0-10.6,4.2-10.6,11.7
		c0,7.4,4.5,11.7,10.6,11.7c5.8,0,9.4-3.9,9.9-8.1l-4.9,0c-0.5,2.4-2.4,3.8-4.9,3.8c-3.5,0-5.8-2.6-5.8-7.4
		C156.8,259.9,159.1,257.2,162.6,257.2z"/>
	<path class="st2" d="M205.9,276h4.7v-10.9c0-4-2.3-6.4-5.9-6.4c-2.5,0-4.4,1.2-5.1,3.2h-0.2v-3h-4.5V276h4.7v-9.9
		c0-2.2,1.3-3.5,3.2-3.5c1.9,0,3,1.2,3,3.3V276z"/>
	<rect x="230.5" y="297.2" class="st2" width="4.7" height="17.1"/>
	<path class="st2" d="M183.4,258.7c-5.2,0-8.4,3.5-8.4,8.8c0,5.3,3.2,8.8,8.4,8.8c5.2,0,8.4-3.5,8.4-8.8
		C191.9,262.2,188.6,258.7,183.4,258.7z M183.5,272.7c-2.4,0-3.6-2.2-3.6-5.2s1.2-5.2,3.6-5.2c2.3,0,3.6,2.2,3.6,5.2
		S185.8,272.7,183.5,272.7z"/>
	<path class="st2" d="M216.4,305.7h4.9c-0.1,2.8-2,4.6-5.2,4.6c-3.6,0-5.9-2.7-5.9-7.5c0-4.7,2.4-7.4,5.8-7.4c2.5,0,4.2,1.3,4.8,3.4
		h4.9c-0.6-4.5-4.6-7.7-9.7-7.7c-6,0-10.6,4.3-10.6,11.7c0,7.2,4.3,11.7,10.7,11.7c5.8,0,9.9-3.6,9.9-9.6v-2.9h-9.5V305.7z"/>
	<path class="st2" d="M241.7,256.7c1.4,0,2.6-1.1,2.6-2.4c0-1.3-1.2-2.4-2.6-2.4c-1.4,0-2.6,1.1-2.6,2.4
		C239.2,255.6,240.4,256.7,241.7,256.7z"/>
	<path class="st2" d="M215.5,271.4c0,3.3,2.2,5,5.7,4.9c1.2,0,2.1-0.3,2.6-0.4l-0.7-3.5c-0.2,0-0.7,0.2-1.2,0.2
		c-0.9,0-1.6-0.4-1.6-1.7v-8.3h3.2v-3.6h-3.2v-4.1h-4.7v4.1h-2.3v3.6h2.3V271.4z"/>
	<path class="st2" d="M252.7,273.3h0.2c0.6,1.4,2.1,3,4.8,3c3.9,0,6.9-3.1,6.9-8.8c0-5.9-3.2-8.8-6.9-8.8c-2.9,0-4.2,1.7-4.9,3.1
		h-0.2v-8.6H248V276h4.7V273.3z M256.2,262.5c2.3,0,3.6,2,3.6,5c0,3-1.3,5-3.6,5c-2.3,0-3.6-2-3.6-5
		C252.6,264.4,253.9,262.5,256.2,262.5z"/>
	<rect x="239.4" y="258.9" class="st2" width="4.7" height="17.1"/>
	<path class="st2" d="M296.7,275.8l-0.7-3.5c-0.2,0-0.7,0.2-1.2,0.2c-1,0-1.6-0.4-1.6-1.7v-8.3h3.2v-3.6h-3.2v-4.1h-4.7v4.1h-2.3
		v3.6h2.3v8.9c0,3.3,2.3,5,5.7,4.9C295.3,276.2,296.2,275.9,296.7,275.8z"/>
	<path class="st2" d="M306.8,258.7c-5,0-8.3,3.6-8.3,8.8c0,5.4,3.2,8.8,8.5,8.8c4.2,0,7.1-2.1,7.7-5.2l-4.4-0.3
		c-0.5,1.3-1.7,2-3.3,2c-2.4,0-3.9-1.6-3.9-4.1v0h11.6v-1.3C314.9,261.6,311.3,258.7,306.8,258.7z M303.2,265.7
		c0.1-1.9,1.6-3.5,3.7-3.5c2.1,0,3.5,1.5,3.5,3.5H303.2z"/>
	<path class="st2" d="M300.4,297c-2.9,0-4.2,1.7-4.9,3.1h-0.2v-8.6h-4.7v22.8h4.7v-2.7h0.2c0.6,1.4,2.1,3,4.8,3
		c3.9,0,6.9-3.1,6.9-8.8C307.3,299.9,304.1,297,300.4,297z M298.9,310.8c-2.3,0-3.6-2-3.6-5c0-3,1.3-5,3.6-5c2.3,0,3.6,2,3.6,5
		C302.5,308.7,301.2,310.8,298.9,310.8z"/>
	<path class="st2" d="M232.9,290.2c-1.4,0-2.6,1.1-2.6,2.4c0,1.3,1.1,2.4,2.6,2.4c1.4,0,2.6-1.1,2.6-2.4
		C235.4,291.3,234.3,290.2,232.9,290.2z"/>
	<path class="st2" d="M354.2,258.7c-2.5,0-4.4,1.2-5.1,3.2h-0.2v-3h-4.5V276h4.7v-9.9c0-2.2,1.3-3.5,3.2-3.5c1.9,0,3,1.2,3,3.3v10
		h4.7v-10.9C360.1,261.1,357.8,258.7,354.2,258.7z"/>
	<path class="st2" d="M332.9,258.7c-5.2,0-8.4,3.5-8.4,8.8c0,5.3,3.2,8.8,8.4,8.8s8.4-3.5,8.4-8.8
		C341.3,262.2,338.1,258.7,332.9,258.7z M332.9,272.7c-2.4,0-3.6-2.2-3.6-5.2s1.2-5.2,3.6-5.2c2.3,0,3.6,2.2,3.6,5.2
		S335.3,272.7,332.9,272.7z"/>
	<path class="st2" d="M282,307c0,2.3-1.6,3.5-3.3,3.5c-1.8,0-3-1.3-3-3.3v-10h-4.7V308c0,4,2.3,6.4,5.8,6.4c2.6,0,4.4-1.3,5.2-3.3
		h0.2v3.1h4.5v-17.1H282V307z"/>
	<path class="st2" d="M246.5,310.7c-0.9,0-1.6-0.4-1.6-1.7v-8.3h3.2v-3.6h-3.2v-4.1h-4.7v4.1h-2.3v3.6h2.3v8.9c0,3.3,2.2,5,5.7,4.9
		c1.2,0,2.1-0.3,2.6-0.4l-0.7-3.5C247.4,310.6,246.9,310.7,246.5,310.7z"/>
	<path class="st2" d="M278.8,272.9h0.2v3.1h4.5v-17.1h-4.7v9.8c0,2.3-1.6,3.5-3.3,3.5c-1.8,0-3-1.3-3-3.3v-10h-4.7v10.9
		c0,4,2.3,6.4,5.8,6.4C276.1,276.2,278,274.9,278.8,272.9z"/>
	<path class="st2" d="M231.3,261.9h-0.2v-3h-4.6V276h4.7v-9.7c0-2.1,1.5-3.5,3.6-3.5c0.6,0,1.5,0.1,2,0.3v-4.2
		c-0.4-0.1-1-0.2-1.5-0.2C233.5,258.7,232,259.8,231.3,261.9z"/>
	<path class="st2" d="M261.5,297c-2.6,0-4.3,1.2-5.1,3.2h-0.2v-8.7h-4.6v22.8h4.7v-9.9c0-2.2,1.4-3.5,3.3-3.5c1.9,0,3,1.2,3,3.3v10
		h4.7v-10.9C267.4,299.4,265,297,261.5,297z"/>
</g>
<path class="st3" d="M256,420.5c-13.9,0-25.2-11.3-25.2-25.3c0-14,11.3-25.3,25.2-25.3s25.2,11.3,25.2,25.3
	C281.2,409.1,269.9,420.5,256,420.5z"/>
<path class="st2" d="M249,388.1c0-1.6,1.9-2.5,3.3-1.6l12.2,8.4c0.3,0.2,0.5,0.4,0.6,0.7c0.1,0.3,0.2,0.6,0.2,0.9
	c0,0.3-0.1,0.6-0.3,0.9c-0.2,0.3-0.4,0.5-0.7,0.7l-12.2,7.5c-1.4,0.8-3.2-0.1-3.2-1.6V388.1z"/>
</svg>
