<svg width="131" height="136" viewBox="0 0 131 136" fill="none" xmlns="http://www.w3.org/2000/svg">
<path d="M0.512082 68.9553C0.512082 69.7837 1.18365 70.4553 2.01208 70.4553C2.84051 70.4553 3.51208 69.7837 3.51208 68.9553H0.512082ZM127.489 68.9553C127.489 69.7837 128.161 70.4553 128.989 70.4553C129.818 70.4553 130.489 69.7837 130.489 68.9553H127.489ZM130.477 68.9553C130.477 68.1269 129.806 67.4553 128.977 67.4553C128.149 67.4553 127.477 68.1269 127.477 68.9553H130.477ZM3.5 68.9553C3.5 68.1269 2.82843 67.4553 2 67.4553C1.17157 67.4553 0.5 68.1269 0.5 68.9553H3.5ZM67.3024 2C67.3024 1.17157 66.6308 0.5 65.8024 0.5C64.974 0.5 64.3024 1.17157 64.3024 2H67.3024ZM3.51208 68.9553C3.51208 66.7817 4.8685 64.4575 7.91502 62.1177C10.94 59.7945 15.4114 57.6375 21.071 55.7988C32.3736 52.1268 48.0821 49.8305 65.5006 49.8305V46.8305C47.8557 46.8305 31.8198 49.1523 20.1441 52.9456C14.3145 54.8395 9.48814 57.1269 6.0877 59.7385C2.70879 62.3335 0.512082 65.4346 0.512082 68.9553H3.51208ZM65.5006 49.8305C82.9192 49.8305 98.6277 52.1268 109.93 55.7988C115.59 57.6375 120.061 59.7945 123.086 62.1177C126.133 64.4575 127.489 66.7817 127.489 68.9553H130.489C130.489 65.4346 128.293 62.3335 124.914 59.7385C121.513 57.1269 116.687 54.8395 110.857 52.9456C99.1815 49.1523 83.1456 46.8305 65.5006 46.8305V49.8305ZM127.489 67.8289C127.489 103.408 99.6853 132.158 65.5006 132.158V135.158C101.444 135.158 130.489 104.962 130.489 67.8289H127.489ZM65.5006 132.158C31.316 132.158 3.51208 103.408 3.51208 67.8289H0.512082C0.512082 104.962 29.5577 135.158 65.5006 135.158V132.158ZM3.51208 67.8289C3.51208 32.2494 31.316 3.5 65.5006 3.5V0.5C29.5577 0.5 0.512082 30.6958 0.512082 67.8289H3.51208ZM65.5006 3.5C99.6853 3.5 127.489 32.2494 127.489 67.8289H130.489C130.489 30.6958 101.444 0.5 65.5006 0.5V3.5ZM115.89 67.4535C115.89 96.3908 93.2792 119.756 65.5006 119.756V122.756C95.0374 122.756 118.89 97.9443 118.89 67.4535H115.89ZM65.5006 119.756C37.7221 119.756 15.1114 96.3908 15.1114 67.4535H12.1114C12.1114 97.9443 35.9639 122.756 65.5006 122.756V119.756ZM15.1114 67.4535C15.1114 38.5162 37.7221 15.1515 65.5006 15.1515V12.1515C35.9639 12.1515 12.1114 36.9627 12.1114 67.4535H15.1114ZM65.5006 15.1515C93.2792 15.1515 115.89 38.5162 115.89 67.4535H118.89C118.89 36.9627 95.0374 12.1515 65.5006 12.1515V15.1515ZM101.285 67.1657C101.285 84.9462 97.1911 100.97 90.6486 112.495C84.0811 124.066 75.2392 130.819 65.8024 130.819V133.819C76.7906 133.819 86.4401 125.987 93.2576 113.976C100.1 101.921 104.285 85.3683 104.285 67.1657H101.285ZM65.8024 130.819C56.3656 130.819 47.5237 124.066 40.9562 112.495C34.4137 100.97 30.3197 84.9462 30.3197 67.1657H27.3197C27.3197 85.3683 31.5045 101.921 38.3472 113.976C45.1647 125.987 54.8142 133.819 65.8024 133.819V130.819ZM30.3197 67.1657C30.3197 49.3852 34.4137 33.3618 40.9562 21.8359C47.5237 10.2657 56.3656 3.51253 65.8024 3.51253V0.512527C54.8142 0.512527 45.1647 8.3444 38.3472 20.355C31.5045 32.4099 27.3197 48.9631 27.3197 67.1657H30.3197ZM65.8024 3.51253C75.2392 3.51253 84.0811 10.2657 90.6486 21.8359C97.1911 33.3618 101.285 49.3852 101.285 67.1657H104.285C104.285 48.9631 100.1 32.4099 93.2576 20.355C86.4401 8.3444 76.7906 0.512527 65.8024 0.512527V3.51253ZM127.477 68.9553C127.477 71.1288 126.121 73.4521 123.074 75.7907C120.05 78.1128 115.578 80.2683 109.919 82.1054C98.6159 85.7744 82.9073 88.0675 65.4886 88.0675V91.0675C83.1334 91.0675 99.1691 88.7489 110.845 84.9589C116.674 83.0666 121.501 80.7808 124.901 78.1704C128.28 75.5765 130.477 72.4762 130.477 68.9553H127.477ZM65.4886 88.0675C48.07 88.0675 32.3615 85.7713 21.0587 82.1008C15.3991 80.2629 10.9276 78.1069 7.90252 75.7853C4.85569 73.447 3.5 71.1252 3.5 68.9553H0.5C0.5 72.4735 2.69743 75.5723 6.07603 78.1652C9.47641 80.7749 14.3026 83.061 20.1321 84.9541C31.8078 88.7457 47.8436 91.0675 65.4886 91.0675V88.0675ZM64.3024 2V132.319H67.3024V2H64.3024Z" fill="url(#paint0_linear)" fill-opacity="0.71"/>
<defs>
<linearGradient id="paint0_linear" x1="82.5" y1="48.6362" x2="20.5486" y2="152.579" gradientUnits="userSpaceOnUse">
<stop stop-color="#2E2E42"/>
<stop offset="0.0343749" stop-color="#2E2E42"/>
<stop offset="0.466667" stop-color="#2E2E42" stop-opacity="0"/>
</linearGradient>
</defs>
</svg>
