<svg width="89" height="103" viewBox="0 0 89 103" fill="none" xmlns="http://www.w3.org/2000/svg">
<path d="M36.5881 34.5301L35.9925 33.9305C35.5415 33.4801 34.7667 33.799 34.7667 34.4377V43.0013C34.7667 43.3967 35.0912 43.7185 35.4877 43.7185H44.0533C44.692 43.7185 45.0134 42.945 44.5593 42.4952C44.2793 42.2152 44.2793 41.7617 44.5593 41.4823L53.6698 32.3438C53.9504 32.0654 53.9504 31.6121 53.6698 31.3308L52.8397 30.5038C52.3887 30.0533 52.7102 29.2797 53.347 29.2797H61.9075C62.3033 29.2797 62.6272 29.6011 62.6272 29.9969V38.5598C62.6272 39.1984 61.851 39.5181 61.399 39.067L60.822 38.4902C60.5401 38.2023 60.0868 38.2023 59.8109 38.4902L44.4507 53.843C44.1719 54.1224 43.7192 54.1224 43.4367 53.843L24.6447 35.0508C24.3622 34.7683 24.3622 34.3143 24.6447 34.0336L50.6593 8.02011C50.9387 7.74007 50.9387 7.28317 50.6593 7.00437L44.5421 0.887816C44.2621 0.609009 43.8086 0.609009 43.5274 0.887816L9.84949 34.5669C9.57068 34.847 9.57068 35.3039 9.84949 35.5827L43.5239 69.2569C43.804 69.5352 44.2611 69.5352 44.5399 69.2569L78.2126 35.5827C78.4909 35.3026 78.4909 34.8482 78.2126 34.5691L58.4016 14.7579C58.1245 14.4791 57.6688 14.4791 57.3881 14.7579L37.6076 34.5303C37.3251 34.8128 36.8706 34.8128 36.5881 34.5303V34.5301Z" fill="white"/>
<path d="M62.6667 91.9528C62.1508 91.9528 61.7059 92.1376 61.3328 92.5092C60.9646 92.8811 60.7765 93.3202 60.7765 93.8287C60.7765 94.6037 61.1697 95.2068 61.9506 95.6375C62.8071 95.8714 63.4955 95.7191 64.0137 95.189C64.3892 94.8147 64.5725 94.3661 64.5725 93.8432C64.5725 93.3154 64.3892 92.8741 64.0137 92.5093C63.6419 92.1413 63.1957 91.9579 62.6655 91.9579V91.953H62.6667V91.9528ZM32.2645 77.5716H30.8545C30.2453 77.5716 29.7491 78.0621 29.7491 78.6727V79.4595C28.2507 77.899 26.5508 77.1181 24.6522 77.1181C22.462 77.1181 20.6335 77.9337 19.1743 79.5602C17.7123 81.1866 16.9854 83.2209 16.9854 85.6605C16.9854 88.1422 17.7135 90.2185 19.1714 91.8784C20.6455 93.5058 22.504 94.3179 24.7554 94.3179C26.5359 94.3179 28.2014 93.591 29.7506 92.1409V93.6965C29.7506 94.4522 30.3647 95.0663 31.1184 95.0663H33.5257V78.8323C33.5255 78.1378 32.9605 77.5716 32.2644 77.5716H32.2645ZM28.7002 89.5192C27.8404 90.4777 26.7176 90.9563 25.3226 90.9563C24.0182 90.9563 22.9364 90.4633 22.0801 89.4701C21.2446 88.4924 20.8273 87.2188 20.8273 85.6583C20.8273 84.1998 21.2572 82.9716 22.1132 81.981C22.9816 80.9997 24.0628 80.5128 25.3557 80.5128C26.7267 80.5128 27.8392 80.9975 28.6967 81.9714C29.5561 82.9621 29.9861 84.2191 29.9861 85.7449C29.9861 87.2716 29.5563 88.5299 28.6967 89.5217H28.7004V89.5192H28.7002ZM16.9829 80.3196V78.7111C16.9829 78.0802 16.4745 77.574 15.8459 77.574H14.3592C13.7331 77.574 13.2233 78.0779 13.2233 78.7087V79.4091C11.8637 77.8834 10.1589 77.1182 8.10903 77.1182C5.76926 77.1182 3.88394 78.0022 2.45896 79.7594C1.13248 81.417 0.469727 83.4345 0.469727 85.8094C0.469727 88.2479 1.18394 90.2845 2.61138 91.9097C4.02654 93.5182 5.84197 94.3158 8.05978 94.3158C10.0075 94.3158 11.73 93.5555 13.2232 92.0285V94.3015C13.2232 97.6791 11.8476 99.3679 9.0964 99.3679C7.60263 99.3679 6.468 98.8594 5.68832 97.8446C5.48935 97.5879 5.32428 97.2688 5.19298 96.8839C5.00875 96.3453 4.49658 95.9879 3.93037 95.9879H2.50563C1.78712 95.9879 1.25284 96.6716 1.43437 97.3672C1.82421 98.8497 2.57687 100.054 3.69713 100.985C5.10123 102.155 6.89075 102.741 9.06176 102.741C11.6351 102.741 13.658 101.894 15.1297 100.203C15.9093 99.3223 16.4311 98.2692 16.6991 97.0433C16.7885 96.6019 16.8588 96.0826 16.9079 95.496C16.957 94.9131 16.9816 94.2366 16.9816 93.4666V91.1011C15.929 89.5851 15.3996 87.7726 15.3996 85.6605C15.3996 83.5843 15.9278 81.8103 16.9816 80.3195H16.9828L16.9829 80.3196ZM12.2199 89.3909C11.3847 90.4356 10.2498 90.9561 8.81059 90.9561C7.37308 90.9561 6.24802 90.4403 5.43298 89.4005C4.68818 88.4554 4.31505 87.239 4.31505 85.759C4.31505 84.2525 4.68806 83.0267 5.43298 82.0817C6.25957 81.0249 7.38339 80.4961 8.81059 80.4961C10.1469 80.4961 11.2449 80.9805 12.1019 81.9485C12.9491 82.8949 13.3743 84.1593 13.3743 85.7437C13.3743 87.2249 12.9886 88.4386 12.2198 89.3887V89.3911L12.2199 89.3909ZM48.2433 77.5836V77.5716H40.4445V72.7954C40.4445 72.1813 39.948 71.6847 39.3327 71.6847H37.8099C37.1899 71.6847 36.6861 72.1885 36.6861 72.8098V77.5716H35.0796V81.0775H36.6839V95.0642H38.8284C39.7225 95.0642 40.4422 94.3444 40.4422 93.4497V81.08H44.2984C44.603 80.4983 44.9718 79.9621 45.4103 79.4715C46.2092 78.5982 47.1544 77.9698 48.2411 77.5837H48.2435L48.2433 77.5836ZM67.4318 71.6847C66.7649 71.6847 66.1916 71.9258 65.7118 72.4069C65.2344 72.8853 64.9921 73.4551 64.9921 74.1112C64.9921 74.8034 65.2321 75.3839 65.7118 75.8673C66.1916 76.3458 66.7722 76.5846 67.451 76.5846C68.1311 76.5846 68.7044 76.3459 69.1685 75.8648C69.6483 75.3815 69.8907 74.8082 69.8907 74.1269C69.8907 73.4482 69.6507 72.8724 69.1698 72.407C68.6876 71.9236 68.1082 71.6826 67.4294 71.6826L67.4318 71.6848V71.6847ZM68.1936 79.4164H66.8296C66.1304 79.4164 65.5606 79.9801 65.5606 80.6854V92.6222C65.8485 92.9605 65.9865 93.3599 65.9865 93.8205C65.9865 94.2811 65.8509 94.6842 65.5606 95.0236V95.6955H67.9812C68.7224 95.6955 69.3222 95.0933 69.3222 94.3518V80.5392C69.3222 79.9177 68.8162 79.4142 68.1922 79.4142L68.1935 79.4166L68.1936 79.4164ZM85.8671 81.7193C84.1734 80.0617 82.1117 79.2316 79.6827 79.2316C77.2646 79.2316 75.2136 80.0546 73.532 81.7074C71.8506 83.3529 71.0084 85.3537 71.0084 87.7045C71.0084 90.1982 71.8313 92.2744 73.4817 93.9236C75.1322 95.5945 77.1784 96.4292 79.6154 96.4292C82.0768 96.4292 84.1542 95.6112 85.849 93.9728C87.527 92.32 88.3714 90.2798 88.3714 87.839C88.3714 85.4197 87.5367 83.3806 85.8671 81.7194V81.7193ZM83.2067 91.6482C82.3288 92.597 81.1532 93.066 79.6805 93.066C78.2194 93.066 77.0465 92.5898 76.1541 91.629C75.2857 90.684 74.8491 89.3933 74.8491 87.7693C74.8491 86.2556 75.2976 85.0178 76.1876 84.0606C77.08 83.101 78.2434 82.6224 79.6827 82.6224C81.14 82.6224 82.3167 83.101 83.2065 84.0606C84.0872 85.0058 84.5285 86.27 84.5285 87.8509C84.5285 89.4366 84.0847 90.6994 83.2066 91.6458V91.6507V91.6482H83.2067Z" fill="white"/>
<path d="M49.6451 90.991C48.8701 90.2065 48.4372 89.1366 48.3376 87.7981H59.1158C59.6076 87.7981 60.013 87.4047 60.0201 86.9142C60.0201 84.2239 59.3293 82.1296 57.9487 80.6134C56.5538 79.0867 54.6562 78.3237 52.2645 78.3237C49.8945 78.3237 47.9875 79.1093 46.5506 80.6807C45.1239 82.2758 44.4114 84.3568 44.4114 86.932C44.4114 89.5263 45.1486 91.611 46.6154 93.1812C47.6422 94.2737 48.9004 94.9801 50.3937 95.3088C51.0198 95.4562 51.6686 95.5343 52.3248 95.5247C55.002 95.58 57.3313 95.635 60.0086 95.6903L60.0133 95.2969C59.6858 94.9407 59.5215 94.5102 59.5215 94.0112C59.5215 93.5242 59.6929 93.1056 60.0275 92.7434L60.03 92.2673C57.919 92.2144 52.7999 92.1641 52.596 92.1641C51.3965 92.1641 50.4106 91.7767 49.6455 90.9936V90.9911L49.6451 90.991ZM49.1221 83.4731C49.3584 83.1034 49.638 82.7916 49.9677 82.5301C50.3 82.2639 50.6598 82.0671 51.0628 81.9281C51.4635 81.7889 51.8929 81.7193 52.3534 81.7193C54.3542 81.7193 55.6208 82.7198 56.1484 84.7252H48.5884C48.712 84.2573 48.8894 83.84 49.1222 83.4706V83.4731H49.1221Z" fill="white"/>
</svg>
