<svg width="184" height="39" viewBox="0 0 184 39" fill="none" xmlns="http://www.w3.org/2000/svg">
<path d="M11.2478 16.5937L18.3906 9.37215L25.5364 16.5996L29.6902 12.3953L18.3906 0.963623L7.09106 12.3924L11.2478 16.5937Z" fill="white"/>
<path d="M0 19.5632L4.15522 15.3605L8.31043 19.5632L4.15521 23.766L0 19.5632Z" fill="white"/>
<path d="M11.2495 22.5315L18.3923 29.756L25.538 22.5286L29.6948 26.727L29.6919 26.7299L18.3923 38.1616L7.09272 26.7358L7.08691 26.7299L11.2495 22.5315Z" fill="white"/>
<path d="M28.4658 19.5642L32.621 15.3615L36.7763 19.5642L32.621 23.7669L28.4658 19.5642Z" fill="white"/>
<path d="M22.6069 19.5611L18.392 15.2952L15.2752 18.4476L14.915 18.809L14.1772 19.5553L14.1714 19.5611L14.1772 19.5699L18.392 23.83L22.6069 19.5641L22.6098 19.5611H22.6069Z" fill="white"/>
<path d="M43.2593 9.97729H52.2989C54.5414 9.97729 56.2378 10.5649 57.3881 11.7401C57.8215 12.1742 58.1631 12.6928 58.3923 13.2645C58.6215 13.8363 58.7335 14.4491 58.7214 15.0659V15.1217C58.7292 15.627 58.6596 16.1305 58.5152 16.6142C58.3865 17.0307 58.1996 17.4264 57.9603 17.7894C57.7373 18.1317 57.4673 18.4404 57.1586 18.7061C56.857 18.9686 56.5266 19.1954 56.1739 19.3818C57.191 19.7401 58.1057 20.3454 58.8376 21.1446C59.4844 21.8889 59.8078 22.9172 59.8078 24.2295V24.2853C59.8262 25.1049 59.6499 25.917 59.2936 26.6533C58.9485 27.3318 58.4425 27.9132 57.8209 28.3456C57.1182 28.8221 56.3357 29.1656 55.5116 29.3592C54.5325 29.5941 53.5288 29.7075 52.5226 29.6971H43.2593V9.97729ZM51.3927 17.951C52.1747 17.9892 52.953 17.819 53.6497 17.4574C53.9213 17.2969 54.1431 17.0627 54.29 16.7813C54.4368 16.4998 54.5028 16.1824 54.4804 15.865V15.8092C54.4948 15.5167 54.4361 15.2253 54.3097 14.9619C54.1832 14.6985 53.9932 14.4715 53.7571 14.302C53.2749 13.9553 52.5788 13.782 51.6686 13.782H47.4392V17.951H51.3927ZM52.5342 25.8983C53.3134 25.9424 54.089 25.7621 54.7709 25.3782C55.0366 25.2056 55.2516 24.9641 55.3936 24.6789C55.5356 24.3936 55.5995 24.0751 55.5784 23.7565V23.7006C55.5889 23.3978 55.5258 23.0969 55.3946 22.8244C55.2635 22.5519 55.0683 22.3161 54.8261 22.1376C54.3265 21.7459 53.5189 21.55 52.4035 21.55H47.4392V25.8983H52.5342Z" fill="white"/>
<path d="M65.1934 9.97729H69.4837V29.703H65.1934V9.97729Z" fill="white"/>
<path d="M75.9761 9.97729H79.9324L89.0766 22.1171V9.97729H93.3118V29.703H89.6605L80.217 17.1636V29.703H75.9761V9.97729Z" fill="white"/>
<path d="M106.302 9.83618H110.252L118.609 29.7029H114.13L112.346 25.2783H104.1L102.316 29.7029H97.9417L106.302 9.83618ZM110.816 21.4471L108.219 15.0482L105.633 21.4471H110.816Z" fill="white"/>
<path d="M123.248 9.97729H127.204L136.343 22.1171V9.97729H140.578V29.703H136.926L127.483 17.1636V29.703H123.248V9.97729Z" fill="white"/>
<path d="M156.02 30.0497C154.652 30.0615 153.297 29.7937 152.034 29.2623C150.846 28.766 149.768 28.034 148.863 27.1096C147.959 26.1852 147.246 25.0871 146.768 23.8799C146.263 22.6172 146.008 21.2668 146.016 19.9048V19.849C145.993 17.1643 147.015 14.5782 148.86 12.648C149.767 11.7051 150.854 10.9576 152.055 10.4504C153.361 9.9032 154.763 9.63032 156.177 9.64829C157.013 9.64198 157.847 9.71775 158.669 9.87452C159.372 10.009 160.059 10.2167 160.72 10.4944C161.319 10.7496 161.889 11.0708 162.419 11.4522C162.936 11.8242 163.422 12.2389 163.871 12.6921L161.144 15.8768C160.447 15.2265 159.665 14.6759 158.82 14.2404C157.99 13.8389 157.079 13.6378 156.159 13.6528C155.394 13.6445 154.635 13.8011 153.934 14.1121C153.233 14.4231 152.605 14.8815 152.093 15.4567C151.584 16.0305 151.186 16.695 150.919 17.4163C150.639 18.1786 150.498 18.9859 150.504 19.799V19.8549C150.501 20.6668 150.642 21.4727 150.919 22.2346C151.183 22.9585 151.577 23.6269 152.081 24.206C152.589 24.7884 153.216 25.2535 153.917 25.5698C154.619 25.8861 155.379 26.0462 156.148 26.0393C157.126 26.0705 158.096 25.8576 158.974 25.4194C159.809 24.9589 160.582 24.39 161.272 23.7271L164.002 26.5182C163.52 27.0475 162.999 27.5386 162.442 27.9872C161.896 28.4243 161.302 28.7978 160.673 29.1007C160.003 29.4199 159.297 29.6557 158.57 29.8029C157.731 29.9731 156.876 30.0558 156.02 30.0497Z" fill="white"/>
<path d="M169.065 9.97729H183.743V13.8378H173.286V17.8394H182.494V21.6999H173.301V25.8424H183.889V29.703H169.074L169.065 9.97729Z" fill="white"/>
</svg>
