<svg width="170" height="61" viewBox="0 0 170 61" fill="none" xmlns="http://www.w3.org/2000/svg">
<path d="M95.5934 30.7238C95.5934 32.7363 95.2816 34.6355 94.6296 36.3929C93.9777 38.1787 93.0706 39.7094 91.8517 41.0416C90.6329 42.3739 89.1589 43.4226 87.3731 44.2163C85.5874 45.01 83.5748 45.3785 81.3072 45.3785C79.0395 45.3785 77.027 44.9816 75.2412 44.2163C73.4554 43.4226 71.9815 42.3739 70.7626 41.0416C69.5437 39.7094 68.6083 38.1504 67.9847 36.3929C67.3611 34.6072 67.0493 32.7363 67.0493 30.7238C67.0493 28.7396 67.3611 26.8405 67.9847 25.0547C68.6083 23.2689 69.5437 21.7099 70.7626 20.3777C71.9815 19.0454 73.4838 17.9966 75.2412 17.2029C77.027 16.4093 79.0395 16.0408 81.3072 16.0408C83.5748 16.0408 85.5874 16.4376 87.3731 17.2029C89.1589 17.9966 90.6329 19.0454 91.8517 20.3777C93.0706 21.7099 93.9777 23.2689 94.6296 25.0547C95.2816 26.8405 95.5934 28.7396 95.5934 30.7238ZM81.3355 40.7298C82.7244 40.7298 83.9433 40.4747 84.9638 39.9645C86.0125 39.4543 86.8629 38.7456 87.5715 37.8669C88.2802 36.9598 88.7904 35.9111 89.1306 34.6922C89.4707 33.4733 89.6408 32.1411 89.6408 30.7238C89.6408 29.3065 89.4707 27.9743 89.1306 26.7554C88.7904 25.5366 88.2802 24.4878 87.5715 23.5807C86.8629 22.6736 86.0125 21.9934 84.9638 21.4831C83.915 20.9729 82.7244 20.7178 81.3355 20.7178C79.9466 20.7178 78.7277 20.9729 77.7073 21.4831C76.6585 21.9934 75.8081 22.702 75.0995 23.5807C74.3908 24.4878 73.8806 25.5366 73.5405 26.7554C73.2003 27.9743 73.0302 29.3065 73.0302 30.7238C73.0302 32.1411 73.2003 33.4733 73.5405 34.6922C73.8806 35.9111 74.3908 36.9598 75.0995 37.8669C75.8081 38.774 76.6585 39.4543 77.7073 39.9645C78.7277 40.4747 79.9466 40.7298 81.3355 40.7298ZM99.335 44.8966V16.551H105.288V30.1569L115.123 16.551H122.011L111.58 30.5537L122.72 44.8966H115.35L105.259 30.9789V44.8966H99.335ZM125.101 16.551H142.137V21.2847H131.082V28.1444H141.627V32.8497H131.082V40.1629H142.279V44.8966H125.129V16.551H125.101ZM163.368 16.551H169.831L160.505 30.6388L170.001 44.8966H163.481L157.358 35.2308L151.236 44.8966H144.716L154.212 30.6388L144.886 16.551H151.349L157.358 26.1318L163.368 16.551Z" fill="white"/>
<path d="M30.1989 27.9459C37.7132 27.9459 43.8048 21.8544 43.8048 14.34C43.8048 6.8257 37.7132 0.734131 30.1989 0.734131C22.6846 0.734131 16.593 6.8257 16.593 14.34C16.593 21.8544 22.6846 27.9459 30.1989 27.9459Z" fill="white"/>
<path d="M30.1989 60.8268C37.7132 60.8268 43.8048 54.7352 43.8048 47.2209C43.8048 39.7066 37.7132 33.615 30.1989 33.615C22.6846 33.615 16.593 39.7066 16.593 47.2209C16.593 54.7352 22.6846 60.8268 30.1989 60.8268Z" fill="white"/>
<path d="M46.6403 44.3864C54.1547 44.3864 60.2462 38.2948 60.2462 30.7805C60.2462 23.2661 54.1547 17.1746 46.6403 17.1746C39.126 17.1746 33.0344 23.2661 33.0344 30.7805C33.0344 38.2948 39.126 44.3864 46.6403 44.3864Z" fill="white"/>
<path d="M13.759 44.3864C21.2733 44.3864 27.3649 38.2948 27.3649 30.7805C27.3649 23.2661 21.2733 17.1746 13.759 17.1746C6.24464 17.1746 0.153076 23.2661 0.153076 30.7805C0.153076 38.2948 6.24464 44.3864 13.759 44.3864Z" fill="white"/>
<path fill-rule="evenodd" clip-rule="evenodd" d="M26.9818 27.5633C22.0516 26.368 18.1708 22.4873 16.9756 17.5571C21.9058 18.7524 25.7865 22.6331 26.9818 27.5633Z" fill="white"/>
<path fill-rule="evenodd" clip-rule="evenodd" d="M16.9756 44.0037C18.1708 39.0736 22.0516 35.1928 26.9818 33.9976C25.7865 38.9277 21.9058 42.8085 16.9756 44.0037Z" fill="white"/>
<path fill-rule="evenodd" clip-rule="evenodd" d="M33.4167 33.9976C38.3469 35.1928 42.2277 39.0736 43.4229 44.0037C38.4927 42.8085 34.612 38.9277 33.4167 33.9976Z" fill="white"/>
<path fill-rule="evenodd" clip-rule="evenodd" d="M43.4229 17.5571C42.2277 22.4873 38.3469 26.368 33.4167 27.5633C34.612 22.6331 38.4927 18.7524 43.4229 17.5571Z" fill="white"/>
</svg>
