<svg width="184" height="38" viewBox="0 0 184 38" fill="none" xmlns="http://www.w3.org/2000/svg">
<path d="M11.2478 15.9153L18.3906 8.69368L25.5364 15.9211L29.6902 11.7169L18.3906 0.285156L7.09106 11.7139L11.2478 15.9153Z" fill="white"/>
<path d="M0 18.8848L4.15522 14.682L8.31043 18.8848L4.15521 23.0875L0 18.8848Z" fill="white"/>
<path d="M11.2495 21.853L18.3923 29.0775L25.538 21.8501L29.6948 26.0485L29.6919 26.0514L18.3923 37.4831L7.09272 26.0573L7.08691 26.0514L11.2495 21.853Z" fill="white"/>
<path d="M28.4658 18.8857L32.621 14.683L36.7763 18.8857L32.621 23.0885L28.4658 18.8857Z" fill="white"/>
<path d="M22.6069 18.8827L18.392 14.6167L15.2752 17.7692L14.915 18.1305L14.1772 18.8768L14.1714 18.8827L14.1772 18.8915L18.392 23.1516L22.6069 18.8856L22.6098 18.8827H22.6069Z" fill="white"/>
<path d="M43.2593 9.29883H52.2989C54.5414 9.29883 56.2378 9.88643 57.3881 11.0616C57.8215 11.4957 58.1631 12.0144 58.3923 12.5861C58.6215 13.1578 58.7335 13.7706 58.7214 14.3874V14.4432C58.7292 14.9485 58.6596 15.452 58.5152 15.9357C58.3865 16.3522 58.1996 16.7479 57.9603 17.1109C57.7373 17.4533 57.4673 17.7619 57.1586 18.0276C56.857 18.2902 56.5266 18.5169 56.1739 18.7033C57.191 19.0617 58.1057 19.667 58.8376 20.4661C59.4844 21.2104 59.8078 22.2387 59.8078 23.551V23.6068C59.8262 24.4264 59.6499 25.2385 59.2936 25.9749C58.9485 26.6533 58.4425 27.2348 57.8209 27.6671C57.1182 28.1437 56.3357 28.4871 55.5116 28.6807C54.5325 28.9156 53.5288 29.029 52.5226 29.0186H43.2593V9.29883ZM51.3927 17.2725C52.1747 17.3108 52.953 17.1406 53.6497 16.779C53.9213 16.6185 54.1431 16.3842 54.29 16.1028C54.4368 15.8214 54.5028 15.504 54.4804 15.1866V15.1307C54.4948 14.8383 54.4361 14.5469 54.3097 14.2834C54.1832 14.02 53.9932 13.7931 53.7571 13.6235C53.2749 13.2769 52.5788 13.1035 51.6686 13.1035H47.4392V17.2725H51.3927ZM52.5342 25.2198C53.3134 25.264 54.089 25.0836 54.7709 24.6998C55.0366 24.5271 55.2516 24.2856 55.3936 24.0004C55.5356 23.7152 55.5995 23.3967 55.5784 23.078V23.0222C55.5889 22.7193 55.5258 22.4184 55.3946 22.146C55.2635 21.8735 55.0683 21.6377 54.8261 21.4592C54.3265 21.0674 53.5189 20.8716 52.4035 20.8716H47.4392V25.2198H52.5342Z" fill="white"/>
<path d="M65.1934 9.29883H69.4837V29.0245H65.1934V9.29883Z" fill="white"/>
<path d="M75.9761 9.29883H79.9324L89.0766 21.4386V9.29883H93.3118V29.0245H89.6605L80.217 16.4852V29.0245H75.9761V9.29883Z" fill="white"/>
<path d="M106.302 9.15771H110.252L118.609 29.0244H114.13L112.346 24.5998H104.1L102.316 29.0244H97.9417L106.302 9.15771ZM110.816 20.7687L108.219 14.3697L105.633 20.7687H110.816Z" fill="white"/>
<path d="M123.248 9.29883H127.204L136.343 21.4386V9.29883H140.578V29.0245H136.926L127.483 16.4852V29.0245H123.248V9.29883Z" fill="white"/>
<path d="M156.02 29.3712C154.652 29.3831 153.297 29.1152 152.034 28.5838C150.846 28.0875 149.768 27.3556 148.863 26.4312C147.959 25.5068 147.246 24.4086 146.768 23.2014C146.263 21.9387 146.008 20.5883 146.016 19.2263V19.1705C145.993 16.4859 147.015 13.8998 148.86 11.9695C149.767 11.0266 150.854 10.2791 152.055 9.7719C153.361 9.22474 154.763 8.95185 156.177 8.96983C157.013 8.96352 157.847 9.03928 158.669 9.19605C159.372 9.33051 160.059 9.53826 160.72 9.81597C161.319 10.0712 161.889 10.3924 162.419 10.7738C162.936 11.1457 163.422 11.5604 163.871 12.0136L161.144 15.1984C160.447 14.548 159.665 13.9974 158.82 13.5619C157.99 13.1605 157.079 12.9593 156.159 12.9743C155.394 12.966 154.635 13.1226 153.934 13.4336C153.233 13.7447 152.605 14.203 152.093 14.7782C151.584 15.352 151.186 16.0166 150.919 16.7379C150.639 17.5001 150.498 18.3075 150.504 19.1206V19.1764C150.501 19.9883 150.642 20.7943 150.919 21.5562C151.183 22.2801 151.577 22.9484 152.081 23.5276C152.589 24.1099 153.216 24.575 153.917 24.8913C154.619 25.2076 155.379 25.3677 156.148 25.3609C157.126 25.392 158.096 25.1791 158.974 24.741C159.809 24.2804 160.582 23.7115 161.272 23.0487L164.002 25.8398C163.52 26.369 162.999 26.8601 162.442 27.3088C161.896 27.7458 161.302 28.1193 160.673 28.4223C160.003 28.7414 159.297 28.9772 158.57 29.1244C157.731 29.2947 156.876 29.3774 156.02 29.3712Z" fill="white"/>
<path d="M169.065 9.29883H183.743V13.1593H173.286V17.1609H182.494V21.0214H173.301V25.164H183.889V29.0245H169.074L169.065 9.29883Z" fill="white"/>
</svg>
