<?xml version="1.0" encoding="utf-8"?>
<!-- Generator: Adobe Illustrator 25.2.1, SVG Export Plug-In . SVG Version: 6.00 Build 0)  -->
<svg version="1.1" id="Layer_1" xmlns="http://www.w3.org/2000/svg" xmlns:xlink="http://www.w3.org/1999/xlink" x="0px" y="0px"
	 viewBox="0 0 512 512" style="enable-background:new 0 0 512 512;" xml:space="preserve">
<style type="text/css">
	.st0{fill:#1E1E28;}
	.st1{fill:#FFFFFF;}
</style>
<g>
	<path class="st0" d="M400.8,449.4H111.2c-26.9,0-48.6-21.8-48.6-48.6V111.2c0-26.9,21.8-48.6,48.6-48.6h289.5
		c26.9,0,48.6,21.8,48.6,48.6v289.5C449.4,427.6,427.6,449.4,400.8,449.4z"/>
	<g>
		<rect x="122.6" y="170.8" class="st1" width="283.2" height="228.6"/>
		<path class="st0" d="M97,97v318h318V97H97z M270.1,345c0,30.9-18.2,45.1-44.6,45.1c-23.9,0-37.8-12.4-44.9-27.3l24.3-14.7
			c4.7,8.3,8.9,15.3,19.2,15.3c9.8,0,16-3.8,16-18.8V243h29.9V345L270.1,345z M340.8,390.1c-27.8,0-45.7-13.2-54.4-30.5l24.3-14.1
			c6.4,10.4,14.8,18.2,29.5,18.2c12.4,0,20.3-6.2,20.3-14.8c0-10.2-8.1-13.8-21.8-19.9l-7.5-3.2c-21.6-9.2-35.8-20.7-35.8-45.1
			c0-22.4,17.1-39.5,43.7-39.5c19,0,32.7,6.6,42.4,23.9l-23.3,14.9c-5.1-9.2-10.6-12.8-19.2-12.8c-8.7,0-14.3,5.5-14.3,12.8
			c0,8.9,5.5,12.6,18.4,18.2l7.5,3.2c25.4,10.9,39.7,22,39.7,47C390.2,375.3,369.1,390.1,340.8,390.1L340.8,390.1z"/>
	</g>
</g>
</svg>
