<svg width="21" height="21" viewBox="0 0 21 21" fill="none" xmlns="http://www.w3.org/2000/svg">
<path d="M16.1 1.60999C14.455 0.594996 12.565 0 10.5 0V1.60999H16.1Z" fill="#ED4C5C"/>
<path d="M10.5 3.21937H18.06C17.465 2.62437 16.8 2.06437 16.1 1.60938H10.5V3.21937Z" fill="white"/>
<path d="M10.5 4.82972H19.3549C18.9699 4.23472 18.55 3.70972 18.095 3.21973H10.5V4.82972Z" fill="#ED4C5C"/>
<path d="M10.5 6.43909H20.1949C19.9499 5.8791 19.6699 5.3191 19.3549 4.8291H10.5V6.43909Z" fill="white"/>
<path d="M10.5 8.05042H20.7199C20.5799 7.49042 20.4049 6.96543 20.1949 6.44043H10.5V8.05042Z" fill="#ED4C5C"/>
<path d="M10.5 9.69495H20.9649C20.9299 9.13495 20.8249 8.60996 20.7199 8.08496H10.5V9.69495Z" fill="white"/>
<path d="M20.9649 9.69434H10.4999V10.4993H0C0 10.7793 -3.38999e-08 11.0243 0.0349998 11.3043H20.9649C20.9999 11.0243 20.9999 10.7793 20.9999 10.4993C20.9999 10.2193 20.9999 9.93933 20.9649 9.69434Z" fill="#ED4C5C"/>
<path d="M0.280155 12.9147H20.72C20.86 12.3897 20.93 11.8647 20.965 11.3047H0.0351562C0.070156 11.8297 0.175155 12.3897 0.280155 12.9147Z" fill="white"/>
<path d="M0.805026 14.525H20.1949C20.4049 14 20.5799 13.475 20.7199 12.915H0.280029C0.420028 13.475 0.595027 14 0.805026 14.525Z" fill="#ED4C5C"/>
<path d="M1.64493 16.1354H19.3548C19.6698 15.6104 19.9498 15.0854 20.1948 14.5254H0.804932C1.04993 15.0854 1.32993 15.6104 1.64493 16.1354Z" fill="white"/>
<path d="M2.90501 17.7448H18.0949C18.5499 17.2548 19.0049 16.6948 19.3549 16.1348H1.64502C1.99502 16.7298 2.45001 17.2548 2.90501 17.7448Z" fill="#ED4C5C"/>
<path d="M4.86502 19.3551H16.1349C16.8699 18.9001 17.4999 18.3401 18.0949 17.7451H2.90503C3.50003 18.3751 4.16502 18.9001 4.86502 19.3551Z" fill="white"/>
<path d="M10.5 20.9995C12.5649 20.9995 14.4899 20.4045 16.1349 19.3545H4.86499C6.50998 20.4045 8.43497 20.9995 10.5 20.9995Z" fill="#ED4C5C"/>
<path d="M4.89997 1.60999C4.16498 2.06499 3.49998 2.62498 2.90498 3.21998C2.41499 3.70998 1.99499 4.26997 1.64499 4.82997C1.32999 5.35497 1.01499 5.87996 0.804995 6.43996C0.594997 6.96496 0.419997 7.48996 0.279998 8.04995C0.139999 8.57495 0.0699995 9.09995 0.0349998 9.65994C-3.38999e-08 9.93994 0 10.2199 0 10.4999H10.4999V0C8.43495 0 6.54496 0.594996 4.89997 1.60999Z" fill="#428BC1"/>
<path d="M8.05009 0.349609L8.22509 0.874606H8.75009L8.33009 1.2246L8.47009 1.7496L8.05009 1.4346L7.6301 1.7496L7.7701 1.2246L7.3501 0.874606H7.87509L8.05009 0.349609Z" fill="white"/>
<path d="M9.45024 2.44922L9.62524 2.97422H10.1502L9.73024 3.32421L9.87024 3.84921L9.45024 3.53421L9.03024 3.84921L9.17024 3.32421L8.75024 2.97422H9.27524L9.45024 2.44922Z" fill="white"/>
<path d="M6.65044 2.44922L6.82543 2.97422H7.35043L6.93043 3.32421L7.07043 3.84921L6.65044 3.53421L6.23044 3.84921L6.37044 3.32421L5.95044 2.97422H6.47544L6.65044 2.44922Z" fill="white"/>
<path d="M8.05009 4.5498L8.22509 5.0748H8.75009L8.33009 5.4248L8.47009 5.9498L8.05009 5.6348L7.6301 5.9498L7.7701 5.4248L7.3501 5.0748H7.87509L8.05009 4.5498Z" fill="white"/>
<path d="M5.25029 4.5498L5.42529 5.0748H5.95028L5.53029 5.4248L5.67029 5.9498L5.25029 5.6348L4.83029 5.9498L4.97029 5.4248L4.55029 5.0748H5.07529L5.25029 4.5498Z" fill="white"/>
<path d="M2.45024 4.5498L2.62524 5.0748H3.15024L2.73024 5.4248L2.87024 5.9498L2.45024 5.6348L2.03024 5.9498L2.17024 5.4248L1.75024 5.0748H2.27524L2.45024 4.5498Z" fill="white"/>
<path d="M9.45024 6.64941L9.62524 7.17441H10.1502L9.73024 7.52441L9.87024 8.04941L9.45024 7.73441L9.03024 8.04941L9.17024 7.52441L8.75024 7.17441H9.27524L9.45024 6.64941Z" fill="white"/>
<path d="M6.65044 6.64941L6.82543 7.17441H7.35043L6.93043 7.52441L7.07043 8.04941L6.65044 7.73441L6.23044 8.04941L6.37044 7.52441L5.95044 7.17441H6.47544L6.65044 6.64941Z" fill="white"/>
<path d="M3.85039 6.64941L4.02539 7.17441H4.55038L4.13038 7.52441L4.27038 8.04941L3.85039 7.73441L3.43039 8.04941L3.57039 7.52441L3.15039 7.17441H3.67539L3.85039 6.64941Z" fill="white"/>
<path d="M8.05009 8.75L8.22509 9.275H8.75009L8.33009 9.62499L8.47009 10.15L8.05009 9.83499L7.6301 10.15L7.7701 9.62499L7.3501 9.275H7.87509L8.05009 8.75Z" fill="white"/>
<path d="M5.25029 8.75L5.42529 9.275H5.95028L5.53029 9.62499L5.67029 10.15L5.25029 9.83499L4.83029 10.15L4.97029 9.62499L4.55029 9.275H5.07529L5.25029 8.75Z" fill="white"/>
<path d="M2.45024 8.75L2.62524 9.275H3.15024L2.73024 9.62499L2.87024 10.15L2.45024 9.83499L2.03024 10.15L2.17024 9.62499L1.75024 9.275H2.27524L2.45024 8.75Z" fill="white"/>
<path d="M3.43055 3.84921L3.85054 3.53421L4.27054 3.84921L4.09554 3.32421L4.51554 2.97422H3.99054L3.85054 2.44922L3.67554 2.97422H3.18555L3.60554 3.28921L3.43055 3.84921Z" fill="white"/>
<path d="M0.630233 8.04941L1.05023 7.73441L1.47023 8.04941L1.29523 7.52441L1.71523 7.17441H1.22523L1.05023 6.64941L0.875232 7.17441H0.525234C0.525234 7.20941 0.490234 7.24441 0.490234 7.27941L0.770233 7.48941L0.630233 8.04941Z" fill="white"/>
</svg>
