<svg width="36" height="37" viewBox="0 0 36 37" fill="none" xmlns="http://www.w3.org/2000/svg">
<path fill-rule="evenodd" clip-rule="evenodd" d="M0.637696 3.6239C0.637696 2.82958 0.942756 2.06779 1.48577 1.50612C2.02878 0.944453 2.76526 0.62891 3.53319 0.62891H32.3968C32.7773 0.628267 33.1543 0.705273 33.506 0.855517C33.8578 1.00576 34.1774 1.22629 34.4467 1.50449C34.7159 1.78269 34.9295 2.11308 35.0751 2.47676C35.2208 2.84044 35.2956 3.23026 35.2954 3.6239V33.4793C35.2958 33.873 35.2212 34.263 35.0758 34.6268C34.9303 34.9907 34.717 35.3213 34.4479 35.5998C34.1788 35.8782 33.8593 36.0991 33.5076 36.2497C33.1559 36.4003 32.779 36.4778 32.3983 36.4775H3.53319C3.15282 36.4775 2.77617 36.4 2.42477 36.2494C2.07337 36.0988 1.7541 35.878 1.48521 35.5998C1.21632 35.3215 1.00307 34.9911 0.85765 34.6276C0.71223 34.264 0.637489 33.8744 0.637696 33.4809V3.6239ZM14.3558 14.297H19.0488V16.7347C19.7262 15.3334 21.4591 14.0721 24.0632 14.0721C29.0554 14.0721 30.2385 16.8635 30.2385 21.9849V31.4718H25.1864V23.1516C25.1864 20.2349 24.509 18.5891 22.7887 18.5891C20.402 18.5891 19.4096 20.3636 19.4096 23.1516V31.4718H14.3558V14.297ZM5.69142 31.2485H10.7451V14.0721H5.69142V31.2469V31.2485ZM11.4682 8.46998C11.4778 8.91756 11.4008 9.36259 11.2418 9.77897C11.0828 10.1953 10.8449 10.5747 10.5423 10.8947C10.2396 11.2147 9.87823 11.469 9.47928 11.6426C9.08033 11.8162 8.65188 11.9056 8.21907 11.9056C7.78626 11.9056 7.35781 11.8162 6.95886 11.6426C6.55991 11.469 6.19851 11.2147 5.89585 10.8947C5.5932 10.5747 5.35539 10.1953 5.19638 9.77897C5.03738 9.36259 4.96038 8.91756 4.96991 8.46998C4.98861 7.59145 5.33915 6.75543 5.94645 6.14094C6.55374 5.52645 7.36952 5.18237 8.21907 5.18237C9.06862 5.18237 9.8844 5.52645 10.4917 6.14094C11.099 6.75543 11.4495 7.59145 11.4682 8.46998Z" fill="white"/>
</svg>
