<svg width="18" height="21" viewBox="0 0 18 21" fill="none" xmlns="http://www.w3.org/2000/svg">
<path d="M1.32282 20.2266C0.590549 20.2266 0 19.6157 0 18.8584V6.57109C0 2.94755 2.85036 0 6.35425 0C9.85813 0 12.7085 2.94755 12.7085 6.57109V11.4977C12.7085 12.255 12.1179 12.8655 11.3857 12.8655C10.6534 12.8655 10.0628 12.255 10.0628 11.4977V6.57109C10.0628 4.45396 8.40146 2.73587 6.35425 2.73587C4.30703 2.73587 2.64563 4.46211 2.64563 6.57109V18.8584C2.64563 19.6157 2.0551 20.2266 1.32282 20.2266Z" fill="url(#paint0_linear)"/>
<path d="M10.8584 20.2808C7.35451 20.2808 4.50415 17.3332 4.50415 13.7097V8.78345C4.50415 8.02617 5.0947 7.41531 5.82697 7.41531C6.55925 7.41531 7.14978 8.02617 7.14978 8.78345V13.7097C7.14978 15.8268 8.81118 17.5449 10.8584 17.5449C12.9056 17.5449 14.567 15.8187 14.567 13.7097V1.42233C14.567 0.665052 15.1575 0.0541992 15.8898 0.0541992C16.6221 0.0541992 17.2126 0.665052 17.2126 1.42233V13.7097C17.2126 17.3332 14.3623 20.2808 10.8584 20.2808Z" fill="url(#paint1_linear)"/>
<defs>
<linearGradient id="paint0_linear" x1="0.0014173" y1="10.1156" x2="12.7053" y2="10.1156" gradientUnits="userSpaceOnUse">
<stop stop-color="#08D795"/>
<stop offset="0.497917" stop-color="#2395C3"/>
<stop offset="1" stop-color="#3D57ED"/>
</linearGradient>
<linearGradient id="paint1_linear" x1="4.50557" y1="10.1698" x2="17.2094" y2="10.1698" gradientUnits="userSpaceOnUse">
<stop stop-color="#08D795"/>
<stop offset="0.497917" stop-color="#2395C3"/>
<stop offset="1" stop-color="#3D57ED"/>
</linearGradient>
</defs>
</svg>
