<svg width="39" height="46" viewBox="0 0 39 46" fill="none" xmlns="http://www.w3.org/2000/svg">
<path d="M2.96813 45.4617C1.32701 45.4617 0 44.0893 0 42.392V14.7649C0 6.62334 6.40424 0 14.2765 0C22.1488 0 28.553 6.62334 28.553 14.7649V25.8436C28.553 27.5409 27.226 28.9133 25.5849 28.9133C23.9438 28.9133 22.6168 27.5409 22.6168 25.8436V14.7649C22.6168 10.0046 18.8729 6.13935 14.2765 6.13935C9.67367 6.13935 5.93626 10.0113 5.93626 14.7649V42.392C5.93626 44.0827 4.60926 45.4617 2.96813 45.4617Z" fill="white"/>
<path d="M24.3926 45.5899C16.5203 45.5899 10.1161 38.9666 10.1161 30.825V19.7463C10.1161 18.049 11.4431 16.6766 13.0842 16.6766C14.7253 16.6766 16.0523 18.049 16.0523 19.7463V30.825C16.0523 35.5853 19.7962 39.4506 24.3926 39.4506C28.989 39.4506 32.7328 35.5787 32.7328 30.825V3.20445C32.7328 1.50717 34.0599 0.134766 35.701 0.134766C37.3421 0.134766 38.6691 1.50717 38.6691 3.20445V30.8316C38.6691 38.9666 32.2649 45.5899 24.3926 45.5899Z" fill="white"/>
</svg>
