<svg width="40" height="33" viewBox="0 0 40 33" fill="none" xmlns="http://www.w3.org/2000/svg">
<path d="M36.2613 4.58856L39.3395 1.57344V0.913086H28.679L21.0816 20.2835L12.4397 0.913086H1.26198V1.57344L4.85732 6.00653C5.20882 6.33415 5.3896 6.81534 5.3444 7.29653V24.7166C5.45487 25.3463 5.25904 25.9862 4.8272 26.4417L0.774902 31.4738V32.1239H12.2539V31.4635L8.20662 26.4469C7.98977 26.2224 7.82665 25.95 7.72998 25.6508C7.6333 25.3516 7.60567 25.0336 7.64924 24.7217V9.65129L17.7272 32.1341H18.8972L27.5642 9.65129V27.5628C27.5642 28.0338 27.5642 28.131 27.2629 28.4433L24.1446 31.5301V32.1904H39.2692V31.5301L36.2613 28.515C36.0002 28.3102 35.8647 27.9672 35.9199 27.6345V5.46903C35.8939 5.30453 35.9119 5.13593 35.972 4.98098C36.0321 4.82603 36.132 4.69046 36.2613 4.58856Z" fill="white"/>
</svg>
