<svg width="259" height="65" viewBox="0 0 259 65" fill="none" xmlns="http://www.w3.org/2000/svg">
<path d="M157.81 18.4772C153.642 18.4772 150.368 19.3722 147.093 21.1588C147.093 11.6216 147.093 2.97941 147.392 0L127.441 3.57495V5.36329L129.525 5.66105C132.202 6.25659 133.1 7.74544 133.69 11.3238C134.29 18.4772 133.989 56.6278 133.69 62.8878C139.049 64.0806 144.708 64.9756 150.366 64.9756C166.147 64.9756 175.675 55.1389 175.675 39.6394C175.675 27.4206 167.934 18.4772 157.81 18.4772ZM150.961 61.695C149.77 61.695 148.279 61.695 147.388 61.3989C147.089 57.2267 146.793 39.6394 147.089 24.1417C148.876 23.5444 150.066 23.2466 151.556 23.2466C158.111 23.2466 161.684 30.9955 161.684 40.531C161.682 52.4573 157.215 61.695 150.961 61.695ZM52.405 1.19108H0V3.87272L2.97806 4.17049C6.8468 4.76603 8.33755 7.1499 8.93075 12.8127C9.82658 23.5427 9.5274 42.9183 8.93075 52.1543C8.33583 57.8188 6.84851 60.5022 2.97806 60.7965L0 61.3955V63.7794H33.6459V61.3955L30.0729 60.7965C26.2025 60.5005 24.7135 57.8188 24.1185 52.1543C23.8193 48.2782 23.5219 42.0181 23.5219 34.271L30.6679 34.5687C35.135 34.5687 37.2172 38.1454 38.1113 43.2109H40.7919V22.0556H38.1113C37.2155 27.1228 35.135 30.6977 30.6679 30.6977L23.5236 30.9972C23.5236 20.8628 23.8211 11.3256 24.1203 5.66278H34.54C42.5818 5.66278 46.7497 10.7283 49.7261 19.6717L52.7042 18.7767L52.405 1.19108Z" fill="white"/>
<path d="M69.2572 17.9027C84.1512 17.9027 91.5973 28.0323 91.5973 41.4375C91.5973 54.2474 83.2567 64.9757 68.3628 64.9757C53.4705 64.9757 46.0244 54.8444 46.0244 41.4375C46.0244 28.6276 54.3632 17.9027 69.2572 17.9027ZM68.3628 20.8824C61.8094 20.8824 60.0222 29.8198 60.0222 41.4375C60.0222 52.7576 63.0014 61.9926 68.9596 61.9926C75.8055 61.9926 77.596 53.0552 77.596 41.4375C77.596 30.1174 74.6203 20.8824 68.3628 20.8824ZM179.463 41.7368C179.463 29.5222 187.207 17.9027 202.398 17.9027C214.905 17.9027 220.865 27.1394 220.865 39.3524H193.163C192.864 50.3749 198.225 58.4193 208.95 58.4193C213.716 58.4193 216.098 57.2306 219.079 55.1437L220.268 56.6319C217.289 60.8021 210.737 64.9757 202.398 64.9757C188.994 64.974 179.463 55.4414 179.463 41.7368ZM193.163 36.0768L207.163 35.7775C207.163 29.8198 206.268 20.8824 201.206 20.8824C196.144 20.8824 193.459 29.2228 193.163 36.0768ZM256.315 20.2872C252.741 18.7956 247.976 17.9027 242.615 17.9027C231.596 17.9027 224.742 24.4557 224.742 32.2025C224.742 39.9494 229.8 43.225 236.958 45.6094C244.402 48.288 246.488 50.3749 246.488 53.9498C246.488 57.5247 243.807 60.8003 239.04 60.8003C233.383 60.8003 229.21 57.5247 225.935 48.5857L223.849 49.1844L224.148 62.2919C227.723 63.78 234.274 64.974 239.935 64.974C251.552 64.974 259 59.0129 259 49.7796C259 43.5226 255.722 39.9494 247.978 36.968C239.636 33.6924 236.66 31.6073 236.66 27.733C236.66 23.8604 239.345 21.1783 242.919 21.1783C248.277 21.1783 251.851 24.4557 254.536 32.5001L256.619 31.9049L256.315 20.2872ZM130.317 19.095C125.255 16.1187 116.318 17.6051 111.553 28.3317L111.849 17.9045L91.8949 21.777V23.5645L93.9796 23.8621C96.6629 24.1615 97.8514 25.6496 98.1507 29.5239C98.7459 36.6738 98.4483 49.1878 98.1507 55.4431C97.8514 59.0146 96.6629 60.8021 93.9796 61.1014L91.8949 61.4007V63.7835H119.595V61.4007L116.02 61.1014C113.043 60.8021 112.149 59.0146 111.849 55.4431C111.254 49.7813 111.254 38.4612 111.553 31.3114C113.041 29.2245 119.595 27.4388 125.551 31.3114L130.317 19.095Z" fill="white"/>
</svg>
