<svg width="338" height="80" viewBox="0 0 338 80" fill="none" xmlns="http://www.w3.org/2000/svg">
<path d="M49.0664 57.573L34.983 63.7134V63.0937C32.279 63.7697 29.237 64.164 26.4204 64.333C13.1257 64.2204 2.64767 57.235 2.47867 49.0104V45.9684C6.81634 52.2777 15.717 56.559 26.4204 56.39C30.0257 56.559 33.7437 55.9957 36.842 55.1507L38.0814 52.1087C34.4197 53.2354 30.3637 53.9677 26.4204 53.9677C13.1257 53.9677 2.64767 47.0387 2.47867 38.645V36.1663C6.81634 42.025 15.717 46.25 26.4204 45.9684C31.265 46.25 35.9407 45.236 39.9404 43.4897L40.5601 40.4477C36.673 42.4757 31.6594 43.6587 26.4767 43.4897C13.182 43.6587 2.704 36.7297 2.535 28.167V25.6883C6.87268 31.6597 15.7734 35.941 26.4767 36.11C32.5607 35.941 38.3067 34.3073 43.0387 31.8287L43.6584 28.167C39.377 31.3217 33.124 33.406 26.4767 33.6877C13.182 33.406 2.704 26.4207 2.535 17.7453C2.64767 9.46431 13.182 2.5353 26.4767 2.42263C34.3634 2.5353 41.7431 5.29563 46.0807 9.80231L46.5314 10.5346H49.6297L49.1791 9.80231C44.8414 3.8873 36.1097 0.000293675 26.4767 0.000293675C11.7173 -0.0560397 0 7.99964 0 17.689V18.3087V49.5737C0.507001 59.0377 11.9427 66.7554 26.364 66.7554C35.8844 66.8117 44.5034 63.0374 49.0664 57.573Z" fill="white"/>
<path d="M43.32 79.1487L48.2773 58.08L34.025 64.2767L42.7003 27.7726H26.0256L30.3633 9.80225H83.5984L79.2607 27.7726H61.91L58.192 37.6873L77.4017 29.6316L43.32 79.1487ZM51.9953 53.7986L49.5167 66.192L69.9657 35.2649L53.2347 42.701L60.6707 25.3503H77.4017L80.5 12.3372H32.166L29.0676 25.3503H45.7987L37.743 59.9953L51.9953 53.7986Z" fill="white"/>
<path d="M118.919 21.8576V21.914C118.976 23.8856 118.356 25.4066 117.117 26.5333C115.877 27.66 114.187 28.2233 111.99 28.2233C109.793 28.2233 107.991 27.491 106.639 26.0826C105.287 24.6743 104.611 22.8153 104.611 20.562V16.9003C104.611 14.647 105.287 12.788 106.582 11.3796C107.934 9.97129 109.681 9.23895 111.821 9.23895C114.075 9.23895 115.821 9.80228 117.117 10.8726C118.412 11.9993 119.032 13.5203 118.976 15.492V15.5483H115.37C115.37 14.3653 115.089 13.464 114.525 12.9006C113.962 12.3373 113.061 12.0556 111.878 12.0556C110.751 12.0556 109.906 12.5063 109.286 13.4076C108.667 14.309 108.329 15.4356 108.329 16.844V20.562C108.329 21.9703 108.667 23.1533 109.286 24.0546C109.962 24.956 110.864 25.4066 112.047 25.4066C113.173 25.4066 113.962 25.125 114.525 24.5616C115.089 23.9983 115.37 23.097 115.37 21.914H118.919V21.8576ZM139.312 20.393C139.312 22.6463 138.58 24.5616 137.171 26.0263C135.763 27.491 133.904 28.2233 131.594 28.2233C129.285 28.2233 127.482 27.491 126.017 26.0263C124.609 24.5616 123.877 22.6463 123.877 20.393V17.0693C123.877 14.816 124.609 12.957 126.017 11.436C127.426 9.97128 129.285 9.18262 131.538 9.18262C133.848 9.18262 135.707 9.91495 137.115 11.436C138.58 12.9006 139.256 14.816 139.256 17.0693L139.312 20.393ZM135.594 17.013C135.594 15.5483 135.256 14.4216 134.524 13.464C133.791 12.5626 132.834 12.0556 131.538 12.0556C130.299 12.0556 129.285 12.5063 128.609 13.464C127.933 14.3653 127.538 15.5483 127.538 17.013V20.3366C127.538 21.8013 127.876 22.9843 128.609 23.942C129.285 24.8433 130.299 25.3503 131.538 25.3503C132.834 25.3503 133.791 24.8996 134.524 23.942C135.256 23.0406 135.594 21.8013 135.594 20.3366V17.013ZM148.889 27.9416H145.171V9.46428H148.889V27.9416ZM170.239 27.9416H166.521L159.085 15.492H159.029V27.9416H155.311V9.46428H159.029L166.465 21.914H166.521V9.46428H170.239V27.9416ZM188.885 12.3373H183.59V27.9416H179.872V12.3373H174.689V9.46428H188.885V12.3373ZM204.208 19.8296H197.335V25.125H205.504V27.9416H193.674V9.46428H205.504V12.3373H197.392V16.9566H204.264V19.8296H204.208ZM214.517 25.125H222.798V27.9416H210.799V9.46428H214.517V25.125ZM238.571 19.8296H231.699V25.125H239.867V27.9416H228.037V9.46428H239.867V12.3373H231.755V16.9566H238.628V19.8296H238.571ZM259.358 25.463C258.795 26.1953 257.95 26.8713 256.767 27.4346C255.64 27.998 254.176 28.2796 252.373 28.2796C250.12 28.2796 248.317 27.6036 246.909 26.1953C245.5 24.787 244.768 22.9843 244.768 20.731V16.844C244.768 14.5906 245.444 12.788 246.852 11.3796C248.204 9.97129 250.007 9.23895 252.148 9.23895C254.401 9.23895 256.147 9.80228 257.33 10.8726C258.513 11.943 259.133 13.3513 259.077 15.154V15.2103H255.584C255.584 14.2526 255.302 13.464 254.739 12.9006C254.176 12.3373 253.331 12.0556 252.26 12.0556C251.134 12.0556 250.232 12.5063 249.5 13.3513C248.824 14.2526 248.486 15.3793 248.486 16.7313V20.6183C248.486 22.0266 248.824 23.1533 249.556 24.0546C250.289 24.956 251.246 25.3503 252.429 25.3503C253.331 25.3503 254.007 25.2376 254.514 25.0686C255.021 24.8996 255.415 24.6743 255.697 24.3926V20.7873H252.148V18.196H259.415V25.463H259.358ZM268.935 20.562V27.9416H265.217V9.46428H271.639C273.723 9.46428 275.413 9.97129 276.596 10.929C277.779 11.8866 278.399 13.2386 278.399 14.9286C278.399 15.8863 278.174 16.675 277.667 17.4073C277.16 18.0833 276.427 18.6466 275.47 19.0973C276.54 19.4353 277.329 19.9423 277.836 20.731C278.286 21.4633 278.568 22.421 278.568 23.5476V24.8996C278.568 25.4066 278.624 25.97 278.793 26.5333C278.906 27.0966 279.188 27.491 279.526 27.7726V28.0543H275.695C275.357 27.7726 275.132 27.322 275.019 26.7023C274.906 26.0826 274.85 25.463 274.85 24.8996V23.604C274.85 22.7026 274.625 21.9703 274.118 21.4633C273.611 20.9563 272.878 20.6746 271.977 20.6746H268.935V20.562ZM268.935 17.7453H271.583C272.597 17.7453 273.385 17.52 273.892 17.0693C274.399 16.6186 274.681 15.999 274.681 15.0976C274.681 14.2526 274.399 13.5766 273.892 13.0696C273.385 12.5626 272.653 12.3373 271.639 12.3373H268.935V17.7453ZM294.116 23.9983H288.145L286.905 27.998H283.018L289.271 9.52062H293.046L299.243 27.998H295.355L294.116 23.9983ZM289.046 21.069H293.215L291.187 14.5343H291.13L289.046 21.069ZM307.467 21.238V27.9416H303.749V9.46428H310.847C312.988 9.46428 314.622 10.0276 315.861 11.098C317.1 12.1683 317.664 13.633 317.664 15.3793C317.664 17.1256 317.044 18.5903 315.861 19.6606C314.622 20.731 312.988 21.2943 310.847 21.2943H307.467V21.238ZM307.467 18.4213H310.847C311.861 18.4213 312.65 18.1396 313.213 17.5763C313.72 17.013 314.002 16.2806 314.002 15.4356C314.002 14.5343 313.72 13.802 313.213 13.2386C312.706 12.6753 311.918 12.3936 310.847 12.3936H307.467V18.4213ZM338 27.9416H334.282V20.2803H326.733V27.9416H323.015V9.46428H326.733V17.4073H334.282V9.46428H338V27.9416Z" fill="white"/>
<path d="M111.371 58.1364H109.061V45.9683H104.892V43.9967H115.539V45.9683H111.371V58.1364ZM126.862 58.1364H124.553V51.5453C124.553 50.7003 124.384 50.0807 124.046 49.6863C123.708 49.292 123.201 49.0667 122.468 49.0667C121.511 49.0667 120.835 49.3483 120.384 49.9117C119.933 50.475 119.708 51.4327 119.708 52.7847V58.08H117.455V43.039H119.708V46.8697C119.708 47.4893 119.652 48.109 119.595 48.8413H119.764C120.046 48.3343 120.497 47.94 121.06 47.6583C121.623 47.3767 122.243 47.2077 122.975 47.2077C125.567 47.2077 126.862 48.5033 126.862 51.151V58.1364ZM134.693 58.3054C133.003 58.3054 131.707 57.7984 130.806 56.8407C129.848 55.883 129.397 54.531 129.397 52.841C129.397 51.0947 129.848 49.7427 130.693 48.7287C131.538 47.7147 132.777 47.2077 134.298 47.2077C135.707 47.2077 136.833 47.6583 137.622 48.5033C138.467 49.3483 138.861 50.5313 138.861 52.0523V53.2917H131.707C131.763 54.3057 132.045 55.1507 132.552 55.6577C133.059 56.221 133.848 56.5027 134.805 56.5027C135.425 56.5027 136.045 56.4464 136.552 56.3337C137.115 56.221 137.678 55.9957 138.298 55.714V57.573C137.735 57.8547 137.171 58.0237 136.608 58.1364C136.101 58.249 135.425 58.3054 134.693 58.3054ZM134.298 48.954C133.566 48.954 133.003 49.1793 132.552 49.63C132.101 50.0807 131.876 50.7567 131.763 51.658H136.608C136.608 50.7567 136.383 50.0807 135.988 49.63C135.594 49.1793 135.031 48.954 134.298 48.954ZM151.931 49.123H149.339V58.1364H147.03V49.123H145.283V48.0527L147.03 47.3767V46.7007C147.03 45.4613 147.311 44.5037 147.931 43.884C148.551 43.2643 149.452 42.9827 150.635 42.9827C151.424 42.9827 152.212 43.0953 153.001 43.377L152.381 45.1233C151.818 44.9543 151.311 44.8417 150.748 44.8417C150.241 44.8417 149.846 45.0107 149.621 45.2923C149.396 45.6303 149.283 46.081 149.283 46.7007V47.3767H151.874L151.931 49.123ZM161.338 58.1364L161 56.728H160.888C160.55 57.235 160.099 57.6294 159.536 57.911C158.972 58.1927 158.296 58.3617 157.564 58.3617C156.268 58.3617 155.311 58.0237 154.635 57.404C153.959 56.7844 153.677 55.7704 153.677 54.4747V47.433H155.987V54.024C155.987 54.869 156.156 55.4324 156.494 55.883C156.832 56.2774 157.339 56.5027 158.071 56.5027C159.029 56.5027 159.705 56.221 160.155 55.6577C160.606 55.0943 160.831 54.1367 160.831 52.7847V47.433H163.141V58.1364H161.338ZM170.352 56.4464C170.915 56.4464 171.478 56.3337 172.042 56.1647V57.8547C171.816 57.9674 171.478 58.08 171.084 58.1364C170.69 58.1927 170.295 58.249 169.845 58.249C167.704 58.249 166.634 57.1224 166.634 54.869V49.123H165.169V48.109L166.746 47.264L167.535 45.0107H168.943V47.3767H171.985V49.123H168.943V54.869C168.943 55.4323 169.056 55.8267 169.338 56.1084C169.507 56.3337 169.901 56.4464 170.352 56.4464ZM181.675 58.1364L181.337 56.728H181.224C180.886 57.235 180.435 57.6294 179.872 57.911C179.309 58.1927 178.633 58.3617 177.9 58.3617C176.605 58.3617 175.647 58.0237 174.971 57.404C174.351 56.7844 174.013 55.7704 174.013 54.4747V47.433H176.323V54.024C176.323 54.869 176.492 55.4324 176.83 55.883C177.168 56.2774 177.675 56.5027 178.407 56.5027C179.365 56.5027 180.041 56.221 180.492 55.6577C180.942 55.0943 181.168 54.1367 181.168 52.7847V47.433H183.477V58.1364H181.675ZM192.153 47.2077C192.603 47.2077 192.998 47.264 193.279 47.3203L193.054 49.461C192.716 49.4047 192.378 49.3483 192.04 49.3483C191.139 49.3483 190.406 49.63 189.843 50.2497C189.28 50.8693 188.998 51.6017 188.998 52.5593V58.1364H186.745V47.433H188.547L188.829 49.292H188.942C189.28 48.6723 189.787 48.1653 190.35 47.771C190.857 47.433 191.477 47.2077 192.153 47.2077ZM199.532 58.3054C197.842 58.3054 196.547 57.7984 195.645 56.8407C194.688 55.883 194.237 54.531 194.237 52.841C194.237 51.0947 194.688 49.7427 195.533 48.7287C196.378 47.7147 197.617 47.2077 199.138 47.2077C200.546 47.2077 201.673 47.6583 202.462 48.5033C203.307 49.3483 203.701 50.5313 203.701 52.0523V53.2917H196.547C196.603 54.3057 196.885 55.1507 197.392 55.6577C197.899 56.221 198.687 56.5027 199.645 56.5027C200.265 56.5027 200.884 56.4464 201.391 56.3337C201.955 56.221 202.518 55.9957 203.138 55.714V57.573C202.574 57.8547 202.011 58.0237 201.448 58.1364C200.884 58.249 200.265 58.3054 199.532 58.3054ZM199.138 48.954C198.406 48.954 197.842 49.1793 197.392 49.63C196.941 50.0807 196.716 50.7567 196.603 51.658H201.448C201.448 50.7567 201.222 50.0807 200.828 49.63C200.377 49.1793 199.814 48.954 199.138 48.954ZM220.883 52.7283C220.883 54.4747 220.432 55.8267 219.531 56.8407C218.629 57.7984 217.39 58.3054 215.813 58.3054C214.799 58.3054 213.954 58.08 213.165 57.6294C212.376 57.1787 211.813 56.5027 211.419 55.6577C211.024 54.8127 210.799 53.855 210.799 52.7283C210.799 50.982 211.25 49.63 212.151 48.6723C213.052 47.7147 214.292 47.2077 215.925 47.2077C217.446 47.2077 218.686 47.7147 219.587 48.7287C220.488 49.7427 220.883 51.0383 220.883 52.7283ZM213.109 52.7283C213.109 55.207 214.01 56.4464 215.869 56.4464C217.672 56.4464 218.573 55.207 218.573 52.7283C218.573 50.306 217.672 49.0667 215.869 49.0667C214.911 49.0667 214.235 49.4047 213.785 50.0243C213.334 50.644 213.109 51.5453 213.109 52.7283ZM228.882 49.123H226.291V58.1364H223.981V49.123H222.235V48.0527L223.981 47.3767V46.7007C223.981 45.4613 224.263 44.5037 224.882 43.884C225.502 43.2643 226.404 42.9827 227.587 42.9827C228.375 42.9827 229.164 43.0953 229.953 43.377L229.333 45.1233C228.77 44.9543 228.263 44.8417 227.699 44.8417C227.192 44.8417 226.798 45.0107 226.573 45.2923C226.347 45.574 226.235 46.081 226.235 46.7007V47.3767H228.826V49.123H228.882ZM244.881 58.1364H242.571V51.5453C242.571 50.7003 242.402 50.137 242.121 49.6863C241.839 49.292 241.332 49.0667 240.656 49.0667C239.755 49.0667 239.135 49.3483 238.741 49.9117C238.346 50.475 238.121 51.4327 238.121 52.7847V58.1364H235.868V47.433H237.67L238.008 48.8413H238.121C238.403 48.3343 238.853 47.94 239.417 47.6583C239.98 47.3767 240.6 47.264 241.276 47.264C242.909 47.264 244.036 47.8273 244.543 48.954H244.712C245.05 48.447 245.501 47.9963 246.064 47.7147C246.627 47.433 247.303 47.264 248.036 47.264C249.331 47.264 250.233 47.602 250.852 48.2217C251.416 48.8413 251.754 49.8553 251.754 51.151V58.1364H249.5V51.5453C249.5 50.7003 249.331 50.137 249.05 49.6863C248.712 49.292 248.261 49.0667 247.585 49.0667C246.684 49.0667 246.064 49.3483 245.67 49.9117C245.275 50.475 245.05 51.32 245.05 52.4467V58.1364H244.881ZM264.26 52.7283C264.26 54.4747 263.809 55.8267 262.908 56.8407C262.006 57.7984 260.767 58.3054 259.19 58.3054C258.176 58.3054 257.331 58.08 256.542 57.6294C255.753 57.1787 255.19 56.5027 254.796 55.6577C254.401 54.8127 254.176 53.855 254.176 52.7283C254.176 50.982 254.627 49.63 255.528 48.6723C256.429 47.7147 257.669 47.2077 259.302 47.2077C260.823 47.2077 262.063 47.7147 262.964 48.7287C263.809 49.7427 264.26 51.0383 264.26 52.7283ZM256.486 52.7283C256.486 55.207 257.387 56.4464 259.246 56.4464C261.049 56.4464 261.95 55.207 261.95 52.7283C261.95 50.306 261.049 49.0667 259.246 49.0667C258.288 49.0667 257.612 49.4047 257.162 50.0243C256.711 50.644 256.486 51.5453 256.486 52.7283ZM276.315 58.1364H274.005V51.5453C274.005 50.7003 273.836 50.0807 273.498 49.6863C273.16 49.292 272.653 49.0667 271.921 49.0667C270.963 49.0667 270.231 49.3483 269.837 49.9117C269.442 50.475 269.161 51.4327 269.161 52.7847V58.1364H266.907V47.433H268.71L269.048 48.8413H269.161C269.499 48.3343 269.949 47.94 270.513 47.6583C271.076 47.3767 271.752 47.264 272.484 47.264C275.076 47.264 276.315 48.5597 276.315 51.2073V58.1364ZM284.145 58.3054C282.455 58.3054 281.16 57.7984 280.258 56.8407C279.301 55.883 278.85 54.531 278.85 52.841C278.85 51.0947 279.301 49.7427 280.146 48.7287C280.991 47.7147 282.23 47.2077 283.751 47.2077C285.159 47.2077 286.286 47.6583 287.075 48.5033C287.92 49.3483 288.314 50.5313 288.314 52.0523V53.2917H281.16C281.216 54.3057 281.498 55.1507 282.005 55.6577C282.512 56.221 283.3 56.5027 284.258 56.5027C284.878 56.5027 285.497 56.4464 286.004 56.3337C286.511 56.221 287.131 55.9957 287.751 55.714V57.573C287.187 57.8547 286.624 58.0237 286.061 58.1364C285.497 58.249 284.878 58.3054 284.145 58.3054ZM283.695 48.954C282.962 48.954 282.399 49.1793 281.948 49.63C281.498 50.0807 281.272 50.7567 281.16 51.658H286.004C286.004 50.7567 285.779 50.0807 285.385 49.63C284.99 49.1793 284.427 48.954 283.695 48.954ZM288.877 47.433H291.356L293.553 53.517C293.891 54.362 294.116 55.207 294.229 55.9394H294.285C294.342 55.6013 294.454 55.1507 294.623 54.6437C294.792 54.1367 295.581 51.7143 297.102 47.433H299.581L295.018 59.5447C294.173 61.7417 292.821 62.8684 290.849 62.8684C290.342 62.8684 289.835 62.812 289.384 62.6994V60.8967C289.722 60.953 290.117 61.0094 290.567 61.0094C291.638 61.0094 292.426 60.3897 292.877 59.094L293.271 58.08L288.877 47.433Z" fill="white"/>
</svg>
