<svg width="177" height="165" viewBox="0 0 177 165" fill="none" xmlns="http://www.w3.org/2000/svg">
<circle cx="100.469" cy="76.6174" r="76.1677" fill="url(#paint0_linear)"/>
<circle cx="38.9091" cy="125.135" r="27.6499" transform="rotate(140.705 38.9091 125.135)" fill="url(#paint1_linear)"/>
<path d="M74.7927 67.0286C77.4397 67.0286 79.5855 64.8091 79.5855 62.0712C79.5855 59.3333 77.4397 57.1138 74.7927 57.1138C72.1458 57.1138 70 59.3333 70 62.0712C70 64.8091 72.1458 67.0286 74.7927 67.0286Z" fill="white"/>
<path d="M74.7927 80.8315C77.4397 80.8315 79.5855 78.6126 79.5855 75.8755C79.5855 73.1383 77.4397 70.9194 74.7927 70.9194C72.1458 70.9194 70 73.1383 70 75.8755C70 78.6126 72.1458 80.8315 74.7927 80.8315Z" fill="white"/>
<path d="M74.7927 94.6368C77.4397 94.6368 79.5855 92.4172 79.5855 89.6793C79.5855 86.9413 77.4397 84.7217 74.7927 84.7217C72.1458 84.7217 70 86.9413 70 89.6793C70 92.4172 72.1458 94.6368 74.7927 94.6368Z" fill="white"/>
<path d="M97.1611 57.1138H85.2515V64.6215H97.1611" fill="#222230"/>
<path d="M97.1611 79.6298H85.2515V72.1206H97.1611" fill="#222230"/>
<path d="M97.1611 87.1265H85.2515V94.6356H97.1611" fill="#222230"/>
<path d="M97.1611 49.4497V57.1159H116.195V64.6257H97.1611V72.1212H116.195V79.631H97.1611V87.1265H116.195V94.6363H97.1611V103.682H123.16V49.4497H97.1611Z" fill="#222230"/>
<defs>
<linearGradient id="paint0_linear" x1="9.4334" y1="44.7939" x2="165.421" y2="169.479" gradientUnits="userSpaceOnUse">
<stop stop-color="#08D795"/>
<stop offset="1" stop-color="#3D57ED"/>
</linearGradient>
<linearGradient id="paint1_linear" x1="5.86178" y1="113.583" x2="62.4873" y2="158.846" gradientUnits="userSpaceOnUse">
<stop stop-color="#08D795"/>
<stop offset="1" stop-color="#3D57ED"/>
</linearGradient>
</defs>
</svg>
