<svg width="133" height="128" viewBox="0 0 133 128" fill="none" xmlns="http://www.w3.org/2000/svg">
<path d="M105.317 64.6332V40.8289C105.317 33.0598 99.2257 26.7485 91.7275 26.7485H40.8709C33.3727 26.7485 27.2814 33.0598 27.2814 40.8289V60.8894C14.4754 56.1518 5.2665 43.4959 5.2665 28.6203V3.35832C5.2665 1.98341 4.19533 0.873535 2.86836 0.873535C1.54138 0.873535 0.470215 1.98341 0.470215 3.35832V28.6203C0.470215 46.2789 11.7735 61.2373 27.2814 66.1572V77.7197C27.2814 92.1646 36.9859 105.831 56.9544 119.464C59.1927 120.988 61.7827 121.8 64.6125 121.8H68.1298C70.7837 121.8 73.3737 120.988 75.6439 119.464C95.6125 105.831 105.317 92.1812 105.317 77.7197V69.9009C118.123 74.6386 127.332 87.2944 127.332 102.17V125.378C127.332 126.753 128.403 127.863 129.73 127.863C131.057 127.863 132.128 126.753 132.128 125.378V102.17C132.128 84.5115 120.825 69.5531 105.317 64.6332ZM32.0777 40.8289C32.0777 35.8097 36.0267 31.718 40.8709 31.718H91.7275C96.5717 31.718 100.521 35.8097 100.521 40.8289V63.457C98.4743 63.1092 96.3799 62.9104 94.2375 62.9104H66.3072C66.3072 62.9104 66.3072 62.9104 66.2912 62.9104C66.2752 62.9104 66.2912 62.9104 66.2752 62.9104H38.3608C36.2185 62.9104 34.1081 62.6785 32.0777 62.2644V40.8289ZM100.521 77.7197C100.521 90.359 91.5196 102.667 73.006 115.306C71.5351 116.3 69.8564 116.83 67.9859 116.83H64.4686C62.7419 116.83 61.0473 116.317 59.6084 115.323C41.0787 102.667 32.0777 90.3756 32.0777 77.7197V67.3333C34.1241 67.6812 36.2185 67.88 38.3608 67.88H66.2912C66.2912 67.88 66.2912 67.88 66.3072 67.88C66.3232 67.88 66.3072 67.88 66.3232 67.88H94.2535C96.3959 67.88 98.5062 68.1119 100.537 68.526V77.7197H100.521Z" fill="url(#paint0_linear)"/>
<defs>
<linearGradient id="paint0_linear" x1="159.557" y1="0.873535" x2="28.0934" y2="123.823" gradientUnits="userSpaceOnUse">
<stop stop-color="#2E2E42"/>
<stop offset="0.870195" stop-color="#2E2E42" stop-opacity="0"/>
</linearGradient>
</defs>
</svg>
