<?xml version="1.0" encoding="utf-8"?>
<!-- Generator: Adobe Illustrator 25.2.1, SVG Export Plug-In . SVG Version: 6.00 Build 0)  -->
<svg version="1.1" id="Layer_1" xmlns="http://www.w3.org/2000/svg" xmlns:xlink="http://www.w3.org/1999/xlink" x="0px" y="0px"
	 viewBox="0 0 512 512" style="enable-background:new 0 0 512 512;" xml:space="preserve">
<style type="text/css">
	.st0{fill:url(#SVGID_1_);}
	.st1{fill:#FFFFFF;}
</style>
<linearGradient id="SVGID_1_" gradientUnits="userSpaceOnUse" x1="45.3468" y1="-1.0683" x2="281.2011" y2="286.7538">
	<stop  offset="0" style="stop-color:#03E38D"/>
	<stop  offset="0.1012" style="stop-color:#08D795"/>
	<stop  offset="0.284" style="stop-color:#15B7AB"/>
	<stop  offset="0.5258" style="stop-color:#2A84CE"/>
	<stop  offset="0.7163" style="stop-color:#3D57ED"/>
	<stop  offset="1" style="stop-color:#3D25ED"/>
</linearGradient>
<path class="st0" d="M400.8,449.4H111.2c-26.9,0-48.6-21.8-48.6-48.6V111.2c0-26.9,21.8-48.6,48.6-48.6h289.5
	c26.9,0,48.6,21.8,48.6,48.6v289.5C449.4,427.6,427.6,449.4,400.8,449.4z"/>
<path class="st1" d="M381.5,252.8l-10.7-6.7c-0.1-1-0.2-2.1-0.3-3.1l9.2-8.7c0.5-0.4,0.8-1,1-1.6c0.2-0.6,0.2-1.2,0.1-1.9
	c-0.1-0.6-0.4-1.2-0.8-1.7c-0.4-0.5-0.9-0.9-1.5-1.1l-11.7-4.4c-0.3-1-0.6-2.1-0.9-3.1l7.3-10.3c0.4-0.5,0.6-1.1,0.7-1.7
	c0.1-0.6,0-1.3-0.2-1.9c-0.2-0.6-0.6-1.1-1.1-1.5c-0.5-0.4-1.1-0.7-1.7-0.7l-12.4-2c-0.5-0.9-1-1.9-1.5-2.8l5.2-11.5
	c0.3-0.6,0.4-1.2,0.3-1.8c-0.1-0.6-0.3-1.2-0.6-1.8c-0.4-0.5-0.8-1-1.4-1.2s-1.2-0.4-1.8-0.4l-12.6,0.5c-0.6-0.8-1.3-1.7-2-2.5
	l2.9-12.4c0.1-0.6,0.1-1.3,0-1.9c-0.2-0.6-0.5-1.2-0.9-1.6c-0.4-0.5-1-0.8-1.6-1c-0.6-0.2-1.2-0.2-1.9,0l-12.2,2.9
	c-0.8-0.7-1.6-1.4-2.4-2l0.5-12.7c0-0.6-0.1-1.3-0.4-1.8c-0.3-0.6-0.7-1-1.2-1.4c-0.5-0.4-1.1-0.6-1.7-0.6c-0.6-0.1-1.3,0.1-1.8,0.3
	l-11.4,5.3c-0.9-0.5-1.8-1-2.8-1.5l-2-12.5c-0.1-0.6-0.4-1.2-0.8-1.7c-0.4-0.5-0.9-0.9-1.5-1.1c-0.6-0.2-1.2-0.3-1.8-0.3
	c-0.6,0.1-1.2,0.3-1.7,0.7l-10.1,7.4c-1-0.3-2-0.6-3-0.9l-4.4-11.8c-0.2-0.6-0.6-1.1-1.1-1.5c-0.5-0.4-1-0.7-1.7-0.8
	c-0.6-0.1-1.2-0.1-1.8,0.1c-0.6,0.2-1.1,0.5-1.6,1l-8.6,9.3c-1-0.1-2.1-0.3-3.1-0.3l-6.6-10.8c-0.3-0.5-0.8-1-1.3-1.3
	c-0.5-0.3-1.2-0.5-1.8-0.5c-0.6,0-1.2,0.2-1.8,0.5c-0.5,0.3-1,0.8-1.3,1.3l-6.6,10.8c-1.1,0.1-2.1,0.2-3.1,0.3l-8.6-9.3
	c-0.4-0.5-1-0.8-1.6-1c-0.6-0.2-1.2-0.2-1.9-0.1c-0.6,0.1-1.2,0.4-1.7,0.8c-0.5,0.4-0.8,0.9-1.1,1.5l-4.4,11.8c-1,0.3-2,0.6-3.1,0.9
	l-10.1-7.4c-0.5-0.4-1.1-0.6-1.7-0.7c-0.6-0.1-1.3,0-1.8,0.3c-0.6,0.2-1.1,0.6-1.5,1.1c-0.4,0.5-0.6,1.1-0.8,1.7l-2,12.5
	c-0.9,0.5-1.8,1-2.8,1.5l-11.4-5.3c-0.6-0.3-1.2-0.4-1.8-0.3c-0.6,0.1-1.2,0.3-1.7,0.6c-0.5,0.4-0.9,0.8-1.2,1.4
	c-0.3,0.6-0.4,1.2-0.4,1.8l0.4,12.7c-0.8,0.6-1.6,1.3-2.4,2l-12.2-2.9c-0.6-0.1-1.2-0.1-1.8,0.1c-0.6,0.2-1.1,0.5-1.6,1
	c-0.4,0.5-0.8,1-0.9,1.6c-0.2,0.6-0.2,1.3,0,1.9l2.9,12.4c-0.7,0.8-1.3,1.6-2,2.5l-12.5-0.5c-0.6,0-1.2,0.1-1.8,0.4
	c-0.6,0.3-1,0.7-1.4,1.2c-0.3,0.5-0.6,1.1-0.6,1.8c-0.1,0.6,0.1,1.3,0.3,1.8l5.2,11.5l-1.5,2.8l-12.4,2c-0.6,0.1-1.2,0.4-1.7,0.8
	c-0.5,0.4-0.9,0.9-1.1,1.5c-0.2,0.6-0.3,1.2-0.3,1.9c0.1,0.6,0.3,1.2,0.7,1.7l7.3,10.3c-0.3,1-0.6,2.1-0.9,3.1l-11.7,4.4
	c-0.6,0.2-1.1,0.6-1.5,1.1c-0.4,0.5-0.7,1.1-0.8,1.7c-0.1,0.6-0.1,1.3,0.1,1.9c0.2,0.6,0.5,1.2,1,1.6l9.2,8.7
	c-0.1,1-0.2,2.1-0.3,3.1l-10.7,6.7c-0.5,0.3-1,0.8-1.3,1.3c-0.3,0.6-0.5,1.2-0.5,1.8c0,0.6,0.2,1.3,0.5,1.8c0.3,0.6,0.8,1,1.3,1.3
	l10.7,6.7c0.1,1.1,0.2,2.1,0.3,3.1l-9.2,8.7c-0.5,0.4-0.8,1-1,1.6s-0.2,1.2-0.1,1.9c0.1,0.6,0.4,1.2,0.8,1.7
	c0.4,0.5,0.9,0.9,1.5,1.1l11.7,4.5c0.3,1,0.6,2,0.9,3.1l-7.3,10.3c-0.4,0.5-0.6,1.1-0.7,1.8c-0.1,0.6,0,1.3,0.3,1.9
	c0.2,0.6,0.6,1.1,1.1,1.5c0.5,0.4,1.1,0.7,1.7,0.8l12.4,2c0.5,0.9,1,1.9,1.5,2.8l-5.2,11.5c-0.3,0.6-0.4,1.2-0.3,1.8
	c0.1,0.6,0.3,1.2,0.6,1.8c0.3,0.5,0.8,1,1.4,1.2c0.6,0.3,1.2,0.4,1.8,0.4l12.5-0.4c0.7,0.8,1.3,1.6,2,2.4l-2.9,12.4
	c-0.1,0.6-0.1,1.3,0,1.9c0.2,0.6,0.5,1.2,0.9,1.6c0.4,0.4,1,0.8,1.6,0.9c0.6,0.2,1.2,0.2,1.8,0l12.2-2.9c0.8,0.7,1.6,1.3,2.4,2
	l-0.5,12.7c0,0.6,0.1,1.3,0.4,1.8c0.3,0.6,0.7,1.1,1.2,1.4c0.5,0.4,1.1,0.6,1.8,0.6c0.6,0,1.3-0.1,1.8-0.3l11.4-5.3
	c0.9,0.5,1.8,1,2.8,1.5l2.1,12.5c0.1,0.6,0.4,1.2,0.7,1.7c0.4,0.5,0.9,0.9,1.5,1.1c0.6,0.2,1.2,0.3,1.8,0.3s1.2-0.3,1.7-0.7
	l10.2-7.4c1,0.3,2,0.6,3,0.9l4.4,11.9c0.2,0.6,0.6,1.1,1,1.5c0.5,0.4,1,0.7,1.7,0.8c0.6,0.1,1.3,0.1,1.9-0.1c0.6-0.2,1.1-0.6,1.6-1
	l8.6-9.3c1,0.1,2.1,0.3,3.1,0.3l6.6,10.8c0.3,0.5,0.8,1,1.3,1.3c0.5,0.3,1.2,0.5,1.8,0.5c0.6,0,1.2-0.2,1.8-0.5
	c0.5-0.3,1-0.8,1.3-1.3l6.6-10.8c1.1-0.1,2.1-0.2,3.1-0.3l8.6,9.3c0.4,0.5,1,0.8,1.6,1c0.6,0.2,1.2,0.2,1.8,0.1
	c0.6-0.1,1.2-0.4,1.7-0.8c0.5-0.4,0.8-0.9,1.1-1.5l4.4-11.9c1-0.3,2-0.6,3-0.9l10.1,7.4c0.5,0.4,1.1,0.6,1.7,0.7
	c0.6,0.1,1.3,0,1.8-0.3s1.1-0.6,1.5-1.1c0.4-0.5,0.6-1.1,0.7-1.7l2-12.5c1-0.5,1.9-1,2.8-1.5l11.4,5.3c0.6,0.3,1.2,0.4,1.8,0.3
	c0.6-0.1,1.2-0.3,1.7-0.6c0.5-0.4,0.9-0.8,1.2-1.4c0.3-0.6,0.4-1.2,0.4-1.8l-0.5-12.7c0.8-0.7,1.6-1.3,2.4-2l12.2,2.9
	c0.6,0.1,1.2,0.1,1.8,0c0.6-0.2,1.1-0.5,1.6-0.9c0.4-0.4,0.8-1,0.9-1.6c0.2-0.6,0.2-1.2,0.1-1.9l-2.9-12.4c0.7-0.8,1.3-1.6,2-2.4
	l12.6,0.4c0.6,0,1.2-0.1,1.8-0.4c0.6-0.3,1-0.7,1.4-1.2c0.3-0.5,0.6-1.1,0.6-1.8c0-0.6-0.1-1.3-0.3-1.8l-5.2-11.5
	c0.5-0.9,1-1.9,1.5-2.8l12.4-2c0.6-0.1,1.2-0.4,1.7-0.8c0.5-0.4,0.9-0.9,1.1-1.5c0.2-0.6,0.3-1.2,0.3-1.9c-0.1-0.6-0.3-1.2-0.7-1.7
	l-7.3-10.3l0.9-3.1l11.7-4.5c0.6-0.2,1.1-0.6,1.5-1.1c0.4-0.5,0.7-1.1,0.8-1.7c0.1-0.6,0.1-1.3-0.1-1.9c-0.2-0.6-0.5-1.2-1-1.6
	l-9.2-8.7c0.1-1,0.2-2.1,0.3-3.1l10.7-6.7c0.5-0.3,1-0.8,1.3-1.3c0.3-0.6,0.5-1.2,0.5-1.8c0-0.6-0.2-1.3-0.5-1.8
	C382.4,253.6,382,253.2,381.5,252.8L381.5,252.8z M310,342.5c-9.9-2.1-6.7-17.1,3.2-15c2,0.4,3.7,1.6,4.8,3.3c1.1,1.7,1.5,3.8,1,5.8
	c-0.4,2-1.6,3.7-3.3,4.8C314,342.5,311.9,342.9,310,342.5z M306.4,317.6c-0.9-0.2-1.8-0.2-2.7,0c-0.9,0.2-1.7,0.5-2.5,1
	c-0.8,0.5-1.4,1.1-1.9,1.9c-0.5,0.8-0.9,1.6-1.1,2.5l-3.8,17.9c-12,5.5-25.1,8.4-38.4,8.4c-13.5,0-26.9-3-39.2-8.7l-3.8-17.9
	c-0.2-0.9-0.5-1.8-1.1-2.5c-0.5-0.8-1.2-1.4-1.9-1.9c-0.8-0.5-1.6-0.8-2.5-1c-0.9-0.2-1.8-0.1-2.7,0.1l-15.6,3.3
	c-2.9-3-5.6-6.2-8.1-9.6h76c0.8,0,1.4-0.1,1.4-0.9v-27.2c0-0.8-0.6-0.9-1.4-0.9h-22.3v-17.3H259c2.2,0,11.7,0.6,14.8,13
	c1,3.8,3.1,16.1,4.5,20.1c1.4,4.5,7.3,13.3,13.5,13.3h37.9c0.5,0,0.9,0,1.4-0.1c-2.6,3.6-5.5,7-8.6,10.2L306.4,317.6z M201.3,342.1
	c-2,0.4-4,0-5.7-1.1c-1.7-1.1-2.9-2.8-3.3-4.8c-0.2-1-0.2-2-0.1-3c0.2-1,0.5-1.9,1.1-2.8c0.5-0.8,1.2-1.6,2.1-2.1
	c0.8-0.6,1.7-1,2.7-1.2c2-0.4,4,0,5.7,1.1c1.7,1.1,2.9,2.8,3.3,4.8c0.4,2,0,4.1-1,5.8C204.9,340.5,203.2,341.7,201.3,342.1
	L201.3,342.1z M172.4,223.8c0.4,0.9,0.7,1.9,0.7,3c0,1-0.1,2.1-0.5,3s-0.9,1.8-1.6,2.6c-0.7,0.8-1.5,1.4-2.4,1.8
	c-0.9,0.4-1.9,0.6-2.9,0.6c-1,0-2-0.2-3-0.6c-0.9-0.4-1.8-1-2.5-1.7c-0.7-0.7-1.3-1.6-1.7-2.5C154.9,220.9,168.2,214.9,172.4,223.8
	L172.4,223.8z M163.6,245l16.3-7.3c3.5-1.6,5-5.7,3.5-9.2l-3.4-7.7h13.2V281h-26.6C163.3,269.3,162.3,257.1,163.6,245L163.6,245z
	 M235,239.2v-17.7h31.4c1.6,0,11.4,1.9,11.4,9.3c0,6.2-7.5,8.4-13.7,8.4L235,239.2z M349,255.2c0,2.3-0.1,4.7-0.2,7h-9.6
	c-1,0-1.3,0.6-1.3,1.6v4.4c0,10.4-5.8,12.7-10.9,13.3c-4.9,0.6-10.2-2-10.9-5.1c-2.9-16.3-7.6-19.8-15.2-25.8
	c9.3-6,19.1-14.9,19.1-26.7c0-12.8-8.7-20.9-14.6-24.8c-8.3-5.6-17.5-6.7-20-6.7h-98.6c13.6-15.4,31.9-25.9,52-29.8l11.7,12.4
	c0.6,0.7,1.4,1.2,2.2,1.6c0.8,0.4,1.7,0.6,2.6,0.6c0.9,0,1.8-0.1,2.6-0.5c0.8-0.3,1.6-0.8,2.3-1.5l13-12.6
	c13.3,2.5,25.8,7.9,36.8,15.8c11,7.9,20.2,18.2,26.8,30l-8.9,20.4c-0.7,1.7-0.8,3.6-0.1,5.3c0.7,1.7,2,3.1,3.6,3.9l17.2,7.7
	C348.8,248.9,349,252,349,255.2L349,255.2z M250.4,152.1c7.3-7,17.7,4,10.4,11.1C253.6,169.6,243.8,159.2,250.4,152.1z M338.8,224.1
	c0.8-1.9,2.3-3.3,4.2-4c1.9-0.7,3.9-0.7,5.8,0.1c6.2,2.8,6,11.7-0.3,14.2C342.1,236.9,336.1,230.4,338.8,224.1L338.8,224.1z"/>
</svg>
