<svg width="32" height="33" viewBox="0 0 32 33" fill="none" xmlns="http://www.w3.org/2000/svg">
<path fill-rule="evenodd" clip-rule="evenodd" d="M32 16.5C32 25.336 24.836 32.5 16 32.5C7.164 32.5 0 25.336 0 16.5C0 7.664 7.164 0.5 16 0.5C24.836 0.5 32 7.664 32 16.5ZM26.2507 15.244C26.5093 15.6133 26.656 16.0493 26.672 16.5C26.679 16.9409 26.561 17.3747 26.3316 17.7513C26.1022 18.1279 25.7709 18.4319 25.376 18.628C25.3947 18.8627 25.3947 19.0973 25.376 19.332C25.376 22.916 21.2 25.828 16.048 25.828C10.896 25.828 6.72 22.916 6.72 19.332C6.70199 19.0977 6.70199 18.8623 6.72 18.628C6.4149 18.4852 6.14434 18.278 5.92692 18.0207C5.7095 17.7633 5.55038 17.462 5.4605 17.1373C5.37062 16.8126 5.3521 16.4724 5.40623 16.1399C5.46035 15.8074 5.58583 15.4905 5.77405 15.2111C5.96226 14.9317 6.20874 14.6964 6.49655 14.5213C6.78435 14.3462 7.10666 14.2355 7.44131 14.1968C7.77596 14.1582 8.11502 14.1924 8.43518 14.2972C8.75534 14.402 9.04901 14.5749 9.296 14.804C11.1396 13.5536 13.3086 12.8696 15.536 12.836L16.72 7.284C16.7333 7.21973 16.7592 7.15873 16.7963 7.10455C16.8333 7.05036 16.8807 7.00407 16.9358 6.96835C16.9909 6.93264 17.0525 6.9082 17.117 6.89647C17.1816 6.88474 17.2479 6.88594 17.312 6.9L21.232 7.684C21.4234 7.3551 21.7258 7.1052 22.0849 6.97916C22.444 6.85313 22.8362 6.8592 23.1912 6.9963C23.5462 7.1334 23.8407 7.39254 24.0219 7.72721C24.2031 8.06188 24.259 8.45016 24.1797 8.82236C24.1004 9.19455 23.891 9.52629 23.5891 9.75802C23.2872 9.98975 22.9127 10.1063 22.5326 10.0868C22.1526 10.0672 21.7919 9.91282 21.5154 9.65133C21.2389 9.38985 21.0647 9.03837 21.024 8.66L17.6 7.94L16.56 12.932C18.7603 12.9792 20.8999 13.6627 22.72 14.9C22.963 14.6664 23.2537 14.4882 23.5721 14.3776C23.8905 14.267 24.229 14.2266 24.5645 14.2593C24.9 14.292 25.2244 14.3969 25.5155 14.5669C25.8065 14.7369 26.0574 14.9679 26.2507 15.244ZM10.9413 17.2107C10.8245 17.3854 10.7433 17.5815 10.7023 17.7876C10.6613 17.9937 10.6612 18.2059 10.7022 18.4121C10.785 18.8284 11.0298 19.1948 11.3827 19.4307C11.7356 19.6665 12.1677 19.7525 12.5841 19.6698C12.7902 19.6288 12.9863 19.5476 13.161 19.4309C13.3358 19.3141 13.4859 19.1641 13.6027 18.9893C13.8385 18.6364 13.9245 18.2043 13.8418 17.7879C13.759 17.3716 13.5142 17.0052 13.1613 16.7693C12.8084 16.5335 12.3763 16.4475 11.9599 16.5302C11.5436 16.613 11.1772 16.8578 10.9413 17.2107ZM16.016 23.732C17.436 23.7907 18.8333 23.42 19.968 22.564C20.0529 22.4813 20.1014 22.3682 20.1029 22.2497C20.1044 22.1311 20.0587 22.0169 19.976 21.932C19.935 21.89 19.8862 21.8564 19.8322 21.8333C19.7783 21.8101 19.7203 21.7979 19.6617 21.7971C19.5431 21.7956 19.4289 21.8413 19.344 21.924C18.373 22.6206 17.1933 22.9649 16 22.9C14.8082 22.9533 13.634 22.5976 12.672 21.892C12.5891 21.824 12.4839 21.7892 12.3767 21.7945C12.2696 21.7997 12.1683 21.8446 12.0925 21.9205C12.0166 21.9963 11.9717 22.0976 11.9665 22.2047C11.9612 22.3119 11.996 22.4171 12.064 22.5C13.1992 23.3554 14.5958 23.7908 16.016 23.732ZM18.7907 19.4947C19.0547 19.6707 19.348 19.828 19.664 19.828C19.881 19.8305 20.0963 19.7889 20.2966 19.7055C20.497 19.6222 20.6783 19.4989 20.8295 19.3432C20.9807 19.1875 21.0986 19.0027 21.1761 18.7999C21.2535 18.5972 21.2889 18.3808 21.28 18.164C21.2799 17.8876 21.2082 17.616 21.0719 17.3756C20.9356 17.1351 20.7394 16.9341 20.5023 16.7921C20.2652 16.65 19.9954 16.5718 19.7191 16.5651C19.4428 16.5583 19.1695 16.6233 18.9257 16.7535C18.682 16.8838 18.4762 17.075 18.3283 17.3085C18.1804 17.542 18.0955 17.8098 18.0819 18.0859C18.0683 18.3619 18.1265 18.6368 18.2507 18.8836C18.3749 19.1305 18.5609 19.341 18.7907 19.4947Z" fill="white"/>
</svg>
