<?xml version="1.0" encoding="utf-8"?>
<!-- Generator: Adobe Illustrator 25.2.1, SVG Export Plug-In . SVG Version: 6.00 Build 0)  -->
<svg version="1.1" id="Layer_1" xmlns="http://www.w3.org/2000/svg" xmlns:xlink="http://www.w3.org/1999/xlink" x="0px" y="0px"
	 viewBox="0 0 512 512" style="enable-background:new 0 0 512 512;" xml:space="preserve">
<style type="text/css">
	.st0{fill:#1E1E28;}
	.st1{fill:#FFFFFF;}
	.st2{fill-rule:evenodd;clip-rule:evenodd;fill:url(#SVGID_1_);}
	.st3{fill:none;stroke:#363641;stroke-width:2;}
</style>
<g>
	<rect x="223.8" y="89.9" class="st0" width="71.3" height="71.3"/>
	<path class="st0" d="M74.3,126.5h363.4c9.6,0,17.4,7.8,17.4,17.4v278.2c0,9.6-7.8,17.4-17.4,17.4H74.3c-9.6,0-17.4-7.8-17.4-17.4
		V143.8C56.9,134.2,64.7,126.5,74.3,126.5z"/>
	<g>
		<rect x="196.7" y="248.5" class="st1" width="4.7" height="17.1"/>
		<path class="st1" d="M199.1,241.5c-1.4,0-2.6,1.1-2.6,2.4c0,1.3,1.2,2.4,2.6,2.4c1.4,0,2.6-1.1,2.6-2.4
			C201.7,242.6,200.5,241.5,199.1,241.5z"/>
		<path class="st1" d="M219.8,260.3c0-2.5-1.6-3.9-4.9-4.6l-3.1-0.6c-1.6-0.3-2.2-0.9-2.2-1.7c0-1,1.1-1.7,2.6-1.7
			c1.6,0,2.6,0.9,2.9,2l4.3-0.3c-0.4-3.1-3-5.1-7.3-5.1c-4.4,0-7.2,2-7.2,5.3c0,2.6,1.6,4.2,4.9,4.9l3,0.6c1.5,0.3,2.2,0.8,2.2,1.7
			c0,1-1.1,1.7-2.8,1.7c-1.7,0-2.8-0.7-3.1-2.1l-4.7,0.2c0.4,3.3,3.2,5.3,7.7,5.3C216.6,265.9,219.8,263.6,219.8,260.3z"/>
		<path class="st1" d="M247,265.8c2.6,0,4.4-1.3,5.2-3.3h0.2v3.1h4.5v-17.1h-4.7v9.8c0,2.3-1.6,3.5-3.3,3.5c-1.8,0-2.9-1.3-3-3.3
			v-10h-4.7v10.9C241.2,263.4,243.5,265.8,247,265.8z"/>
		<path class="st1" d="M267.7,262.5c-1.7,0-2.8-0.7-3.1-2.1l-4.7,0.2c0.4,3.3,3.2,5.3,7.7,5.3c4.4,0,7.6-2.3,7.6-5.6
			c0-2.5-1.6-3.9-4.9-4.6l-3.1-0.6c-1.6-0.3-2.2-0.9-2.2-1.7c0-1,1.1-1.7,2.6-1.7c1.6,0,2.6,0.9,2.9,2l4.3-0.3
			c-0.4-3.1-3-5.1-7.3-5.1c-4.4,0-7.2,2-7.2,5.3c0,2.6,1.6,4.2,4.9,4.9l3,0.6c1.5,0.3,2.2,0.8,2.2,1.7
			C270.4,261.8,269.3,262.5,267.7,262.5z"/>
		<path class="st1" d="M332.1,248.3c-2.5,0-4.4,1.2-5.1,3.2h-0.2v-3h-4.5v17.1h4.7v-9.9c0-2.2,1.3-3.5,3.2-3.5c1.9,0,3,1.2,3,3.3v10
			h4.7v-10.9C338,250.7,335.6,248.3,332.1,248.3z"/>
		<path class="st1" d="M230.5,265.9c4.5,0,7.4-2.7,7.6-6.6h-4.5c-0.3,1.8-1.5,2.8-3.1,2.8c-2.2,0-3.6-1.9-3.6-5.1
			c0-3.2,1.4-5.1,3.6-5.1c1.7,0,2.8,1.1,3.1,2.8h4.5c-0.2-3.9-3.2-6.5-7.6-6.5c-5.2,0-8.4,3.6-8.4,8.8
			C222.1,262.3,225.3,265.9,230.5,265.9z"/>
		<path class="st1" d="M182.2,242.8H174v22.8h8.1c6.9,0,11.1-4.3,11.1-11.4C193.2,247.1,189,242.8,182.2,242.8z M181.9,261.4h-3.1
			v-14.5h3.1c4.3,0,6.5,2.2,6.5,7.2C188.4,259.2,186.2,261.4,181.9,261.4z"/>
		<path class="st1" d="M278.2,289.6h-0.1c-0.6-1.4-2-3.1-4.9-3.1c-3.7,0-6.9,2.9-6.9,8.8c0,5.7,3,8.8,6.9,8.8c2.8,0,4.2-1.6,4.8-3
			h0.2v2.7h4.7v-22.8h-4.7V289.6z M274.8,300.3c-2.3,0-3.6-2.1-3.6-5c0-3,1.2-5,3.6-5c2.3,0,3.6,1.9,3.6,5
			C278.3,298.3,277,300.3,274.8,300.3z"/>
		<rect x="286.9" y="286.7" class="st1" width="4.7" height="17.1"/>
		<path class="st1" d="M287.9,255.6l-3.1-0.6c-1.6-0.3-2.2-0.9-2.2-1.7c0-1,1.1-1.7,2.6-1.7c1.6,0,2.6,0.9,2.9,2l4.3-0.3
			c-0.4-3.1-3-5.1-7.3-5.1c-4.4,0-7.2,2-7.2,5.3c0,2.6,1.6,4.2,4.9,4.9l3,0.6c1.5,0.3,2.2,0.8,2.2,1.7c0,1-1.1,1.7-2.8,1.7
			c-1.7,0-2.8-0.7-3.1-2.1l-4.7,0.2c0.4,3.3,3.2,5.3,7.7,5.3c4.4,0,7.6-2.3,7.6-5.6C292.8,257.8,291.2,256.3,287.9,255.6z"/>
		<path class="st1" d="M302.9,300.2c-0.9,0-1.6-0.4-1.6-1.7v-8.3h3.2v-3.6h-3.2v-4.1h-4.7v4.1h-2.3v3.6h2.3v8.9c0,3.3,2.3,5,5.7,4.9
			c1.2,0,2.1-0.3,2.6-0.4l-0.7-3.5C303.8,300.1,303.3,300.2,302.9,300.2z"/>
		<path class="st1" d="M225.3,288.5c0-4.5-3-7.4-8.2-7.4h-9v22.8h4.8v-8.1h3.5l4.3,8.1h5.3l-4.8-8.8
			C223.9,293.9,225.3,291.6,225.3,288.5z M216.3,291.9H213V285h3.2c2.8,0,4.1,1.2,4.1,3.5C220.4,290.7,219,291.9,216.3,291.9z"/>
		<path class="st1" d="M289.2,279.8c-1.4,0-2.6,1.1-2.6,2.4c0,1.3,1.2,2.4,2.6,2.4c1.4,0,2.6-1.1,2.6-2.4
			C291.8,280.8,290.6,279.8,289.2,279.8z"/>
		<path class="st1" d="M310.8,248.3c-5.2,0-8.4,3.5-8.4,8.8c0,5.3,3.2,8.8,8.4,8.8c5.2,0,8.4-3.5,8.4-8.8
			C319.2,251.8,315.9,248.3,310.8,248.3z M310.8,262.2c-2.4,0-3.6-2.2-3.6-5.2c0-3,1.2-5.2,3.6-5.2c2.3,0,3.6,2.2,3.6,5.2
			C314.3,260,313.1,262.2,310.8,262.2z"/>
		<path class="st1" d="M235.9,286.5c-5,0-8.3,3.6-8.3,8.8c0,5.4,3.2,8.8,8.5,8.8c4.2,0,7.1-2.1,7.7-5.2l-4.4-0.3
			c-0.5,1.3-1.7,2-3.3,2c-2.4,0-3.9-1.6-3.9-4.1v0H244v-1.3C244,289.4,240.5,286.5,235.9,286.5z M232.3,293.6
			c0.1-1.9,1.6-3.5,3.7-3.5c2.1,0,3.5,1.5,3.5,3.5H232.3z"/>
		<path class="st1" d="M258.3,289.6h-0.1c-0.6-1.4-2-3.1-4.9-3.1c-3.7,0-6.9,2.9-6.9,8.8c0,5.7,3,8.8,6.9,8.8c2.8,0,4.2-1.6,4.8-3
			h0.2v2.7h4.7v-22.8h-4.7V289.6z M254.9,300.3c-2.3,0-3.6-2.1-3.6-5c0-3,1.2-5,3.6-5c2.3,0,3.6,1.9,3.6,5
			C258.4,298.3,257.1,300.3,254.9,300.3z"/>
	</g>
	
		<linearGradient id="SVGID_1_" gradientUnits="userSpaceOnUse" x1="258.6082" y1="441.4436" x2="258.6082" y2="337.1155" gradientTransform="matrix(1 0 0 -1 0 514)">
		<stop  offset="0" style="stop-color:#3D57ED"/>
		<stop  offset="1" style="stop-color:#08D795"/>
	</linearGradient>
	<path class="st2" d="M310.8,124.7c0,28.8-23.4,52.2-52.2,52.2c-28.8,0-52.2-23.4-52.2-52.2s23.4-52.2,52.2-52.2
		C287.4,72.6,310.8,95.9,310.8,124.7z M292,120.6c0.8,1.2,1.3,2.6,1.4,4.1c0,1.4-0.4,2.9-1.1,4.1c-0.7,1.2-1.8,2.2-3.1,2.9
		c0.1,0.8,0.1,1.5,0,2.3c0,11.7-13.6,21.2-30.4,21.2c-16.8,0-30.4-9.5-30.4-21.2c-0.1-0.8-0.1-1.5,0-2.3c-1-0.5-1.9-1.1-2.6-2
		c-0.7-0.8-1.2-1.8-1.5-2.9c-0.3-1.1-0.4-2.2-0.2-3.3c0.2-1.1,0.6-2.1,1.2-3c0.6-0.9,1.4-1.7,2.4-2.2c0.9-0.6,2-0.9,3.1-1.1
		c1.1-0.1,2.2,0,3.2,0.3c1,0.3,2,0.9,2.8,1.7c6-4.1,13.1-6.3,20.3-6.4l3.9-18.1c0-0.2,0.1-0.4,0.2-0.6c0.1-0.2,0.3-0.3,0.5-0.4
		c0.2-0.1,0.4-0.2,0.6-0.2c0.2,0,0.4,0,0.6,0l12.8,2.6c0.6-1.1,1.6-1.9,2.8-2.3c1.2-0.4,2.4-0.4,3.6,0.1c1.2,0.4,2.1,1.3,2.7,2.4
		c0.6,1.1,0.8,2.4,0.5,3.6c-0.3,1.2-0.9,2.3-1.9,3.1c-1,0.8-2.2,1.1-3.4,1.1c-1.2-0.1-2.4-0.6-3.3-1.4c-0.9-0.9-1.5-2-1.6-3.2
		l-11.2-2.3l-3.4,16.3c7.2,0.2,14.1,2.4,20.1,6.4c0.8-0.8,1.7-1.3,2.8-1.7c1-0.4,2.1-0.5,3.2-0.4c1.1,0.1,2.2,0.4,3.1,1
		C290.6,119,291.4,119.7,292,120.6L292,120.6z M242.1,127c-0.4,0.6-0.6,1.2-0.8,1.9c-0.1,0.7-0.1,1.4,0,2c0.3,1.4,1.1,2.6,2.2,3.3
		c1.2,0.8,2.6,1.1,3.9,0.8c0.7-0.1,1.3-0.4,1.9-0.8c0.6-0.4,1.1-0.9,1.4-1.4c0.8-1.1,1.1-2.6,0.8-3.9c-0.3-1.4-1.1-2.6-2.2-3.3
		c-1.2-0.8-2.6-1.1-3.9-0.8C244.1,125.1,242.9,125.9,242.1,127z M258.7,148.3c4.6,0.2,9.2-1,12.9-3.8c0.3-0.3,0.4-0.6,0.4-1
		c0-0.4-0.1-0.8-0.4-1c-0.1-0.1-0.3-0.2-0.5-0.3c-0.2-0.1-0.4-0.1-0.6-0.1c-0.4,0-0.8,0.1-1,0.4c-3.2,2.3-7,3.4-10.9,3.2
		c-3.9,0.2-7.7-1-10.9-3.3c-0.3-0.2-0.6-0.3-1-0.3c-0.3,0-0.7,0.2-0.9,0.4c-0.2,0.2-0.4,0.6-0.4,0.9c0,0.3,0.1,0.7,0.3,1
		C249.5,147.1,254,148.5,258.7,148.3L258.7,148.3z M267.7,134.5c0.9,0.6,1.8,1.1,2.8,1.1c0.7,0,1.4-0.1,2.1-0.4
		c0.7-0.3,1.2-0.7,1.7-1.2c0.5-0.5,0.9-1.1,1.1-1.8c0.3-0.7,0.4-1.4,0.3-2.1c0-0.9-0.2-1.8-0.7-2.6c-0.4-0.8-1.1-1.4-1.9-1.9
		c-0.8-0.5-1.7-0.7-2.6-0.7c-0.9,0-1.8,0.2-2.6,0.6c-0.8,0.4-1.5,1-1.9,1.8c-0.5,0.8-0.8,1.6-0.8,2.5c0,0.9,0.1,1.8,0.5,2.6
		C266.4,133.3,267,134,267.7,134.5L267.7,134.5z"/>
	<path class="st3" d="M256,410c-13.9,0-25.2-11.3-25.2-25.3c0-14,11.3-25.3,25.2-25.3c13.9,0,25.2,11.3,25.2,25.3
		C281.2,398.7,269.9,410,256,410z"/>
	<path class="st1" d="M249,377.7c0-1.6,1.9-2.5,3.2-1.6l12.2,8.4c0.3,0.2,0.5,0.4,0.6,0.7c0.1,0.3,0.2,0.6,0.2,0.9
		c0,0.3-0.1,0.6-0.3,0.9c-0.2,0.3-0.4,0.5-0.7,0.7l-12.2,7.5c-1.4,0.8-3.2-0.1-3.2-1.6V377.7z"/>
</g>
</svg>
