<svg width="127" height="142" viewBox="0 0 127 142" fill="none" xmlns="http://www.w3.org/2000/svg">
<path d="M124.165 69.6061C122.379 68.5229 120.232 68.5229 118.428 69.6061L83.5216 90.5767C83.2295 90.7543 82.9719 90.9496 82.7142 91.1627L66.2059 81.2367V53.2167C66.3089 53.1634 66.412 53.1279 66.4979 53.0569L101.456 32.0508C103.225 30.9854 104.29 29.0676 104.29 26.9369C104.29 24.8061 103.225 22.8883 101.439 21.8229L66.223 0.79905C64.4537 -0.26635 62.2549 -0.26635 60.4855 0.79905L25.5449 21.8052C23.7412 22.8706 22.6761 24.7705 22.6761 26.9191C22.6761 29.0676 23.7583 30.9676 25.5449 32.033L60.7604 53.0569C60.8462 53.1102 60.9493 53.1279 61.0524 53.1812V81.219L44.63 91.0917C44.4066 90.8963 44.149 90.7188 43.8913 90.559L8.67581 69.5351C6.88927 68.4697 4.74199 68.4874 2.95545 69.5528C1.16891 70.6182 0.103852 72.5359 0.103852 74.649L0.000782391 115.01C-0.0335742 117.123 1.06584 119.112 2.85238 120.177L38.0678 141.201C38.9611 141.734 39.9403 142 40.9194 142C41.9158 142 42.8949 141.734 43.7882 141.183C45.5748 140.118 46.6398 138.2 46.6398 136.087L46.7429 95.9747L61.2242 87.274C61.5849 88.2861 62.5297 89.0141 63.6291 89.0141C64.7285 89.0141 65.6733 88.3039 66.0341 87.2917L80.6528 96.0813L80.5497 136.016C80.5326 138.165 81.5976 140.082 83.3841 141.148C84.2774 141.68 85.2738 141.947 86.2529 141.947C87.2493 141.947 88.2284 141.68 89.1217 141.165L124.028 120.195C125.797 119.147 126.897 117.194 126.897 115.099L127 74.7378C127.017 72.5892 125.952 70.6715 124.165 69.6061ZM86.0811 95.1935L115.284 77.6499L85.7204 129.411L85.8063 95.6729C85.8063 95.4776 85.9094 95.3 86.0811 95.1935ZM63.0966 5.41578C63.1825 5.36251 63.2684 5.34475 63.3715 5.34475C63.4745 5.34475 63.5776 5.38027 63.6463 5.41578L95.2543 24.2911H31.6775L63.0966 5.41578ZM31.815 29.6181H95.2372L63.904 48.4402C63.715 48.5467 63.5261 48.5467 63.3371 48.4402L31.815 29.6181ZM41.5894 95.6906L41.5035 131.328L10.2734 76.6555L41.3145 95.1757C41.4863 95.2822 41.5894 95.4776 41.5894 95.6906ZM5.15427 115.045L5.24016 78.2891L37.4323 134.666L5.42912 115.56C5.25734 115.454 5.15427 115.276 5.15427 115.045ZM121.468 115.543L88.1941 135.537L121.829 76.62L121.743 115.063C121.743 115.258 121.64 115.436 121.468 115.543Z" fill="url(#paint0_linear)"/>
<defs>
<linearGradient id="paint0_linear" x1="38.5" y1="132.5" x2="129.886" y2="45.3121" gradientUnits="userSpaceOnUse">
<stop stop-color="#2E2E42" stop-opacity="0"/>
<stop offset="1" stop-color="#2E2E42"/>
</linearGradient>
</defs>
</svg>
