<?xml version="1.0" encoding="utf-8"?>
<!-- Generator: Adobe Illustrator 25.2.1, SVG Export Plug-In . SVG Version: 6.00 Build 0)  -->
<svg version="1.1" id="Layer_1" xmlns="http://www.w3.org/2000/svg" xmlns:xlink="http://www.w3.org/1999/xlink" x="0px" y="0px"
	 viewBox="0 0 512 512" style="enable-background:new 0 0 512 512;" xml:space="preserve">
<style type="text/css">
	.st0{fill:#1E1E28;}
	.st1{fill:url(#SVGID_1_);}
	.st2{fill:#FFFFFF;}
	.st3{fill:none;stroke:#363641;stroke-width:2;}
</style>
<path class="st0" d="M437.7,123H287.2c-8.3,0-13-9.4-8.2-16.1c6.7-9.2-4.6-20.8-13.9-14.3l-39.4,27.3c-2.9,2-6.4,3.1-9.9,3.1H74.3
	c-9.6,0-17.4,7.8-17.4,17.4v278.2c0,9.6,7.8,17.4,17.4,17.4h363.4c9.6,0,17.4-7.8,17.4-17.4V140.4C455.1,130.8,447.3,123,437.7,123z
	"/>
<linearGradient id="SVGID_1_" gradientUnits="userSpaceOnUse" x1="289.9667" y1="450.8288" x2="197.7181" y2="323.8842" gradientTransform="matrix(1 0 0 -1 0 514)">
	<stop  offset="0" style="stop-color:#3D57ED"/>
	<stop  offset="0.8563" style="stop-color:#08D795"/>
</linearGradient>
<path class="st1" d="M289.1,76.7l-101.7,39.7c-6.9,2.8-6.9,6.7-1.3,8.5l26.1,8.2l60.4-38.5c2.9-1.8,5.5-0.8,3.3,1.1l-48.9,44.7h0
	l0,0l-1.8,27.2c2.6,0,3.8-1.2,5.3-2.7l12.7-12.5l26.4,19.7c4.9,2.7,8.4,1.3,9.6-4.6L296.5,85C298.2,77.8,293.8,74.6,289.1,76.7
	L289.1,76.7z"/>
<g>
	<path class="st2" d="M163.5,247.9h-0.2c-0.6-1.4-2-3.1-4.9-3.1c-3.7,0-6.9,2.9-6.9,8.7c0,5.7,3.1,8.3,6.9,8.3
		c2.7,0,4.2-1.4,4.9-2.8h0.2v3.1c0,2.3-1.5,3.3-3.6,3.3c-2.1,0-3.1-0.9-3.5-1.9l-4.4,0.6c0.6,2.7,3.2,4.8,7.8,4.8
		c4.9,0,8.3-2.2,8.3-6.6V245h-4.7V247.9z M159.9,258.3c-2.3,0-3.6-1.8-3.6-4.8c0-2.9,1.2-4.9,3.6-4.9c2.3,0,3.6,1.9,3.6,4.9
		C163.5,256.5,162.2,258.3,159.9,258.3z"/>
	<path class="st2" d="M186.4,262.1v-11.5c0-4.1-3.4-5.8-7.2-5.8c-4.1,0-6.8,2-7.4,5.1l4.4,0.4c0.3-1.1,1.3-2,3-2
		c1.6,0,2.5,0.8,2.5,2.2v0.1c0,1.1-1.2,1.2-4.1,1.5c-3.4,0.3-6.4,1.4-6.4,5.3c0,3.4,2.4,5.1,5.7,5.1c2.5,0,4.2-1.1,5-2.7h0.1v2.4
		H186.4z M181.7,256c0,1.8-1.5,3.2-3.6,3.2c-1.5,0-2.5-0.7-2.5-2c0-1.3,1.1-2,2.8-2.2c1-0.1,2.7-0.4,3.3-0.8V256z"/>
	<path class="st2" d="M362.3,244.8c-5.2,0-8.4,3.5-8.4,8.8c0,5.3,3.2,8.8,8.4,8.8c5.2,0,8.4-3.5,8.4-8.8
		C370.7,248.3,367.5,244.8,362.3,244.8z M362.3,258.8c-2.4,0-3.6-2.2-3.6-5.2s1.2-5.2,3.6-5.2c2.3,0,3.6,2.2,3.6,5.2
		S364.7,258.8,362.3,258.8z"/>
	<polygon class="st2" points="203.3,277.6 184.6,277.6 184.6,281.5 191.6,281.5 191.6,300.3 196.4,300.3 196.4,281.5 203.3,281.5 	
		"/>
	<path class="st2" d="M142.5,244.8c-2.5,0-4.4,1.2-5.1,3.2h-0.2v-3h-4.5v17.1h4.7v-9.9c0-2.2,1.3-3.5,3.2-3.5c1.9,0,3,1.2,3,3.3v10
		h4.7v-10.9C148.4,247.2,146.1,244.8,142.5,244.8z"/>
	<path class="st2" d="M383.7,244.8c-2.5,0-4.4,1.2-5.1,3.2h-0.2v-3h-4.5v17.1h4.7v-9.9c0-2.2,1.3-3.5,3.2-3.5c1.9,0,3,1.2,3,3.3v10
		h4.7v-10.9C389.5,247.2,387.2,244.8,383.7,244.8z"/>
	<path class="st2" d="M217.7,262.4c4.2,0,7.1-2.1,7.7-5.2l-4.4-0.3c-0.5,1.3-1.7,2-3.3,2c-2.4,0-3.9-1.6-3.9-4.1v0h11.6v-1.3
		c0-5.8-3.5-8.7-8-8.7c-5,0-8.3,3.6-8.3,8.8C209.2,259,212.4,262.4,217.7,262.4z M217.6,248.3c2.1,0,3.5,1.5,3.5,3.5h-7.2
		C214,249.9,215.5,248.3,217.6,248.3z"/>
	<polygon class="st2" points="118.4,252.7 128.2,252.7 128.2,248.7 118.4,248.7 118.4,243.3 128.9,243.3 128.9,239.3 113.6,239.3 
		113.6,262.1 129,262.1 129,258.1 118.4,258.1 	"/>
	<path class="st2" d="M289.2,283c-4.1,0-6.8,2-7.4,5.1l4.4,0.4c0.3-1.1,1.3-2,3-2c1.6,0,2.5,0.8,2.5,2.2v0.1c0,1.1-1.2,1.2-4.1,1.5
		c-3.4,0.3-6.4,1.4-6.4,5.3c0,3.4,2.4,5.1,5.7,5.1c2.5,0,4.2-1.1,5-2.7h0.1v2.4h4.5v-11.5C296.4,284.8,293,283,289.2,283z
		 M291.7,294.2c0,1.8-1.5,3.2-3.6,3.2c-1.5,0-2.5-0.7-2.5-2c0-1.3,1.1-2,2.8-2.2c1-0.1,2.7-0.4,3.3-0.8V294.2z"/>
	<path class="st2" d="M196.4,261.8c2.7,0,4.2-1.4,4.9-2.8h0.2v3.1c0,2.3-1.5,3.3-3.6,3.3c-2.1,0-3.1-0.9-3.5-1.9l-4.4,0.6
		c0.6,2.7,3.2,4.8,7.8,4.8c4.9,0,8.3-2.2,8.3-6.6V245h-4.7v2.9h-0.2c-0.6-1.4-2-3.1-4.9-3.1c-3.7,0-6.9,2.9-6.9,8.7
		C189.5,259.2,192.6,261.8,196.4,261.8z M197.9,248.6c2.3,0,3.6,1.9,3.6,4.9c0,3-1.3,4.8-3.6,4.8c-2.3,0-3.6-1.8-3.6-4.8
		C194.3,250.6,195.6,248.6,197.9,248.6z"/>
	<path class="st2" d="M339.5,252.2l-3.1-0.6c-1.6-0.3-2.2-0.9-2.2-1.7c0-1,1.1-1.7,2.6-1.7c1.6,0,2.6,0.9,2.9,2l4.3-0.3
		c-0.4-3.1-3-5.1-7.3-5.1c-4.4,0-7.2,2-7.2,5.3c0,2.6,1.6,4.2,4.9,4.9l3,0.6c1.5,0.3,2.2,0.8,2.2,1.7c0,1-1.1,1.7-2.8,1.7
		c-1.7,0-2.8-0.7-3.1-2.1l-4.7,0.2c0.4,3.3,3.2,5.3,7.7,5.3c4.4,0,7.6-2.3,7.6-5.6C344.4,254.3,342.8,252.8,339.5,252.2z"/>
	<path class="st2" d="M264.9,238c-1.4,0-2.6,1.1-2.6,2.4c0,1.3,1.2,2.4,2.6,2.4c1.4,0,2.6-1.1,2.6-2.4
		C267.4,239.1,266.3,238,264.9,238z"/>
	<rect x="262.5" y="245" class="st2" width="4.7" height="17.1"/>
	<path class="st2" d="M261.1,286.1H261c-0.6-1.4-2-3.1-4.9-3.1c-3.7,0-6.9,2.9-6.9,8.7c0,5.7,3.1,8.3,6.9,8.3c2.7,0,4.2-1.4,4.9-2.8
		h0.2v3.1c0,2.3-1.5,3.3-3.6,3.3c-2.1,0-3.1-0.9-3.5-1.9l-4.4,0.6c0.6,2.7,3.2,4.8,7.8,4.8c4.9,0,8.3-2.2,8.3-6.6v-17.2h-4.7V286.1z
		 M257.6,296.5c-2.3,0-3.6-1.8-3.6-4.8c0-2.9,1.2-4.9,3.6-4.9c2.3,0,3.6,1.9,3.6,4.9C261.2,294.8,259.9,296.5,257.6,296.5z"/>
	<path class="st2" d="M274.4,286.2h-0.2v-3h-4.6v17.1h4.7v-9.7c0-2.1,1.5-3.5,3.6-3.5c0.7,0,1.6,0.1,2,0.3v-4.2
		c-0.4-0.1-1-0.2-1.5-0.2C276.6,283,275,284.1,274.4,286.2z"/>
	<path class="st2" d="M278.5,258.5c-0.9,0-1.6-0.4-1.6-1.7v-8.3h3.2V245h-3.2v-4.1h-4.7v4.1h-2.3v3.6h2.3v8.9c0,3.3,2.3,5,5.7,4.9
		c1.2,0,2.1-0.3,2.6-0.4l-0.7-3.5C279.4,258.4,278.9,258.5,278.5,258.5z"/>
	<path class="st2" d="M293.5,244.8c-2.6,0-4.3,1.2-5.1,3.2h-0.2v-8.7h-4.6v22.8h4.7v-9.9c0-2.2,1.4-3.5,3.3-3.5c1.9,0,3.1,1.2,3,3.3
		v10h4.7v-10.9C299.4,247.2,297,244.8,293.5,244.8z"/>
	<path class="st2" d="M319.5,283c-2.5,0-4.4,1.3-5.1,3.2h-0.2c-0.5-2-2.3-3.2-4.6-3.2c-2.3,0-4,1.2-4.8,3.2h-0.2v-3h-4.5v17.1h4.7
		v-10.2c0-1.9,1.2-3.1,2.8-3.1c1.6,0,2.6,1.1,2.6,2.7v10.6h4.6v-10.4c0-1.8,1-3,2.7-3c1.5,0,2.6,0.9,2.6,2.8v10.5h4.7v-11.5
		C324.9,285.2,322.7,283,319.5,283z"/>
	<rect x="222.6" y="277.6" class="st2" width="4.7" height="22.8"/>
	<path class="st2" d="M211.4,283c-5,0-8.3,3.6-8.3,8.8c0,5.4,3.2,8.8,8.5,8.8c4.2,0,7.1-2.1,7.7-5.2l-4.4-0.3c-0.5,1.3-1.7,2-3.3,2
		c-2.4,0-3.9-1.6-3.9-4.1v0h11.6v-1.3C219.5,285.9,216,283,211.4,283z M207.8,290.1c0.1-1.9,1.6-3.5,3.7-3.5c2.1,0,3.5,1.5,3.5,3.5
		H207.8z"/>
	<path class="st2" d="M321.3,254.8c0,2.3-1.6,3.5-3.3,3.5c-1.8,0-2.9-1.3-3-3.3v-10h-4.7v10.9c0,4,2.3,6.4,5.8,6.4
		c2.6,0,4.4-1.3,5.2-3.3h0.2v3.1h4.5V245h-4.7V254.8z"/>
	<polygon class="st2" points="255.3,262.1 260,245 255.2,245 252.6,256.4 252.4,256.4 249.6,245 244.9,245 242.2,256.5 242,256.5 
		239.4,245 234.6,245 239.2,262.1 244.2,262.1 247.2,251.3 247.4,251.3 250.3,262.1 	"/>
	<path class="st2" d="M238.7,283c-5,0-8.3,3.6-8.3,8.8c0,5.4,3.2,8.8,8.5,8.8c4.2,0,7.1-2.1,7.7-5.2l-4.4-0.3c-0.5,1.3-1.7,2-3.3,2
		c-2.4,0-3.9-1.6-3.9-4.1v0h11.6v-1.3C246.7,285.9,243.2,283,238.7,283z M235.1,290.1c0.1-1.9,1.6-3.5,3.7-3.5
		c2.1,0,3.5,1.5,3.5,3.5H235.1z"/>
</g>
<path class="st3" d="M256.6,406.5c-13.9,0-25.2-11.3-25.2-25.3c0-14,11.3-25.3,25.2-25.3s25.2,11.3,25.2,25.3
	C281.8,395.2,270.5,406.5,256.6,406.5z"/>
<path class="st2" d="M248.4,374.2c0-1.6,1.9-2.5,3.2-1.6l12.2,8.4c0.3,0.2,0.5,0.4,0.6,0.7c0.1,0.3,0.2,0.6,0.2,0.9
	c0,0.3-0.1,0.6-0.3,0.9c-0.2,0.3-0.4,0.5-0.7,0.7l-12.2,7.5c-1.4,0.8-3.2-0.1-3.2-1.7V374.2z"/>
</svg>
