<?xml version="1.0" encoding="utf-8"?>
<!-- Generator: Adobe Illustrator 25.2.1, SVG Export Plug-In . SVG Version: 6.00 Build 0)  -->
<svg version="1.1" id="Layer_1" xmlns="http://www.w3.org/2000/svg" xmlns:xlink="http://www.w3.org/1999/xlink" x="0px" y="0px"
	 viewBox="0 0 512 512" style="enable-background:new 0 0 512 512;" xml:space="preserve">
<style type="text/css">
	.st0{fill:#1E1E28;}
	.st1{fill:#FFFFFF;}
	.st2{fill:url(#SVGID_1_);}
	.st3{fill:none;stroke:#363641;stroke-width:2;}
</style>
<path class="st0" d="M72.8,123h365.1c9.6,0,17.4,7.8,17.4,17.4v278.2c0,9.6-7.8,17.4-17.4,17.4H72.8c-9.6,0-17.4-7.8-17.4-17.4
	V140.4C55.4,130.8,63.2,123,72.8,123z"/>
<path class="st1" d="M162.8,256.9h4.8v-9.4h9.3v-4h-9.3v-5.4h10.3v-4h-15.1V256.9z M187.5,257.2c5.2,0,8.4-3.5,8.4-8.8
	c0-5.3-3.2-8.8-8.4-8.8s-8.4,3.5-8.4,8.8C179.1,253.7,182.3,257.2,187.5,257.2z M187.5,253.5c-2.4,0-3.6-2.2-3.6-5.2
	c0-3,1.2-5.2,3.6-5.2c2.3,0,3.6,2.2,3.6,5.2C191.1,251.3,189.9,253.5,187.5,253.5z M203.7,234.1H199v22.8h4.7V234.1z M212.3,234.1
	h-4.7v22.8h4.7V234.1z M223.8,257.2c5.2,0,8.4-3.5,8.4-8.8c0-5.3-3.2-8.8-8.4-8.8c-5.2,0-8.4,3.5-8.4,8.8
	C215.4,253.7,218.6,257.2,223.8,257.2z M223.8,253.5c-2.4,0-3.6-2.2-3.6-5.2c0-3,1.2-5.2,3.6-5.2c2.3,0,3.6,2.2,3.6,5.2
	C227.4,251.3,226.1,253.5,223.8,253.5z M238.2,256.9h5l2.9-10.7h0.2l2.9,10.7h5l4.6-17.1h-4.8l-2.6,11.4h-0.1l-2.8-11.4h-4.7
	l-2.8,11.5H241l-2.6-11.5h-4.8L238.2,256.9z M279.6,249.6c0,2.3-1.6,3.5-3.3,3.5c-1.8,0-2.9-1.3-3-3.3v-10h-4.7v10.9
	c0,4,2.3,6.4,5.8,6.4c2.6,0,4.4-1.3,5.2-3.3h0.2v3.1h4.5v-17.1h-4.7V249.6z M302.4,244.7c-0.4-3.1-3-5.1-7.3-5.1
	c-4.4,0-7.2,2-7.2,5.3c0,2.6,1.6,4.2,4.9,4.9l3,0.6c1.5,0.3,2.2,0.8,2.2,1.7c0,1-1.1,1.7-2.8,1.7c-1.7,0-2.8-0.7-3.1-2.1l-4.7,0.2
	c0.4,3.3,3.2,5.3,7.7,5.3c4.4,0,7.6-2.3,7.6-5.6c0-2.5-1.6-3.9-4.9-4.6l-3.1-0.6c-1.6-0.3-2.2-0.9-2.2-1.7c0-1,1.1-1.7,2.6-1.7
	c1.6,0,2.6,0.9,2.9,2L302.4,244.7z M320.7,257.2c5.2,0,8.4-3.5,8.4-8.8c0-5.3-3.2-8.8-8.4-8.8c-5.2,0-8.4,3.5-8.4,8.8
	C312.3,253.7,315.5,257.2,320.7,257.2z M320.7,253.5c-2.4,0-3.6-2.2-3.6-5.2c0-3,1.2-5.2,3.6-5.2c2.3,0,3.6,2.2,3.6,5.2
	C324.3,251.3,323.1,253.5,320.7,253.5z M336.9,247c0-2.2,1.3-3.5,3.2-3.5c1.9,0,3,1.2,3,3.3v10h4.7V246c0-4-2.3-6.4-5.9-6.4
	c-2.5,0-4.4,1.2-5.1,3.2h-0.2v-3h-4.5v17.1h4.7V247z M201.5,276.3h7v18.8h4.8v-18.8h7v-4h-18.7V276.3z M224.6,295.1h5l2.9-10.7h0.2
	l2.9,10.7h5l4.6-17.1h-4.8l-2.6,11.4h-0.1l-2.8-11.4h-4.7l-2.8,11.5h-0.2l-2.6-11.5H220L224.6,295.1z M247.9,295.1h4.7v-17.1h-4.7
	V295.1z M250.3,275.9c1.4,0,2.6-1.1,2.6-2.4c0-1.3-1.2-2.4-2.6-2.4c-1.4,0-2.6,1.1-2.6,2.4C247.7,274.8,248.9,275.9,250.3,275.9z
	 M265.5,278.1h-3.2V274h-4.7v4.1h-2.3v3.6h2.3v8.9c0,3.3,2.3,5,5.7,4.9c1.2,0,2.1-0.3,2.6-0.4l-0.7-3.5c-0.2,0-0.7,0.2-1.2,0.2
	c-0.9,0-1.6-0.4-1.6-1.7v-8.3h3.2V278.1z M277.7,278.1h-3.2V274h-4.7v4.1h-2.3v3.6h2.3v8.9c0,3.3,2.3,5,5.7,4.9
	c1.2,0,2.1-0.3,2.6-0.4l-0.7-3.5c-0.2,0-0.7,0.2-1.2,0.2c-0.9,0-1.6-0.4-1.6-1.7v-8.3h3.2V278.1z M288.3,295.5
	c4.2,0,7.1-2.1,7.7-5.2l-4.4-0.3c-0.5,1.3-1.7,2-3.3,2c-2.4,0-3.9-1.6-3.9-4.1v0h11.6v-1.3c0-5.8-3.5-8.7-8-8.7
	c-5,0-8.3,3.6-8.3,8.8C279.9,292.1,283.1,295.5,288.3,295.5z M284.5,284.9c0.1-1.9,1.6-3.5,3.7-3.5c2.1,0,3.5,1.5,3.5,3.5H284.5z
	 M299.3,295.1h4.7v-9.7c0-2.1,1.5-3.5,3.6-3.5c0.7,0,1.6,0.1,2,0.3V278c-0.4-0.1-1-0.2-1.5-0.2c-1.9,0-3.5,1.1-4.1,3.2h-0.2v-3h-4.6
	V295.1z"/>
<linearGradient id="SVGID_1_" gradientUnits="userSpaceOnUse" x1="255.3675" y1="437.966" x2="255.3675" y2="340.5931" gradientTransform="matrix(1 0 0 -1 0 514)">
	<stop  offset="0" style="stop-color:#3D57ED"/>
	<stop  offset="1" style="stop-color:#08D795"/>
</linearGradient>
<path class="st2" d="M301.7,100.3c0.1,1.1,0.1,2.1,0.1,3.2c0,32.5-24,70-68,70c-13.5,0-26.1-4.1-36.6-11.1
	c6.3,0.8,12.6,0.3,18.7-1.5c6.1-1.7,11.7-4.7,16.7-8.7c-5-0.1-9.8-1.8-13.8-4.9c-4-3.1-7-7.3-8.5-12.2c3.6,0.7,7.3,0.5,10.8-0.4
	c-5.4-1.1-10.3-4.1-13.8-8.5c-3.5-4.4-5.4-9.9-5.4-15.6v-0.3c3.3,1.9,7,3,10.8,3.1c-5.1-3.5-8.7-8.8-10-14.9
	c-1.4-6.1-0.4-12.5,2.6-17.9c6,7.6,13.5,13.8,22,18.2c8.5,4.4,17.8,7,27.3,7.5c-0.4-1.8-0.6-3.7-0.6-5.6c0-3.2,0.6-6.4,1.8-9.4
	c1.2-3,3-5.7,5.2-8c2.2-2.3,4.9-4.1,7.8-5.3c2.9-1.2,6-1.9,9.1-1.9c3.3,0,6.5,0.7,9.5,2c3,1.3,5.7,3.3,7.9,5.7
	c5.4-1.1,10.5-3.1,15.2-6c-1.8,5.7-5.5,10.5-10.5,13.6c4.7-0.6,9.4-1.9,13.7-3.9C310.4,92.5,306.4,96.8,301.7,100.3L301.7,100.3z"/>
<path class="st3" d="M255.4,406.5c-13.9,0-25.2-11.3-25.2-25.3c0-14,11.3-25.3,25.2-25.3s25.2,11.3,25.2,25.3
	C280.6,395.2,269.3,406.5,255.4,406.5z"/>
<path class="st1" d="M247.2,374.2c0-1.6,1.9-2.5,3.2-1.6l12.2,8.4c0.3,0.2,0.5,0.4,0.6,0.7c0.1,0.3,0.2,0.6,0.2,0.9
	c0,0.3-0.1,0.6-0.3,0.9c-0.2,0.3-0.4,0.5-0.7,0.7l-12.2,7.5c-1.4,0.8-3.2-0.1-3.2-1.6V374.2z"/>
</svg>
