<svg width="35" height="31" viewBox="0 0 35 31" fill="none" xmlns="http://www.w3.org/2000/svg">
<path d="M31.3139 8.21213C31.3291 8.52889 31.3347 8.84955 31.3347 9.16631C31.3347 18.9232 24.1568 30.1699 11.0316 30.1699C6.99938 30.1699 3.25068 28.9479 0.0917969 26.8518C1.96024 27.0855 3.85489 26.9361 5.66747 26.412C7.48004 25.888 9.17499 24.9996 10.6555 23.7977C9.16659 23.7686 7.72374 23.259 6.52863 22.3401C5.33352 21.4213 4.44589 20.1391 3.98984 18.6729C5.05993 18.8799 6.16125 18.8364 7.213 18.5458C5.59785 18.207 4.14561 17.3011 3.10238 15.9816C2.05914 14.662 1.48909 13.0099 1.48882 11.3054V11.2135C2.47977 11.7836 3.58806 12.1007 4.72143 12.1383C3.20886 11.0954 2.13813 9.49464 1.7278 7.6629C1.31746 5.83116 1.59845 3.90651 2.51342 2.28177C4.30514 4.56252 6.54068 6.42794 9.07483 7.75685C11.609 9.08576 14.3851 9.84844 17.2228 9.99535C17.1 9.44321 17.0385 8.8784 17.0394 8.31185C17.0394 7.34289 17.2239 6.38342 17.5825 5.48824C17.9411 4.59306 18.4666 3.77971 19.1291 3.09464C19.7917 2.40957 20.5782 1.86621 21.4437 1.49558C22.3093 1.12495 23.237 0.934323 24.1738 0.93458C25.1502 0.932933 26.1164 1.13879 27.0126 1.53938C27.9088 1.93997 28.7159 2.52675 29.3838 3.26332C30.9815 2.9362 32.5137 2.33056 33.9152 1.47228C33.3821 3.1816 32.267 4.63245 30.7771 5.55491C32.1916 5.38146 33.573 4.98998 34.8755 4.39347C33.9187 5.87643 32.7124 7.1698 31.3139 8.21213Z" fill="white"/>
</svg>
